{"glyphs":{"0":{"ha":321,"x_min":27,"x_max":300,"o":"m 157 396 q 149 393 155 391 l 149 391 l 149 393 l 149 391 l 144 391 q 138 388 142 386 q 133 385 136 383 q 127 382 131 380 q 122 380 125 378 q 109 369 119 370 q 100 363 106 362 l 98 355 l 92 350 l 92 353 l 90 350 l 92 350 l 90 350 q 84 345 87 345 q 76 336 81 339 l 79 339 l 76 336 q 71 331 74 330 q 62 320 70 322 l 62 312 l 57 309 l 54 301 l 52 293 l 49 293 l 52 293 l 49 293 l 46 288 q 41 269 43 277 l 41 274 l 41 269 q 38 263 37 267 l 35 260 q 33 247 37 251 l 33 222 q 30 217 28 220 l 27 203 l 30 201 l 27 203 l 30 201 l 30 193 l 27 193 l 30 193 l 27 193 l 27 187 l 27 193 l 27 174 q 30 163 32 172 q 33 152 35 159 q 35 146 37 150 l 38 144 l 35 146 l 38 141 l 38 144 l 38 138 l 38 141 l 38 136 l 38 138 q 41 125 40 132 l 41 127 l 41 125 q 43 114 46 121 l 46 114 l 43 114 l 46 114 l 46 109 q 49 98 50 104 q 52 90 54 95 l 54 90 l 52 90 l 54 90 l 54 84 q 57 76 60 81 q 60 71 62 74 q 65 60 66 68 q 68 54 70 58 l 73 52 l 76 46 q 84 35 81 41 q 95 27 94 33 q 103 22 102 27 l 114 19 l 111 19 l 114 19 q 119 16 116 15 l 122 14 q 127 8 128 12 l 133 5 q 144 3 140 5 q 155 0 151 3 l 168 0 l 179 0 l 179 3 l 179 0 l 179 3 l 193 3 q 198 5 195 7 q 203 8 198 8 l 201 8 l 203 8 l 212 11 q 220 19 214 17 l 225 19 l 228 24 l 228 30 l 228 24 l 228 30 l 233 30 q 241 35 235 37 q 244 46 237 43 l 247 52 l 255 49 l 252 49 l 255 49 q 260 54 257 54 q 255 60 260 60 l 255 62 l 255 60 l 258 62 l 255 62 l 260 62 l 258 62 l 263 62 l 260 62 l 263 62 q 269 68 265 68 l 269 73 l 269 68 l 269 73 l 269 84 l 274 81 l 274 92 l 274 98 q 277 103 278 100 l 279 109 l 282 117 l 282 122 l 282 117 l 282 125 l 282 122 l 282 125 q 285 133 288 128 l 285 138 l 288 138 l 285 138 l 288 138 l 288 149 l 290 155 l 288 157 q 290 165 292 159 l 290 163 l 290 168 l 290 165 l 290 168 q 293 182 290 178 l 293 187 l 293 193 l 293 198 q 293 209 291 205 l 290 214 l 290 220 l 290 233 q 288 244 285 237 q 285 255 282 248 q 285 263 279 259 l 285 269 l 285 263 l 285 269 q 285 285 280 279 l 285 293 l 282 293 l 285 293 l 282 293 l 279 298 l 279 296 l 279 298 q 274 309 277 302 q 269 315 269 311 l 266 315 l 269 315 l 266 317 l 266 315 l 263 317 l 266 317 l 263 320 l 263 317 l 263 320 q 252 339 252 323 l 247 339 l 252 339 l 247 339 l 247 342 l 247 339 l 247 342 q 239 358 237 347 l 225 358 l 222 358 l 225 358 l 222 361 l 222 358 l 222 361 q 217 366 217 363 q 212 372 212 368 l 206 374 q 198 382 201 378 l 193 385 q 182 393 184 386 l 176 393 l 182 393 l 174 396 l 168 396 l 174 396 l 168 396 l 157 396 m 163 382 q 160 377 191 378 l 163 382 m 174 358 q 182 353 182 360 q 174 358 175 353 m 209 345 l 214 342 l 212 342 l 217 342 l 214 342 l 220 339 q 225 334 226 337 l 228 334 l 225 334 l 228 334 q 217 326 235 317 l 214 334 q 203 347 205 336 l 206 347 l 203 347 l 209 345 m 187 342 q 182 342 186 332 l 187 342 m 144 339 q 144 336 148 338 l 144 339 l 144 336 l 144 339 m 144 336 l 141 336 l 144 336 q 141 336 142 332 l 144 336 m 119 312 l 119 304 l 117 304 l 119 304 l 117 304 q 106 298 111 280 l 109 301 q 119 312 111 309 m 155 298 l 160 298 l 171 298 l 171 296 l 171 298 l 171 296 q 179 285 180 292 q 184 277 186 283 q 187 271 189 275 q 195 260 196 268 l 198 260 l 195 260 l 198 258 l 198 260 l 201 258 l 198 258 l 201 258 l 203 250 q 212 233 213 244 q 214 222 217 230 l 217 220 l 217 182 l 214 176 l 214 179 l 214 176 q 212 163 216 170 l 214 160 l 212 163 l 214 160 l 212 155 l 212 146 l 209 146 l 212 146 l 209 146 l 209 141 l 209 146 l 209 141 l 206 141 l 209 141 l 206 141 l 206 130 l 203 130 l 206 130 l 203 130 l 201 125 l 201 127 l 201 125 l 201 127 q 195 133 195 130 l 195 127 l 195 133 l 195 127 l 193 127 l 195 127 l 193 127 l 193 122 l 193 127 l 193 111 l 190 111 l 193 111 l 190 109 l 190 111 l 190 109 l 184 109 q 174 106 180 105 q 160 109 167 104 l 155 106 l 152 109 l 146 111 q 136 119 138 112 q 127 130 127 123 q 122 138 121 132 q 117 146 115 140 l 114 146 l 117 146 l 114 146 l 114 152 q 111 160 109 155 l 109 160 l 111 160 l 109 160 l 109 165 l 109 176 q 109 184 103 178 l 109 195 l 106 195 l 109 195 l 106 198 l 106 195 l 106 201 l 106 198 l 106 203 l 106 201 l 106 206 l 106 203 l 106 209 l 106 206 l 106 209 q 111 228 104 219 l 111 239 l 117 239 l 117 241 l 117 239 l 117 241 q 117 258 113 250 l 122 258 l 125 263 q 133 274 124 273 q 141 282 135 281 q 146 288 142 285 l 144 288 l 146 290 l 146 288 l 149 290 l 146 290 l 149 293 l 149 290 l 149 293 q 155 298 154 296 m 241 290 q 236 290 241 276 l 241 290 m 54 274 q 54 269 59 271 l 54 274 m 54 269 l 52 269 l 54 269 l 54 258 l 52 258 l 54 258 l 52 255 l 52 258 q 49 244 51 252 l 49 250 l 49 239 q 46 228 48 236 l 46 233 l 43 214 l 46 212 l 43 214 l 46 212 l 43 209 l 43 203 l 43 209 l 43 179 q 46 168 47 175 l 46 152 q 41 157 41 154 l 41 171 l 38 174 l 38 179 l 38 193 q 41 206 37 199 l 41 209 l 41 206 l 41 212 l 41 209 l 41 212 q 43 225 39 218 l 43 231 l 43 225 l 43 233 l 43 231 l 43 233 l 43 241 l 43 239 l 43 244 l 43 241 l 43 244 q 46 252 49 248 l 49 258 q 52 269 48 265 l 54 269 m 288 252 l 288 258 l 290 250 q 288 258 300 256 l 288 252 m 114 244 l 111 244 l 114 244 q 111 244 113 240 l 114 244 m 269 236 q 271 225 274 233 l 274 225 l 271 225 l 274 225 l 274 212 q 271 201 274 204 l 269 206 l 271 209 l 271 214 l 271 209 l 271 217 l 271 214 l 271 217 l 269 225 l 269 236 m 247 198 l 244 198 l 247 198 q 241 184 254 179 l 241 187 l 241 184 l 241 190 l 241 187 l 241 190 q 244 198 247 193 l 247 198 m 62 182 l 60 182 l 62 182 q 60 182 61 168 l 62 182 m 274 174 q 269 174 273 163 l 274 174 m 65 160 l 62 160 l 65 160 q 62 160 64 146 l 65 160 m 250 152 q 252 144 255 149 q 250 152 247 146 m 65 146 q 65 133 75 139 l 65 146 m 269 138 q 269 133 273 136 l 269 138 m 269 133 l 266 133 l 269 133 q 266 133 267 119 l 269 133 m 266 125 l 263 125 l 266 125 q 263 125 264 115 l 266 125 m 122 117 q 127 111 122 111 q 117 117 121 100 l 122 117 m 133 103 l 133 106 l 133 103 q 133 95 149 96 l 133 100 l 127 98 q 133 106 127 104 l 133 103 m 155 95 l 152 95 l 155 92 l 155 95 l 155 92 l 165 92 q 146 95 155 79 l 155 95 m 106 68 q 111 62 112 66 q 114 54 120 59 l 114 57 l 114 54 l 111 57 l 114 57 l 111 57 q 106 62 109 62 l 106 68 m 163 68 q 163 65 172 66 l 163 68 l 163 65 l 163 68 m 233 65 q 231 57 240 60 l 233 65 m 222 54 q 228 49 229 54 q 222 54 199 26 m 138 46 l 144 43 l 152 41 l 157 41 l 152 41 l 157 41 l 165 41 l 163 41 l 165 41 q 174 38 169 35 q 157 35 168 28 q 146 38 150 35 q 130 49 134 38 l 138 46 z "},"1":{"ha":206,"x_min":31,"x_max":193,"o":"m 161 391 l 153 391 q 147 388 153 388 l 150 388 l 147 388 q 134 385 140 389 l 125 385 l 123 385 l 125 385 l 123 385 q 112 382 119 380 l 104 380 q 93 377 100 374 l 93 374 l 93 377 l 93 374 l 87 374 q 79 372 85 369 l 71 366 l 74 369 l 68 366 l 71 366 l 66 366 l 68 366 l 63 366 l 66 366 l 60 366 l 63 366 l 60 366 q 52 361 58 362 q 47 369 45 361 l 44 372 q 31 369 35 372 l 33 355 l 33 323 l 33 326 l 33 323 q 36 312 34 315 l 33 304 l 36 301 l 33 304 l 36 301 l 36 288 l 36 290 l 33 288 l 36 288 l 33 288 l 33 274 l 41 271 l 47 271 l 50 277 l 50 282 l 50 277 l 50 282 l 63 282 l 66 285 l 63 282 l 66 285 l 71 285 l 71 288 l 71 285 l 71 288 l 79 288 l 77 288 l 79 288 q 90 290 83 293 q 101 293 94 296 q 109 293 103 298 l 109 285 l 109 288 l 109 285 l 112 277 l 112 252 l 112 255 l 112 252 l 115 244 l 115 225 l 117 217 l 117 193 l 117 195 l 117 190 l 117 193 l 115 184 l 117 179 l 115 171 l 115 160 q 115 155 119 157 l 115 149 l 115 155 l 117 146 l 115 149 l 117 146 l 115 136 l 115 138 l 117 136 l 115 136 l 117 136 l 117 122 l 115 119 l 115 114 l 115 119 l 115 92 l 117 87 l 117 35 l 115 33 l 115 27 l 115 33 q 112 14 116 20 l 115 5 l 120 5 l 115 5 l 120 5 q 125 3 122 1 l 136 3 l 142 0 l 147 0 l 153 0 l 163 0 l 169 0 l 182 0 q 191 11 179 12 l 193 14 q 182 22 192 24 l 182 30 q 185 35 186 32 l 185 49 l 188 54 l 188 60 l 188 54 l 188 60 l 188 68 l 188 73 l 188 79 l 188 84 l 188 98 l 188 109 l 185 117 l 185 122 l 185 127 l 185 141 q 182 155 186 148 l 182 160 l 182 165 l 182 171 l 182 182 l 180 182 l 182 182 l 180 182 l 180 187 l 180 201 l 180 209 l 182 212 l 182 217 l 182 222 l 182 228 l 182 241 q 188 244 184 245 l 188 250 l 188 244 l 188 250 l 182 250 l 188 250 l 182 250 l 182 255 l 182 260 l 182 274 l 182 277 l 182 274 l 182 279 l 182 277 l 182 279 l 180 288 l 182 290 l 182 298 l 182 296 l 182 298 q 185 309 182 306 l 182 317 q 188 323 189 317 l 193 328 l 193 326 l 193 331 l 193 328 l 193 331 q 193 342 190 338 l 185 345 l 188 353 q 188 358 183 354 l 188 363 l 185 363 l 188 363 l 185 363 l 185 369 l 185 374 l 185 385 q 177 391 182 386 l 169 393 l 163 393 l 169 393 l 163 393 l 161 391 m 163 377 q 172 366 176 378 l 169 366 l 172 366 l 169 366 l 169 361 l 169 366 l 169 361 l 163 361 l 161 366 l 147 366 l 147 369 l 147 366 l 147 372 l 147 369 l 150 372 l 147 372 l 153 372 l 150 372 l 155 372 l 153 372 l 155 372 l 163 374 l 163 377 l 163 374 l 163 377 m 123 363 q 134 358 134 366 l 128 361 l 120 358 l 123 358 l 120 358 l 123 363 m 79 347 q 79 345 83 346 l 79 347 l 79 345 l 79 347 m 79 345 l 77 345 l 79 345 q 77 345 78 340 l 79 345 m 169 342 q 163 342 168 328 l 169 342 m 58 336 l 55 336 l 58 336 q 55 336 56 328 l 58 336 m 147 336 q 144 326 156 328 q 147 336 144 333 m 144 309 q 147 298 150 306 q 144 309 142 302 m 144 255 l 142 255 l 144 255 q 142 255 143 246 l 144 255 m 144 239 l 142 239 l 144 239 q 142 239 143 230 l 144 239 m 139 125 l 136 125 l 139 125 q 136 125 138 111 l 139 125 m 134 33 q 136 22 139 29 q 136 16 141 20 q 131 14 142 13 l 131 16 l 131 14 l 131 19 l 131 16 l 131 22 l 131 19 l 131 22 l 134 27 l 134 33 l 134 27 l 134 33 m 150 19 q 150 14 160 15 l 150 19 z "},"2":{"ha":315,"x_min":20,"x_max":281,"o":"m 151 410 q 146 407 149 405 l 143 404 l 132 404 l 132 401 l 132 404 l 132 401 l 127 401 q 116 399 123 398 q 111 396 114 394 q 105 393 109 391 q 100 391 103 389 q 92 385 98 384 q 86 382 90 380 l 81 380 q 75 377 79 375 l 75 372 l 75 377 l 75 372 l 70 372 q 59 363 66 363 q 51 353 56 355 l 48 347 q 40 336 47 338 l 40 331 l 40 336 l 40 328 l 40 331 l 37 328 l 40 328 l 37 328 l 37 317 l 35 317 l 37 317 l 35 315 l 35 317 l 32 315 l 35 315 l 32 312 l 32 315 l 32 312 q 29 304 26 309 q 21 293 20 302 l 24 290 q 35 282 33 292 q 43 274 43 281 l 48 274 l 43 274 l 48 274 l 54 274 l 64 274 l 64 271 l 64 274 l 67 269 l 73 269 l 67 269 l 73 269 l 73 266 l 73 269 l 73 266 l 78 266 l 73 266 l 81 263 l 86 263 l 86 260 l 86 263 l 86 260 l 92 260 l 86 260 l 92 260 l 102 260 l 105 258 q 111 260 107 262 q 116 271 111 269 l 116 274 l 116 271 l 116 277 l 116 274 l 116 279 l 116 277 l 116 282 l 116 279 l 116 282 l 116 288 l 119 288 l 116 288 l 119 288 l 121 293 l 121 298 l 121 293 l 121 298 l 124 298 l 121 298 l 124 298 l 127 304 q 138 317 127 317 l 138 326 l 140 326 l 138 326 l 143 326 l 140 326 l 143 326 q 159 328 149 335 l 165 328 l 159 328 l 168 326 l 170 320 l 173 312 l 170 315 l 173 312 l 173 304 l 173 307 l 173 304 q 176 293 178 300 l 178 290 l 176 293 l 178 290 l 178 263 l 176 260 q 173 250 176 253 l 173 244 l 165 236 q 159 231 163 230 q 154 222 159 224 l 154 217 l 154 222 l 154 217 l 151 217 l 154 217 l 151 214 l 151 217 l 151 214 q 149 206 146 211 l 146 206 l 149 206 l 146 206 l 143 198 q 135 190 141 191 l 132 187 q 124 176 132 178 q 116 165 123 168 l 116 163 l 116 165 l 116 163 q 108 152 113 155 l 111 152 l 108 152 q 102 146 106 146 l 102 141 l 102 146 l 102 141 q 100 136 100 140 l 100 138 l 97 136 l 100 136 l 97 136 q 92 122 94 130 l 92 127 l 92 122 q 86 117 87 119 q 81 111 84 111 l 78 103 l 73 100 q 64 90 69 92 l 67 90 l 64 90 q 56 79 64 81 l 54 76 q 45 65 51 66 q 40 57 45 58 l 37 49 q 35 43 35 47 l 35 46 l 32 43 l 35 43 l 32 43 l 29 38 q 21 27 28 29 l 21 16 l 29 14 l 35 11 l 40 11 l 35 11 l 40 11 l 40 8 l 40 11 l 40 8 l 51 8 l 56 5 l 62 5 l 67 5 l 73 3 l 70 3 l 73 3 q 86 0 79 4 q 94 0 90 3 l 100 0 l 105 0 l 111 0 l 124 0 l 138 0 q 146 0 142 3 l 149 3 l 146 0 l 149 3 l 154 3 l 168 3 q 173 5 170 7 l 181 5 l 189 5 l 197 8 l 211 8 q 222 11 218 8 l 227 11 l 233 11 l 238 11 l 243 11 l 249 11 l 262 11 l 265 11 l 262 11 l 265 11 q 276 14 273 12 l 276 16 l 276 14 l 276 19 l 276 16 l 276 19 l 279 24 l 279 30 l 279 24 l 276 33 l 279 30 l 276 33 l 276 41 q 276 52 269 47 l 276 62 q 281 68 281 65 l 273 71 l 273 76 l 273 81 l 273 92 l 265 92 l 260 92 l 254 90 l 249 87 l 243 87 l 235 87 l 238 87 l 235 87 q 227 81 233 83 l 222 81 l 216 81 l 211 81 l 197 81 l 192 81 l 186 81 l 181 81 l 168 81 l 170 90 l 178 95 l 176 95 l 178 95 l 181 103 l 184 103 l 181 103 l 184 103 q 189 111 184 110 q 197 122 192 121 q 208 136 199 133 q 214 141 210 141 q 219 149 214 148 q 224 155 221 155 l 227 163 l 227 160 l 227 163 q 233 171 229 169 l 235 176 q 243 190 235 186 l 243 193 l 243 190 l 243 195 l 243 193 l 243 195 q 246 203 249 199 l 249 206 l 252 214 q 254 225 251 222 l 254 233 l 257 233 l 254 233 l 257 233 l 260 239 l 260 244 l 260 239 l 260 244 l 262 252 l 262 258 l 262 252 l 262 260 l 262 258 l 262 260 l 262 266 q 265 279 261 273 l 265 290 l 265 296 q 271 309 262 309 q 271 320 270 316 l 271 317 l 271 323 l 271 320 l 271 323 q 273 331 276 326 q 265 336 271 336 l 268 339 l 268 345 l 268 339 l 268 347 l 268 345 l 268 347 q 265 358 262 351 q 257 363 258 358 l 254 363 l 257 363 l 254 363 l 252 358 l 252 363 q 246 369 249 364 l 246 366 l 246 369 l 243 377 q 238 382 238 379 l 235 388 q 230 393 229 388 q 222 399 223 393 q 214 404 216 400 l 205 407 l 197 407 l 192 407 l 186 407 l 181 407 l 170 407 l 168 407 l 170 407 l 165 407 l 168 407 l 165 407 q 157 410 161 412 l 151 410 m 138 377 q 138 374 142 376 l 138 377 l 138 374 l 138 377 m 130 374 q 127 369 147 372 l 130 374 m 127 369 q 121 369 118 357 l 127 369 m 200 363 q 208 355 209 363 q 200 363 201 357 m 211 355 q 208 355 210 352 l 211 355 l 208 355 l 211 355 m 75 353 q 75 347 80 350 l 75 353 m 75 347 l 73 347 l 75 347 q 73 347 74 343 l 75 347 m 243 345 l 241 345 l 243 345 q 241 345 242 336 l 243 345 m 271 334 l 268 334 l 271 334 q 268 334 269 330 l 271 334 m 233 209 q 233 206 237 208 l 233 209 l 233 206 l 233 209 m 233 206 l 230 206 l 233 206 q 230 206 231 202 l 233 206 m 222 190 q 222 187 226 189 l 222 190 l 222 187 l 222 190 m 222 187 l 219 187 l 222 187 q 219 187 220 183 l 222 187 m 216 182 q 216 174 222 178 q 216 182 211 177 m 211 171 q 211 168 215 170 l 211 171 l 211 168 l 211 171 m 208 168 q 211 160 214 165 q 208 168 197 149 m 140 152 q 140 149 144 151 l 140 152 l 140 149 l 140 152 m 200 152 l 197 152 l 200 152 q 197 152 199 148 l 200 152 m 140 149 l 138 149 l 140 149 q 130 130 140 135 l 127 125 q 119 114 126 116 q 124 122 119 117 l 124 127 l 124 122 l 124 127 q 127 131 126 129 q 132 136 127 133 l 130 136 l 132 136 q 138 144 132 142 l 138 149 l 138 144 l 138 149 l 140 149 m 119 114 l 116 114 l 119 114 q 116 114 117 110 l 119 114 m 260 79 l 257 73 q 249 79 237 67 l 260 79 m 165 65 l 170 65 l 176 65 l 186 65 l 186 62 l 186 65 l 184 62 l 186 62 l 181 62 l 184 62 l 181 62 q 170 62 174 59 l 170 60 l 170 62 l 168 60 l 170 60 l 165 60 l 168 60 l 165 60 q 151 62 158 58 l 159 65 l 165 65 m 260 33 l 257 33 l 260 33 q 257 33 258 18 l 260 33 m 51 30 q 48 22 63 22 l 51 30 z "},"3":{"ha":359,"x_min":34,"x_max":351,"o":"m 229 453 q 224 450 229 450 l 227 450 l 221 450 l 224 450 l 221 450 q 213 445 219 446 l 208 445 l 202 445 l 191 445 l 186 445 l 178 445 l 180 445 l 178 445 q 170 448 174 450 q 164 445 168 443 l 159 442 l 151 439 l 153 442 l 151 439 l 142 437 l 145 439 l 142 437 l 137 437 q 126 434 133 433 q 121 429 124 429 l 113 429 l 113 426 l 113 429 l 113 426 q 107 420 108 423 q 102 415 102 418 l 96 415 l 96 412 l 96 415 l 96 412 l 91 412 q 83 407 89 406 q 77 401 83 404 q 66 393 74 393 q 58 382 66 385 q 53 377 58 380 l 56 377 l 53 377 q 47 366 53 368 l 47 361 l 47 366 l 47 361 q 42 355 46 359 l 39 347 q 34 339 39 340 l 34 334 l 34 339 l 34 331 l 34 334 l 34 331 q 37 320 39 328 l 39 320 l 37 320 l 39 320 q 45 315 42 315 q 56 315 51 319 l 61 307 q 72 298 70 306 q 80 290 79 296 l 83 290 l 80 290 l 85 290 l 83 290 l 85 290 q 94 288 89 285 l 99 288 q 104 301 96 300 q 110 323 98 318 q 126 328 112 334 l 129 331 l 132 339 l 137 339 l 142 339 l 156 339 l 156 342 l 156 339 l 156 342 l 164 342 l 167 342 l 164 342 l 167 342 q 175 345 170 347 q 180 345 176 349 q 199 336 195 347 l 202 336 l 199 336 l 202 334 l 202 336 q 208 323 204 330 l 205 323 l 208 323 l 205 323 l 205 317 l 205 323 l 205 307 q 208 301 210 304 l 210 298 l 208 298 l 210 298 l 208 298 q 202 293 205 293 l 202 290 l 202 293 q 199 285 201 289 l 199 288 l 197 285 l 199 285 l 197 285 q 191 279 195 279 q 186 274 189 274 q 175 266 182 265 q 159 260 170 257 q 153 258 157 256 l 151 255 l 151 231 l 151 233 l 148 231 l 151 231 l 148 228 l 148 231 l 148 228 q 151 214 146 221 l 148 212 l 148 201 l 151 198 l 159 195 q 172 190 170 196 l 175 190 l 172 190 l 178 190 l 175 190 l 178 190 l 183 187 l 189 187 l 183 187 l 189 187 l 189 184 l 189 187 l 191 184 l 189 184 l 194 184 l 191 184 l 194 184 l 199 182 l 205 182 l 199 182 l 205 182 l 205 179 l 205 182 l 205 179 l 213 176 q 221 171 220 176 q 227 165 224 170 l 227 168 l 229 165 l 227 165 l 229 163 l 229 165 l 229 163 q 240 146 240 158 q 243 138 245 144 q 248 130 248 136 l 248 133 l 245 130 l 248 130 l 245 130 l 245 125 l 245 130 l 245 122 l 245 125 l 243 122 l 245 122 l 243 122 l 243 111 l 240 111 l 243 111 l 240 111 q 235 106 238 106 q 216 92 229 91 q 199 87 210 83 q 194 81 199 84 l 197 84 l 194 81 l 186 81 l 186 79 l 186 81 l 186 79 l 180 79 q 170 76 177 73 q 159 73 166 71 l 159 76 l 159 73 l 159 79 l 159 76 l 159 79 q 153 84 153 81 l 142 87 l 145 87 l 142 90 l 142 87 l 142 90 q 137 95 137 92 l 132 98 l 134 98 l 132 100 l 132 98 l 132 100 q 126 106 126 102 l 123 106 l 126 106 l 123 106 l 121 114 q 118 119 116 116 q 115 125 113 121 l 107 127 l 110 127 l 107 127 l 99 127 l 102 127 l 99 127 q 88 125 96 122 l 83 125 q 72 122 79 119 l 69 119 l 61 117 q 50 111 58 110 q 39 109 47 106 q 34 106 37 104 l 34 92 q 37 87 39 90 q 39 81 41 85 q 45 73 46 79 l 47 73 l 45 73 l 47 73 q 53 68 50 68 q 58 62 56 63 q 66 52 64 56 l 66 54 l 66 52 q 72 43 73 50 l 75 41 q 83 35 81 39 q 91 30 90 35 l 96 27 l 99 22 q 107 16 106 22 q 121 8 117 16 l 126 5 l 132 5 l 126 5 l 132 5 l 140 5 q 148 3 142 1 l 145 3 l 148 3 q 161 0 157 3 l 167 0 l 178 0 l 180 0 l 178 0 l 180 0 l 189 0 l 186 0 l 189 0 q 199 3 192 5 q 202 3 201 7 q 213 5 206 6 l 213 8 l 213 5 l 216 8 l 213 8 l 218 8 l 216 8 l 218 11 l 218 8 l 221 11 l 218 11 l 224 11 l 221 11 l 224 11 q 235 11 231 14 q 243 19 237 18 l 245 19 l 243 19 l 245 19 l 254 22 l 262 24 l 262 27 l 262 24 l 262 27 q 267 33 267 30 q 278 35 275 33 q 286 38 281 41 l 286 41 l 286 38 l 286 41 q 292 46 291 43 q 302 49 296 50 q 308 54 302 52 l 311 62 l 313 62 l 311 62 l 313 62 q 324 68 317 64 l 327 76 l 330 84 l 332 81 l 338 84 l 340 90 q 343 103 339 96 q 349 122 340 113 l 351 130 l 351 127 l 349 130 l 351 130 l 349 133 l 349 130 l 349 136 l 349 133 l 349 138 l 349 136 l 349 141 l 349 138 l 349 141 q 349 152 345 148 q 343 163 342 155 q 340 168 338 165 q 335 174 338 168 l 338 171 l 335 174 l 335 179 q 330 187 328 181 q 324 193 327 188 l 324 190 l 324 193 q 316 201 319 195 l 311 203 l 308 209 q 297 214 303 210 q 292 220 291 216 l 289 220 l 292 220 l 289 220 q 278 228 282 224 l 273 228 l 278 228 l 273 228 l 273 231 l 273 228 l 273 231 l 267 233 l 270 233 l 264 233 l 267 233 l 264 233 q 256 236 261 239 q 262 247 256 245 q 270 250 264 254 l 273 252 q 275 263 268 260 q 281 271 275 270 q 289 274 282 281 l 292 279 l 292 277 l 292 279 q 289 290 286 283 l 292 293 q 297 301 293 299 l 297 312 l 297 315 l 297 312 l 300 315 l 297 315 l 300 315 l 300 326 l 300 331 l 300 339 l 300 350 l 300 355 l 300 361 l 300 372 l 297 372 l 300 372 l 297 372 l 297 377 q 289 399 286 383 l 283 401 l 283 407 q 278 412 281 408 l 278 410 l 278 412 q 273 418 273 414 q 267 426 266 420 l 264 426 l 267 426 l 264 429 l 264 426 l 264 429 q 256 437 259 431 q 251 442 251 439 l 245 445 q 240 450 240 447 l 235 453 l 229 453 l 235 453 l 229 453 m 221 437 q 216 429 256 423 q 221 437 216 435 m 237 426 q 235 426 236 422 l 237 426 l 235 426 l 237 426 m 180 393 q 183 388 195 391 l 180 393 m 180 391 l 178 391 l 180 391 q 178 391 179 387 l 180 391 m 94 377 q 88 377 90 368 l 94 377 m 175 366 q 172 361 186 361 l 175 366 m 83 361 q 80 350 96 357 q 72 350 76 341 l 75 350 l 72 350 l 75 350 q 83 355 77 357 l 83 361 l 83 355 l 83 361 m 248 361 l 248 358 l 248 361 l 248 358 q 245 331 256 344 l 245 336 l 245 350 q 243 361 240 353 l 248 361 m 96 328 l 94 328 l 96 328 l 94 328 q 88 320 94 321 l 88 315 q 88 323 79 319 l 88 326 l 88 323 l 88 326 q 91 331 92 328 l 96 328 m 259 323 q 259 315 271 320 l 259 323 m 256 315 q 259 309 260 313 q 256 315 255 311 m 275 298 l 273 298 l 275 298 l 273 293 q 264 282 272 284 l 264 274 l 259 274 l 264 274 l 259 274 q 264 285 258 283 q 273 296 265 294 l 273 298 l 273 296 l 275 298 m 256 274 q 254 266 263 269 q 251 269 251 261 q 256 274 256 271 m 248 263 q 243 252 258 259 q 232 244 239 243 l 232 247 l 232 244 l 235 247 l 232 247 l 235 250 l 235 247 l 235 250 l 243 255 l 240 255 l 243 258 l 243 255 l 243 258 q 248 263 248 260 m 232 244 l 229 244 l 232 244 q 229 244 231 240 l 232 244 m 221 236 l 218 236 l 221 236 q 218 236 220 227 l 221 236 m 186 225 l 183 225 l 186 225 l 183 225 q 175 220 181 218 q 170 222 170 214 q 178 228 176 223 l 186 225 m 259 220 q 259 214 273 215 l 259 220 m 346 168 q 349 168 347 159 l 346 168 l 349 168 l 346 168 m 259 106 q 267 106 263 109 l 264 103 q 259 95 264 97 q 256 109 236 85 l 259 106 m 58 98 q 53 92 58 91 q 50 98 50 87 l 58 98 m 66 81 q 64 81 65 78 l 66 81 l 64 81 l 66 81 m 102 60 q 102 57 111 58 l 102 60 l 102 57 l 102 60 m 110 57 q 107 57 109 54 l 110 57 l 107 57 l 110 57 m 224 38 q 224 35 239 36 l 224 38 l 224 35 l 224 38 z "},"4":{"ha":342,"x_min":17,"x_max":337,"o":"m 220 388 q 215 385 218 383 q 210 377 215 378 q 201 363 210 367 l 201 358 l 201 363 l 201 358 l 188 358 l 188 355 l 188 358 l 185 355 l 188 355 l 185 355 q 180 350 183 350 q 174 345 178 345 l 174 342 l 174 345 l 172 342 l 174 342 l 172 339 l 172 342 l 172 339 q 166 334 167 336 q 158 323 164 325 q 153 315 158 316 q 147 307 153 308 q 142 298 147 300 q 136 290 142 292 l 136 288 l 136 290 l 134 282 q 128 277 132 276 l 125 271 l 123 266 l 123 269 l 123 266 q 117 260 121 260 q 109 250 117 252 q 104 241 109 243 l 101 233 l 98 233 l 101 233 l 98 233 l 96 228 q 90 220 94 222 q 85 214 90 217 l 87 214 l 85 212 l 85 214 l 85 209 l 85 212 l 85 209 q 82 201 79 205 l 77 195 l 77 198 l 77 193 l 77 195 q 74 187 75 191 l 74 190 q 71 182 73 186 l 71 184 l 68 182 l 71 182 l 68 182 q 63 176 66 176 q 58 171 61 171 q 52 165 56 165 l 50 160 q 47 155 45 158 q 44 149 43 153 q 36 141 40 145 q 31 136 34 135 l 28 130 l 25 125 q 20 117 24 119 l 20 109 q 17 98 28 102 l 17 92 l 17 98 l 17 92 q 22 84 24 90 q 25 73 28 81 l 31 73 l 25 73 l 31 73 l 41 73 l 50 73 l 58 76 q 68 79 65 76 l 77 79 l 85 81 l 90 81 l 96 81 l 106 81 l 112 81 l 112 84 l 112 81 l 112 84 l 117 84 l 123 84 l 136 84 l 144 84 l 150 84 l 155 84 l 161 84 q 169 87 163 90 l 174 87 q 188 84 184 87 q 199 87 191 90 l 204 87 l 204 30 l 201 27 l 201 19 l 201 22 l 201 16 l 201 19 l 201 16 q 199 8 196 13 l 201 8 l 199 8 l 204 5 q 212 0 212 5 l 215 0 l 212 0 l 215 0 l 220 0 l 220 3 l 220 0 l 220 3 l 226 3 q 234 5 229 8 l 237 8 l 234 5 l 237 8 l 250 8 l 253 8 l 250 8 l 253 8 q 264 11 260 9 q 269 14 267 7 l 275 14 l 286 14 l 288 19 l 288 24 l 288 19 l 288 24 l 288 38 l 291 43 q 288 54 291 51 l 291 57 l 291 65 l 288 68 l 291 65 l 288 68 l 288 73 l 288 87 l 296 87 l 296 90 l 296 87 l 296 90 l 310 90 q 321 87 317 90 l 321 90 l 321 87 l 323 90 l 321 90 l 326 90 l 323 90 l 326 90 q 337 92 334 90 l 337 100 l 334 106 q 329 111 332 111 l 329 119 q 326 125 324 121 q 323 136 321 128 q 321 146 318 139 q 318 157 315 150 q 313 165 311 159 l 307 165 l 313 165 l 307 165 l 302 165 q 294 163 299 160 q 283 160 290 159 l 283 165 l 283 179 l 283 184 l 283 195 l 283 198 l 283 195 l 283 198 q 280 209 277 201 l 283 212 l 283 217 l 283 212 l 283 217 l 283 228 l 280 233 l 283 241 l 283 239 l 283 241 q 286 255 282 251 q 288 266 279 254 l 291 271 q 291 277 289 274 q 283 285 290 285 l 283 296 l 283 301 l 283 307 l 283 317 q 286 323 287 319 l 286 328 l 286 339 l 291 342 l 294 347 q 296 361 292 354 l 296 366 l 296 361 l 296 366 q 294 377 293 370 l 288 377 l 294 377 l 288 377 q 283 374 288 370 q 277 377 281 378 q 272 380 275 381 l 264 382 l 250 382 l 250 385 l 250 382 l 250 385 l 245 388 l 239 388 l 245 388 l 239 388 l 226 388 l 220 388 m 248 358 q 248 345 255 353 l 245 345 l 248 345 l 245 347 l 245 345 l 245 350 l 245 347 l 245 350 q 248 358 250 353 m 264 342 l 261 342 l 264 342 q 261 342 262 333 l 264 342 m 204 269 q 207 260 210 266 l 207 212 l 207 214 l 210 209 l 207 212 l 210 209 l 210 193 l 210 195 l 210 190 l 210 193 l 210 187 l 210 190 l 210 187 q 212 174 208 180 l 212 165 l 212 168 l 210 165 l 212 165 l 210 165 l 210 155 l 204 155 l 199 155 l 185 155 l 182 152 l 185 155 l 182 152 l 177 152 l 169 152 l 172 152 l 169 152 q 163 146 167 146 l 158 146 l 147 146 l 147 144 l 147 146 l 147 144 l 134 144 l 128 146 l 123 146 l 128 146 l 123 146 l 123 152 l 125 152 l 123 152 q 131 157 126 155 l 128 157 l 131 160 l 131 157 l 134 160 l 131 160 l 134 160 l 134 165 l 134 160 l 134 165 l 136 165 l 134 165 l 136 165 l 139 171 l 139 176 l 139 171 l 139 176 l 142 176 l 139 176 l 142 176 q 150 187 143 182 q 155 195 150 194 q 161 201 155 202 q 166 209 161 208 l 166 212 l 166 209 l 169 212 l 166 212 l 169 212 l 172 220 q 174 225 176 222 l 177 225 l 174 225 l 177 225 l 180 231 l 182 236 l 185 241 l 188 247 q 191 252 192 249 l 193 252 l 191 252 l 193 252 l 196 258 l 201 260 l 199 260 l 201 260 l 204 269 m 223 233 l 220 233 l 223 233 q 220 233 222 214 l 223 233 m 304 152 q 296 152 300 138 l 304 152 m 96 136 l 93 136 l 96 136 q 93 136 94 127 l 96 136 m 199 133 q 193 125 221 126 l 193 127 l 193 125 l 193 127 q 199 133 199 127 m 310 133 q 304 133 308 117 l 310 133 m 313 114 q 313 125 305 120 l 313 114 m 315 111 l 315 114 l 315 111 l 318 103 q 313 109 306 102 l 315 114 l 315 111 m 177 106 q 177 103 186 104 l 177 106 l 177 103 l 177 106 m 275 81 l 275 65 l 275 68 l 275 62 l 275 65 l 277 62 l 275 62 l 277 62 l 277 41 l 275 41 l 277 41 l 275 41 l 275 30 l 272 27 l 272 35 l 272 41 l 272 46 l 272 54 l 272 52 l 272 57 l 272 54 l 272 57 q 269 71 273 64 l 269 73 l 269 71 l 269 76 l 269 73 l 269 76 q 272 84 275 79 l 275 81 m 253 35 q 258 24 260 33 q 250 22 256 18 l 250 24 l 250 22 l 250 24 l 253 30 l 253 35 l 253 30 l 253 35 m 218 24 q 220 19 222 23 q 218 24 216 21 z "},"5":{"ha":304,"x_min":17,"x_max":283,"o":"m 231 418 q 226 415 229 413 l 220 415 l 207 415 l 201 412 l 196 412 l 196 410 l 196 412 l 196 410 l 182 407 l 185 407 l 180 407 l 182 407 l 180 407 l 172 404 l 169 407 q 158 407 163 404 q 153 404 156 402 l 139 404 l 134 404 l 128 404 q 123 401 126 399 l 115 401 l 112 399 l 115 401 l 112 399 l 109 401 l 106 399 l 109 401 l 106 399 l 101 399 l 96 399 l 82 399 l 77 399 l 77 396 l 77 399 l 77 396 q 71 391 72 393 q 68 380 71 388 l 68 385 l 66 372 l 66 374 l 66 372 l 63 363 l 63 366 l 60 361 l 58 353 l 55 345 l 52 345 l 55 345 l 52 345 l 50 339 q 47 328 50 332 l 47 323 q 43 318 43 321 q 41 307 43 315 q 39 301 40 305 l 39 304 l 36 298 l 36 293 l 36 298 l 36 290 l 36 293 l 36 290 q 33 282 31 287 l 31 274 l 31 271 l 31 274 l 28 271 l 31 271 l 28 271 l 28 266 l 28 271 l 28 263 l 28 266 l 25 263 l 28 263 l 25 263 l 25 252 l 22 252 l 25 252 l 22 250 l 22 252 l 22 247 l 22 250 l 22 247 q 20 236 17 243 l 20 239 l 17 236 l 20 236 l 17 236 l 17 222 l 20 220 l 25 220 l 20 220 l 25 220 l 31 220 l 36 220 l 50 220 l 52 222 l 50 220 l 52 222 l 60 222 l 66 222 l 71 222 l 77 222 q 87 225 81 226 l 93 225 l 98 222 l 104 222 l 117 222 l 123 220 l 128 220 l 123 220 l 128 220 l 142 220 q 147 214 143 218 l 155 212 l 153 212 l 155 209 l 155 212 l 155 209 q 166 203 164 209 l 172 203 l 166 203 l 172 203 l 174 195 l 174 198 l 174 195 q 180 190 180 193 q 185 182 186 188 q 191 176 188 181 l 191 179 l 188 174 l 188 168 l 188 174 l 188 165 l 188 168 l 188 165 q 185 157 182 162 l 182 155 q 177 146 181 149 l 177 141 l 177 146 l 177 141 q 174 136 176 140 l 174 138 l 172 133 l 172 127 l 172 133 l 172 125 l 172 127 l 172 125 q 169 117 166 121 l 163 111 l 163 114 l 163 111 q 158 106 161 105 q 150 95 157 97 q 134 84 145 84 l 134 81 l 134 84 l 134 81 q 112 84 120 77 q 104 90 105 84 l 98 92 l 93 95 l 85 98 q 77 109 75 99 q 60 119 62 107 l 55 119 l 60 119 l 52 119 l 55 119 l 52 119 q 44 122 49 125 l 41 114 l 41 117 l 41 114 l 39 106 l 39 109 l 36 103 q 31 92 35 99 q 25 84 29 86 l 25 79 l 25 84 l 22 71 l 20 71 l 22 71 l 20 71 l 20 65 l 20 71 l 20 65 l 17 65 l 20 65 l 17 65 l 17 54 q 20 49 22 52 l 22 46 q 36 38 33 46 q 41 33 41 36 q 50 27 48 33 l 52 27 l 50 27 q 60 22 55 26 q 71 19 68 22 l 77 16 l 74 16 l 77 16 q 85 11 83 15 l 90 8 l 96 8 l 90 8 l 96 8 l 101 5 l 106 5 l 115 3 l 112 3 l 117 3 l 115 3 l 117 3 q 131 0 127 3 l 139 0 l 144 3 l 153 3 l 158 3 l 166 3 l 163 3 l 169 5 l 166 3 l 169 5 l 182 5 l 185 11 l 191 14 l 196 14 q 201 16 198 18 q 207 19 203 21 q 212 22 209 24 l 215 24 q 223 33 217 31 l 223 35 l 223 33 l 226 35 l 223 35 l 226 35 q 234 43 228 41 q 239 49 236 49 q 250 62 241 60 l 250 68 l 250 62 l 250 68 l 253 68 l 250 68 l 253 68 l 256 76 l 258 76 l 256 76 l 258 79 l 258 76 l 258 81 l 258 79 l 258 81 q 261 90 264 85 q 264 95 265 92 q 267 100 268 97 l 269 103 q 275 114 269 111 l 277 125 l 277 122 l 277 125 l 277 133 l 277 130 l 277 136 l 277 133 l 277 136 q 280 144 283 139 l 283 149 l 280 152 l 283 149 l 280 152 l 280 157 l 280 171 q 277 182 275 174 l 283 184 l 283 190 l 283 184 l 283 190 l 283 203 l 277 203 l 283 203 l 277 203 l 277 206 l 277 203 l 277 206 q 269 212 269 204 l 264 209 l 261 217 q 256 222 256 219 l 256 228 l 253 228 l 256 228 l 253 231 l 253 228 l 253 231 q 245 239 248 233 l 239 241 l 234 244 l 237 244 l 231 244 l 234 244 l 231 244 q 226 247 229 248 l 223 250 q 218 255 217 252 l 212 258 l 204 260 l 196 263 l 191 263 q 185 266 189 267 l 180 269 l 174 269 l 174 271 l 174 269 l 174 271 l 169 271 l 174 271 l 169 271 l 169 274 l 169 271 l 169 274 l 158 274 l 155 274 l 158 274 l 153 277 l 144 279 l 139 279 l 125 279 q 115 282 118 279 l 115 290 q 120 298 115 293 l 120 304 l 120 298 l 120 304 l 120 309 q 123 315 121 311 l 123 312 l 123 317 l 123 315 l 123 317 l 125 323 l 125 328 l 125 323 l 125 328 l 134 328 l 142 328 l 150 328 l 158 328 l 163 328 l 172 331 l 169 328 l 174 331 l 172 331 l 174 331 l 182 331 l 180 331 l 182 331 l 191 331 q 201 331 195 337 q 207 334 203 336 l 212 334 l 226 334 l 229 334 l 226 334 l 229 334 q 237 336 231 339 l 239 339 q 248 331 246 337 l 256 334 l 256 339 l 256 334 l 256 339 l 256 345 l 256 355 l 258 363 l 258 369 q 261 374 262 371 l 261 385 l 264 388 l 264 396 q 269 412 272 401 l 267 415 l 258 418 l 261 418 l 258 418 q 248 418 252 414 l 239 418 l 231 418 m 134 382 l 147 382 l 150 380 l 158 382 l 158 377 l 150 377 l 153 377 l 150 377 q 139 374 142 376 l 139 377 l 139 374 l 139 377 l 128 377 l 128 382 l 134 382 m 193 382 q 196 377 216 383 l 193 382 m 106 350 q 109 345 111 349 q 106 350 105 347 m 44 241 q 36 236 44 227 q 33 241 28 236 l 44 241 m 207 212 q 212 206 213 210 l 215 206 l 212 206 l 215 206 q 207 212 212 185 m 223 190 q 218 193 220 178 l 223 190 m 253 190 q 248 190 252 180 l 253 190 m 258 144 l 256 144 l 258 144 q 256 144 257 130 l 258 144 m 50 100 q 58 95 57 100 q 55 92 68 93 l 55 95 l 55 92 l 55 95 q 50 100 50 97 m 33 73 q 39 68 40 74 q 31 62 39 60 l 33 65 l 33 73 m 191 71 l 185 68 q 180 60 185 61 q 174 60 176 45 l 177 60 l 174 60 l 180 62 l 182 68 l 182 73 l 182 68 l 182 73 l 191 71 m 229 62 q 229 60 233 61 l 229 62 l 229 60 l 229 62 m 223 60 l 229 57 l 226 57 l 229 57 l 226 57 q 218 49 224 52 q 212 41 218 42 l 210 35 l 204 35 q 191 27 201 26 l 191 24 l 191 27 l 191 24 l 185 24 l 185 22 l 185 24 l 182 22 l 185 22 l 182 22 l 174 19 q 163 16 171 14 q 169 19 165 20 q 174 22 171 24 q 180 24 176 26 l 182 30 l 188 30 l 191 35 q 201 43 199 38 l 210 43 q 218 52 210 52 l 220 54 l 223 60 m 74 52 q 77 46 89 50 l 74 52 m 155 46 l 161 46 l 155 46 l 161 46 q 172 49 164 52 l 172 43 q 153 49 152 40 l 155 46 m 85 46 q 82 46 83 43 l 85 46 l 82 46 l 85 46 m 87 43 q 87 41 97 42 l 87 43 l 87 41 l 87 43 m 96 41 l 104 38 l 109 38 l 109 35 l 109 38 l 109 35 l 115 33 l 123 30 l 136 30 l 136 27 l 136 30 l 134 27 l 136 27 l 134 27 l 123 27 l 120 27 l 123 27 l 117 27 l 120 27 l 117 27 l 112 27 l 112 30 l 112 27 l 112 30 l 106 33 l 101 33 l 106 33 l 101 33 l 98 38 l 93 38 l 98 38 l 93 38 l 96 41 z "},"6":{"ha":308,"x_min":27,"x_max":290,"o":"m 144 393 l 146 385 l 152 382 l 146 382 l 133 382 l 125 380 l 122 374 q 119 366 117 371 l 114 363 l 114 358 l 114 363 l 111 355 q 106 350 109 349 l 106 347 l 106 350 q 100 339 105 345 l 98 334 l 98 336 q 95 323 97 331 l 95 328 q 90 317 93 317 l 90 315 l 90 317 l 90 315 q 84 301 87 307 l 84 304 l 84 301 q 79 293 79 299 l 79 290 l 79 293 l 76 288 l 73 282 l 73 285 q 71 271 73 279 l 71 277 l 71 271 l 68 271 l 71 271 l 68 271 l 65 266 q 60 252 62 260 l 60 258 l 60 252 l 57 252 l 60 252 q 54 241 56 250 l 54 247 l 54 241 l 52 241 l 54 241 l 52 241 q 46 225 48 233 l 46 231 l 46 225 q 43 217 42 223 l 43 220 l 41 214 l 38 206 l 35 198 l 35 184 q 33 179 34 183 l 33 182 l 33 176 l 33 179 l 33 174 l 33 176 q 30 163 32 171 l 30 168 l 30 149 l 27 146 l 27 141 l 27 146 l 27 130 q 30 125 32 128 l 33 117 l 35 111 l 38 103 l 35 106 l 38 100 l 38 103 l 38 98 l 38 100 l 38 98 q 43 84 39 90 l 41 87 q 49 79 45 83 q 54 71 50 73 l 54 65 l 57 65 l 54 65 l 57 65 l 60 57 q 62 52 64 55 q 65 46 67 50 q 71 38 72 44 l 76 38 l 71 38 l 76 38 q 81 33 79 33 q 87 30 83 28 l 95 22 q 100 19 97 18 l 100 14 q 109 8 107 14 q 117 3 115 8 l 122 3 l 117 3 l 122 3 l 130 0 l 136 0 l 141 0 l 152 0 l 155 0 l 152 0 l 155 0 q 165 3 159 2 l 163 3 l 165 3 q 171 8 168 8 l 176 8 q 187 11 180 14 l 190 16 l 195 16 q 203 19 197 21 l 201 19 l 203 19 q 209 22 205 24 q 214 24 211 26 q 225 30 218 26 q 233 33 228 35 q 239 35 233 35 l 236 35 l 239 35 q 250 43 242 44 l 250 46 l 250 43 l 252 46 l 250 46 l 252 49 l 252 46 l 252 49 q 258 54 257 52 q 263 60 260 60 q 271 71 264 68 q 279 84 275 79 l 279 90 l 279 84 l 279 92 l 279 90 l 279 92 q 282 100 285 96 l 285 106 l 285 114 l 288 117 l 288 122 l 288 117 l 288 122 l 288 136 l 290 138 l 290 144 l 290 138 l 290 144 l 290 155 l 288 155 l 290 155 l 288 155 q 285 165 288 162 l 285 176 q 279 182 282 176 l 282 179 l 279 182 l 277 190 l 279 187 l 277 193 l 277 190 l 277 195 l 277 193 l 277 198 l 277 195 l 277 198 l 274 206 l 271 206 l 274 206 l 271 206 q 266 212 269 211 l 263 217 l 258 220 l 255 225 q 241 233 245 225 q 231 239 233 233 l 220 239 l 214 241 l 203 241 l 201 241 l 203 241 l 198 241 l 201 241 l 195 241 l 198 241 l 195 241 l 190 244 l 184 244 l 190 244 l 184 244 l 179 244 l 171 244 l 174 244 l 171 241 l 171 244 l 171 241 l 165 241 l 155 241 l 152 250 q 157 255 153 262 q 163 266 165 256 l 160 266 l 163 266 l 160 266 l 163 269 q 168 279 162 277 q 179 293 171 291 l 182 293 l 179 293 l 182 293 q 182 301 178 297 l 187 304 q 201 323 186 320 q 206 336 197 332 q 212 342 208 342 q 231 363 215 359 l 231 374 l 225 377 l 217 377 l 212 377 l 212 380 l 212 377 l 212 380 l 206 380 l 212 380 l 206 380 l 195 380 l 195 382 l 195 380 l 195 382 q 187 391 184 381 l 184 393 l 179 393 l 184 393 l 179 393 l 168 393 l 168 396 l 168 393 l 168 396 l 163 396 l 168 396 l 163 396 l 157 396 l 146 396 l 144 393 m 152 250 l 149 250 l 152 250 q 149 250 151 245 l 152 250 m 171 228 l 176 228 l 190 228 l 190 225 l 190 228 l 190 225 l 176 225 q 165 228 169 225 l 171 228 m 84 225 q 84 222 88 224 l 84 225 l 84 222 l 84 225 m 84 220 l 84 206 l 84 209 l 81 206 l 84 206 l 81 206 l 81 193 l 79 193 l 81 193 l 79 193 l 79 198 l 79 203 l 79 214 l 81 214 l 79 214 l 81 214 l 81 222 l 84 220 m 222 222 q 214 220 228 214 l 222 222 m 228 217 q 225 217 227 214 l 228 217 l 225 217 l 228 217 m 138 179 l 144 176 l 146 179 l 144 176 l 146 179 l 152 179 l 157 176 l 155 176 l 157 176 q 171 174 167 177 l 179 171 l 187 168 l 187 165 l 187 168 l 187 165 l 190 157 l 193 157 l 190 157 l 193 157 l 193 152 q 195 144 198 149 l 198 144 l 195 144 l 198 144 l 198 136 l 201 136 l 198 136 l 201 136 l 201 122 q 198 111 201 115 l 198 103 l 195 103 l 198 103 l 195 103 q 190 98 193 98 q 182 90 188 91 l 179 84 l 174 84 l 174 81 l 174 84 l 171 81 l 174 81 l 168 81 l 171 81 l 165 81 l 168 81 l 165 79 l 165 81 l 163 79 l 165 79 l 163 79 l 149 79 q 138 81 142 79 q 130 87 130 79 q 117 95 120 87 q 109 106 108 98 q 103 114 103 108 l 103 111 l 103 117 l 103 114 l 103 119 l 103 117 l 103 119 q 109 138 100 130 l 114 136 l 117 141 q 136 174 112 172 l 138 179 m 269 168 q 274 160 276 169 q 269 157 279 157 l 269 168 m 62 160 l 62 133 l 60 136 l 60 141 l 60 146 l 60 152 l 60 163 l 62 160 m 231 155 q 236 149 236 153 l 236 130 q 233 144 227 136 q 231 155 230 148 m 87 114 l 84 114 l 87 114 q 84 114 85 105 l 87 114 m 241 100 q 241 95 246 98 l 239 90 q 236 92 236 84 l 239 92 l 236 92 l 239 92 l 241 100 m 209 95 q 203 84 224 91 q 209 95 206 92 m 201 81 l 198 81 l 201 81 q 198 81 199 77 l 201 81 m 247 65 q 241 60 245 60 l 244 68 l 247 65 m 241 60 l 239 60 l 241 60 q 239 60 240 56 l 241 60 m 122 19 q 136 16 129 20 q 146 16 142 20 l 146 14 l 146 16 l 144 14 l 146 14 l 141 14 l 144 14 l 141 14 q 122 19 131 12 z "},"7":{"ha":342,"x_min":17,"x_max":321,"o":"m 47 391 q 36 385 44 384 q 28 380 34 378 l 28 374 l 28 380 l 28 345 l 28 347 l 25 345 l 28 345 l 25 345 l 25 334 l 17 331 l 17 326 l 17 331 l 17 326 q 28 312 27 323 q 25 304 33 307 l 25 298 l 25 304 l 25 298 q 28 293 30 296 l 31 290 l 39 293 l 47 290 l 52 290 l 60 290 l 60 288 l 60 290 l 60 288 l 66 288 l 60 288 l 66 288 l 71 288 l 82 288 q 87 290 84 292 l 93 290 l 101 290 l 104 293 l 101 290 l 104 293 l 109 293 l 117 296 l 123 296 l 128 296 l 134 296 l 147 296 q 158 298 151 301 q 169 301 161 304 l 169 304 l 169 301 l 169 304 l 177 304 l 174 304 l 177 304 q 188 307 180 309 l 185 301 l 182 296 l 180 290 q 177 285 176 288 l 174 285 l 177 285 l 174 285 q 169 277 174 278 l 169 271 l 169 277 l 166 269 q 161 263 164 262 l 161 260 l 161 263 l 158 258 l 155 250 l 153 241 l 150 233 q 147 228 146 231 q 144 220 143 226 l 144 222 l 142 220 l 144 220 l 142 220 l 142 214 l 142 220 l 142 214 l 139 214 l 142 214 q 136 203 138 212 l 136 209 l 134 195 l 131 195 l 134 195 l 131 195 l 128 190 l 128 182 q 123 174 123 180 q 117 168 121 168 l 117 163 l 117 168 l 117 163 q 115 157 113 161 l 112 155 q 104 144 109 147 l 101 136 l 98 130 l 96 125 l 96 127 l 93 119 l 93 122 l 93 119 q 87 111 92 113 l 85 106 q 79 98 83 100 l 79 92 l 79 98 l 79 92 q 77 87 78 91 l 77 90 l 74 87 l 77 87 l 74 87 q 68 76 74 78 l 68 71 l 68 76 l 68 71 l 66 71 l 68 71 q 63 60 65 68 l 63 65 l 63 57 l 63 60 l 60 54 l 58 49 l 58 52 q 55 38 57 46 l 55 43 l 52 30 l 50 30 l 52 30 l 50 30 l 50 24 l 50 30 l 50 24 l 47 24 l 50 24 l 47 24 l 47 14 l 52 14 l 47 14 l 52 14 l 60 11 l 66 11 l 60 11 l 66 11 l 74 11 l 71 11 l 77 14 l 74 11 l 77 14 l 90 14 l 90 11 l 90 14 l 90 11 q 96 3 97 9 l 98 0 l 106 0 l 106 3 l 106 0 l 106 3 l 112 8 l 112 5 l 115 8 l 112 8 l 115 8 q 120 14 117 14 q 125 16 122 18 l 128 19 l 128 27 q 134 35 130 33 l 136 43 l 139 43 l 136 43 l 139 43 l 142 52 l 144 57 l 147 62 l 150 71 q 155 84 149 81 l 158 92 q 163 103 158 101 l 163 109 l 163 103 l 163 109 q 169 114 165 115 q 174 125 169 123 q 182 138 174 135 q 188 149 182 147 l 188 152 l 188 149 l 188 152 q 193 160 189 158 l 196 165 q 201 176 196 174 l 204 182 l 204 179 l 204 182 q 212 193 206 191 q 218 201 212 199 l 218 203 l 218 201 l 218 203 q 223 212 219 210 l 226 217 q 234 231 226 227 l 234 239 q 239 247 239 241 q 242 252 243 249 l 245 258 q 248 266 250 261 q 252 270 252 268 q 256 277 252 273 l 258 282 l 258 279 l 258 285 l 258 282 l 261 288 q 267 293 263 294 l 267 296 l 267 293 l 267 296 l 267 301 l 269 301 l 267 301 l 269 301 q 275 307 271 307 q 280 317 275 315 l 280 326 l 286 328 l 288 334 l 291 339 l 296 342 l 299 347 q 307 355 301 354 l 307 358 l 307 355 q 313 363 308 360 l 315 372 l 321 372 l 321 385 l 318 388 l 310 385 l 304 385 l 299 385 l 286 385 q 275 382 278 385 l 264 382 l 258 382 l 253 382 l 248 382 q 237 385 240 382 l 229 382 l 220 385 q 215 382 218 380 l 210 382 l 196 382 l 191 382 l 182 382 l 185 382 l 180 382 l 182 382 l 180 382 q 172 385 176 388 l 166 385 l 155 385 l 153 385 l 155 385 l 153 382 l 153 385 l 150 382 l 153 382 l 150 382 l 136 382 q 125 385 129 382 l 125 382 l 125 385 l 125 382 l 120 382 l 109 382 l 104 382 l 98 385 q 87 382 91 385 l 85 385 l 79 385 l 85 385 l 79 385 l 66 385 l 63 388 l 55 388 l 58 388 l 55 388 q 47 391 52 393 m 275 369 q 286 361 296 370 q 280 347 286 350 q 272 336 279 338 l 272 334 l 272 336 l 269 328 l 269 331 l 269 328 q 264 317 267 320 q 264 328 258 311 l 267 328 l 264 328 l 267 328 l 267 334 l 267 328 l 269 336 l 269 342 l 269 336 l 269 342 l 272 342 l 269 342 l 272 342 l 272 347 l 272 342 l 272 347 l 275 347 l 272 347 l 275 350 l 275 347 l 275 353 l 275 350 l 275 353 q 277 361 280 356 l 269 363 q 275 369 271 369 m 242 320 q 242 315 247 317 l 242 320 m 237 312 q 237 304 243 308 l 234 298 q 223 290 233 288 l 226 293 q 234 304 229 300 l 237 312 m 136 81 q 136 79 140 80 l 136 81 l 136 79 l 136 81 m 134 79 q 136 73 138 77 q 134 79 132 75 m 134 73 l 131 73 l 134 71 l 134 73 l 134 68 l 134 71 q 131 57 133 65 l 131 62 l 131 57 l 128 57 l 131 57 l 128 57 l 125 49 q 120 41 125 42 q 112 33 118 34 l 112 38 l 117 43 l 117 41 l 117 43 q 120 54 117 51 l 123 60 l 123 57 l 123 62 l 123 60 l 125 65 q 131 71 127 71 l 131 73 l 131 71 l 134 73 m 77 43 q 82 35 87 43 q 71 27 83 24 l 74 35 l 77 43 z "},"8":{"ha":291,"x_min":24,"x_max":279,"o":"m 135 407 q 127 401 133 403 l 113 401 q 108 399 111 397 l 105 396 l 108 399 l 105 396 l 100 396 l 100 393 l 100 396 l 100 393 l 92 391 q 86 388 90 386 q 81 385 84 383 l 78 380 q 67 369 71 373 l 59 363 q 54 358 57 358 q 48 350 54 351 l 48 345 l 48 350 l 48 345 q 45 339 47 343 l 45 342 q 43 328 45 336 l 43 334 l 43 326 l 43 328 l 43 320 q 40 315 41 319 l 40 317 l 40 307 l 40 309 l 37 307 l 40 307 l 37 307 l 37 296 q 40 285 43 292 q 43 274 45 281 l 45 274 l 43 274 l 45 274 l 45 269 q 48 258 49 264 q 54 250 55 256 q 59 244 59 248 l 62 244 l 59 244 l 62 241 l 62 244 l 62 241 q 73 225 73 237 l 64 222 q 59 217 64 220 l 62 217 l 59 217 q 54 212 57 212 q 48 206 54 209 q 43 201 46 201 l 43 195 l 43 201 l 43 195 q 40 190 39 193 l 37 187 q 32 176 35 179 l 35 176 l 32 176 l 35 176 l 35 168 l 35 171 l 32 168 l 35 168 l 32 168 l 32 157 q 30 154 31 156 q 26 144 28 152 l 26 149 l 24 138 l 24 95 l 26 92 l 26 87 q 29 81 29 87 l 29 84 l 29 73 l 29 76 l 29 73 q 32 62 35 70 l 35 62 l 32 62 l 35 62 l 35 57 q 40 49 41 55 q 43 43 45 47 l 45 43 l 43 43 l 45 41 l 45 43 l 45 41 q 51 35 51 39 q 56 30 54 35 q 62 24 62 28 q 75 14 73 22 l 78 14 l 75 14 l 78 14 l 83 11 l 89 11 l 83 11 l 89 11 l 89 8 l 89 11 l 89 8 l 94 8 l 89 8 l 97 5 l 105 3 l 111 3 l 116 0 l 121 0 l 116 0 l 124 0 l 121 0 l 124 0 l 135 0 l 143 3 l 151 3 l 159 3 q 170 5 163 6 q 178 8 173 11 q 184 14 180 14 l 189 14 l 195 16 l 200 16 l 208 19 l 205 16 l 208 19 l 216 22 l 214 19 l 216 22 l 224 24 l 222 22 l 224 24 l 230 24 q 238 30 232 31 l 238 35 l 238 30 l 238 35 l 241 35 l 238 35 l 241 35 q 246 41 243 41 q 252 46 248 46 l 252 52 l 252 46 l 252 52 l 254 52 l 252 52 l 254 52 q 260 60 254 58 l 260 65 l 260 60 l 260 65 l 262 71 l 262 68 l 262 73 l 262 71 l 262 73 l 265 79 l 265 84 l 265 79 l 265 87 l 265 84 l 265 87 q 268 95 271 90 l 271 98 l 273 106 l 273 111 l 273 106 l 273 111 l 273 117 l 273 125 l 276 125 l 273 125 l 276 127 l 276 125 l 276 127 l 276 141 q 273 152 275 149 l 273 160 l 273 157 l 273 160 l 273 168 l 273 165 l 276 168 l 273 168 l 276 168 l 276 179 l 273 182 l 276 179 l 273 182 l 271 190 l 273 187 l 271 193 l 271 190 l 271 195 l 271 193 l 271 195 l 268 203 q 254 212 258 203 l 249 212 l 254 212 l 249 212 l 241 214 l 233 217 l 235 217 l 233 220 l 233 217 l 233 220 l 227 222 l 222 222 l 227 222 l 219 222 l 222 222 l 219 225 l 219 222 l 219 225 l 208 225 l 211 231 l 214 236 l 219 239 q 222 244 223 241 l 227 247 l 230 252 l 233 258 l 238 260 q 243 269 238 267 q 249 277 243 275 l 252 282 l 252 290 l 254 293 l 254 298 l 254 293 l 254 298 l 257 307 l 254 315 l 254 312 l 254 315 q 257 323 260 318 l 257 331 q 254 339 252 334 q 252 347 249 342 l 249 347 l 252 347 l 249 347 l 249 353 q 246 361 243 355 q 243 366 241 363 q 241 372 239 368 l 235 372 l 241 372 l 235 372 q 227 380 231 376 q 222 385 222 382 l 216 385 l 222 385 l 216 385 l 214 391 q 203 396 205 391 l 197 396 l 203 396 l 195 399 l 189 401 l 181 404 l 173 404 l 176 404 l 173 404 q 165 407 170 410 l 151 407 l 149 404 l 151 407 l 149 404 l 146 407 l 135 407 m 165 382 l 168 377 l 168 380 l 168 377 l 176 374 q 170 372 175 366 q 162 377 163 372 q 151 382 153 377 l 165 382 m 211 347 l 211 342 q 219 334 217 340 q 214 334 216 322 q 208 342 207 336 q 205 347 203 344 l 211 347 m 143 328 l 151 328 l 154 328 l 151 328 q 159 326 155 327 l 157 326 l 159 323 l 159 326 l 162 323 l 159 323 l 162 323 q 168 317 165 318 q 178 317 174 321 l 176 315 q 170 304 176 306 q 162 293 166 297 l 157 290 l 159 290 l 157 290 q 149 279 154 281 l 146 274 l 146 277 l 146 271 l 146 274 l 146 271 q 143 263 140 268 q 132 269 134 262 q 132 277 123 273 l 135 285 l 135 282 l 135 288 l 135 285 l 135 288 l 138 293 l 138 298 l 138 293 l 138 298 l 132 298 l 138 298 l 132 298 q 121 293 130 288 q 127 296 123 297 l 130 298 l 132 307 q 135 317 123 316 q 140 323 134 328 l 143 328 m 105 326 q 105 315 111 321 l 105 298 l 102 298 l 105 298 l 102 298 q 102 309 100 303 l 102 307 l 102 309 q 105 323 102 319 l 105 326 l 105 323 l 105 326 m 214 293 q 214 290 223 292 l 214 293 l 214 290 l 214 293 m 170 288 q 170 282 175 285 l 168 277 q 162 269 168 270 q 157 274 156 261 l 162 279 l 162 277 l 165 279 l 162 279 l 165 282 l 165 279 l 165 282 q 170 288 170 285 m 184 247 q 184 244 188 245 l 184 247 l 184 244 l 184 247 m 184 244 q 178 244 175 233 l 184 244 m 81 217 q 81 214 85 216 l 81 217 l 81 214 l 81 217 m 81 214 l 78 214 l 81 214 q 78 214 79 210 l 81 214 m 73 203 q 67 206 67 198 l 73 203 m 64 198 q 62 201 62 193 l 64 198 m 159 201 l 162 198 q 173 195 170 198 l 173 193 l 173 195 l 173 193 l 170 195 l 157 195 l 159 201 m 127 195 q 127 193 136 194 l 127 195 l 127 193 l 127 195 m 243 190 l 243 184 q 246 174 249 181 q 238 184 238 176 l 235 184 l 238 184 l 235 184 l 235 193 l 243 190 m 97 182 q 97 176 106 180 l 97 182 m 173 182 q 173 179 182 180 l 173 182 l 173 179 l 173 182 m 181 179 q 184 171 191 176 q 178 176 181 176 l 181 179 m 94 174 l 92 174 l 94 174 q 92 174 93 170 l 94 174 m 189 171 q 186 171 188 168 l 189 171 l 186 171 l 189 171 m 159 168 l 159 163 l 162 163 l 159 163 l 162 163 l 165 155 l 168 146 l 165 149 l 168 146 l 168 127 l 165 125 l 168 122 l 165 125 l 168 122 l 168 117 l 165 117 l 168 117 l 165 117 l 165 111 l 165 117 l 165 100 l 159 98 q 149 84 161 83 q 151 95 149 92 q 149 106 146 98 l 149 114 l 146 114 l 149 114 l 146 114 l 143 106 q 140 95 143 98 q 127 87 139 81 l 127 90 l 127 87 l 124 90 l 127 90 l 124 90 l 124 103 l 121 103 l 124 103 l 121 106 l 121 103 l 121 106 q 119 119 123 113 l 121 122 l 124 130 q 130 141 123 139 q 132 152 129 149 l 138 149 q 149 168 137 163 l 159 168 m 70 165 q 67 155 79 157 l 70 160 l 70 165 l 70 160 l 70 165 m 173 160 q 181 152 180 158 q 186 144 188 150 l 189 144 l 186 144 l 189 144 l 189 136 q 189 125 197 130 q 186 114 189 117 l 186 106 q 178 92 180 100 l 178 98 l 178 92 l 173 90 l 173 95 l 173 100 l 173 109 l 173 106 l 173 111 l 173 109 l 173 111 q 176 119 178 115 l 176 125 l 176 130 l 176 136 l 176 149 l 176 152 l 176 149 l 176 152 l 173 160 m 208 155 l 205 155 l 208 152 l 208 155 l 208 152 q 211 141 209 144 q 205 138 210 140 l 208 138 l 205 138 l 205 144 l 205 155 l 208 155 m 67 152 q 67 144 73 148 q 64 133 67 136 l 64 136 l 64 133 l 64 138 l 64 136 l 64 138 q 67 152 64 148 m 45 141 q 48 136 50 140 l 48 111 q 51 100 54 108 q 54 95 56 98 q 56 90 58 93 l 59 84 q 64 76 64 82 l 64 79 l 64 76 q 67 71 69 74 q 70 65 72 68 l 75 62 l 78 57 l 78 60 l 78 57 q 83 52 83 55 q 89 43 90 50 l 92 41 l 100 38 l 102 33 q 97 27 119 28 l 94 27 l 97 27 l 94 27 q 86 30 91 33 l 86 33 l 86 30 l 86 33 q 78 46 77 36 l 75 49 q 64 46 71 45 l 64 52 l 59 52 l 64 52 l 59 52 l 59 57 q 48 79 48 62 q 45 87 41 81 q 43 98 40 90 l 40 98 l 43 98 l 40 100 l 40 98 l 40 103 l 40 100 l 40 106 l 40 103 l 40 106 q 43 119 39 115 q 40 130 37 123 l 45 133 l 45 141 m 62 130 q 67 125 68 128 l 70 125 l 67 125 l 70 125 l 73 111 q 75 95 73 103 q 78 84 79 91 q 75 90 74 85 q 73 95 71 92 q 70 106 65 98 l 64 106 l 70 106 l 64 106 l 64 109 l 64 106 l 64 109 q 64 125 60 120 q 62 130 60 127 m 94 130 l 92 130 l 94 130 q 92 130 93 111 l 94 130 m 211 130 l 208 130 l 211 130 q 208 130 210 121 l 211 130 m 271 90 l 271 92 l 271 90 q 271 92 279 91 l 271 90 m 81 84 q 78 84 79 75 l 81 84 l 78 84 l 81 84 m 113 76 q 108 79 109 70 l 111 79 l 108 79 l 113 76 m 195 62 q 195 54 207 60 q 181 43 192 45 q 176 41 179 39 l 176 43 l 176 41 l 178 43 l 176 43 l 178 43 q 186 52 180 49 q 195 57 189 58 l 195 62 l 195 57 l 195 62 m 111 27 q 111 24 118 24 l 111 27 l 111 24 l 113 27 l 111 27 z "},"9":{"ha":311,"x_min":24,"x_max":290,"o":"m 157 418 l 157 420 l 154 418 l 157 418 l 151 418 l 154 418 l 151 418 q 143 412 149 414 l 138 412 l 130 412 l 132 412 l 130 412 q 119 410 126 407 q 111 407 116 404 q 105 404 109 402 q 100 399 103 399 q 89 393 96 397 q 81 388 87 387 q 75 385 79 383 q 67 380 73 378 l 64 374 l 64 377 l 62 374 l 64 374 l 62 374 q 54 366 60 369 q 45 358 52 359 l 45 353 l 45 358 l 45 353 q 43 347 41 351 q 40 342 39 345 l 35 339 q 29 326 35 328 l 26 315 l 26 317 l 26 312 l 26 315 l 26 312 q 24 298 27 302 l 24 260 l 24 263 l 24 255 q 24 247 29 253 l 26 247 l 24 247 l 26 247 l 26 239 l 26 241 l 26 239 q 29 228 32 235 q 35 222 32 227 l 35 225 l 35 222 l 37 214 q 45 206 43 212 l 45 203 l 45 206 l 45 203 q 51 198 51 201 q 54 193 56 196 l 56 190 q 67 182 64 186 l 67 184 l 67 182 l 73 179 l 78 176 q 86 171 84 175 l 94 168 l 92 168 l 97 165 l 102 163 l 111 160 l 116 160 l 111 160 l 116 160 l 130 160 l 138 157 l 138 160 l 138 157 l 138 160 l 143 160 l 149 160 l 159 160 q 157 149 158 157 l 157 155 l 157 149 l 151 144 l 151 146 l 149 138 l 149 141 l 149 138 q 143 127 146 130 q 140 122 139 125 l 135 119 q 130 109 135 111 q 121 98 129 100 q 116 90 121 91 q 113 79 115 87 l 113 84 l 113 79 q 108 73 109 76 l 105 68 l 105 71 l 105 68 q 100 60 104 62 l 97 54 l 94 46 l 92 46 l 94 46 q 89 35 91 43 l 89 41 l 86 33 l 83 24 q 81 11 85 15 l 75 11 l 75 0 l 81 0 l 75 0 l 81 0 l 86 0 l 97 0 l 97 3 l 97 0 l 97 3 l 105 3 q 116 0 112 11 l 119 0 l 116 0 l 121 0 l 119 0 l 124 0 l 121 0 l 127 0 l 124 0 l 127 0 q 135 5 129 5 l 132 5 l 138 5 l 135 5 l 138 3 l 138 5 l 140 3 l 138 3 l 140 3 l 146 0 l 154 3 l 151 3 l 154 3 q 162 11 156 9 l 165 19 l 168 19 l 165 19 l 168 19 l 170 27 l 173 33 l 176 38 q 178 43 180 40 q 181 49 182 45 l 184 49 l 181 49 q 189 57 184 52 q 195 65 189 64 l 197 71 l 200 76 l 200 81 l 200 76 l 200 81 l 205 84 l 205 90 l 205 84 l 208 92 q 214 100 210 98 l 214 106 l 214 100 l 214 106 l 216 106 l 214 106 l 216 106 l 216 111 l 216 106 l 216 111 l 219 111 l 216 111 l 219 114 l 219 111 l 219 117 l 219 114 l 219 117 q 222 125 224 120 l 224 125 l 222 125 l 224 125 q 233 130 227 132 l 235 136 l 235 133 l 235 136 q 230 144 229 136 l 230 141 l 233 144 l 230 144 l 233 146 l 233 144 l 233 146 q 235 155 238 150 q 238 160 237 156 l 238 157 l 241 163 l 243 171 l 246 171 l 243 171 l 246 174 l 246 171 l 246 174 l 260 174 q 265 182 260 180 q 260 198 267 193 q 265 206 260 205 q 271 217 265 215 l 271 220 l 271 217 l 273 222 l 273 228 l 273 222 l 273 231 l 273 228 l 273 231 q 276 239 279 234 q 279 247 281 242 l 281 250 q 284 260 281 257 l 284 269 l 284 266 l 287 269 l 284 269 l 287 269 l 287 279 l 290 279 l 287 279 l 290 279 l 290 288 l 290 293 q 284 296 288 297 l 284 301 l 284 307 q 281 317 281 311 l 279 323 l 276 328 l 273 336 l 276 334 l 273 336 l 273 345 q 271 350 269 347 q 268 355 266 352 q 265 361 263 357 l 262 361 l 265 361 l 262 363 l 262 361 l 260 363 l 262 363 l 260 363 l 252 372 q 243 380 248 376 l 241 385 l 235 388 l 230 388 l 235 388 l 230 388 l 227 393 l 219 396 l 214 401 l 216 401 l 214 401 l 208 401 l 208 404 l 208 401 l 208 404 l 203 407 l 197 407 l 203 407 l 197 407 l 197 410 l 197 407 l 197 410 q 186 412 190 410 l 176 412 l 176 418 l 168 420 l 157 420 l 157 418 m 124 388 q 124 385 134 387 l 124 388 l 124 385 l 124 388 m 219 380 q 230 372 228 379 q 241 363 239 371 q 249 355 250 363 q 254 345 256 353 l 246 347 l 246 353 l 241 355 l 235 363 l 238 361 l 235 363 l 227 372 q 222 377 222 374 q 214 382 215 377 l 219 380 m 89 369 q 89 366 93 368 l 89 369 l 89 366 l 89 369 m 86 366 q 83 358 93 361 l 86 366 m 181 361 q 189 355 188 361 l 195 353 q 205 345 204 354 l 203 345 l 205 345 l 200 347 q 181 355 186 346 q 176 363 174 355 l 181 361 m 78 353 q 73 353 75 341 l 78 353 m 159 353 q 159 350 169 351 l 159 353 l 159 350 l 159 353 m 154 336 l 157 339 l 154 336 l 157 339 l 159 336 q 186 323 180 337 q 195 282 206 316 l 192 279 q 184 260 193 265 q 176 250 183 252 q 165 241 174 239 q 159 255 155 232 q 154 252 153 264 l 149 250 q 135 241 147 238 q 130 241 132 237 q 119 247 121 241 q 102 260 104 247 q 94 269 96 262 q 100 290 91 285 l 100 293 l 100 290 l 100 296 l 100 293 l 100 296 l 102 301 l 102 307 l 102 301 l 102 307 l 105 307 l 102 307 l 105 307 q 116 317 106 319 q 140 334 120 337 l 140 336 l 140 334 l 140 336 q 151 339 148 336 l 154 336 m 227 339 q 227 334 239 330 l 227 339 m 205 328 q 205 320 217 323 l 205 328 m 73 304 l 70 304 l 73 304 q 70 304 71 295 l 73 304 m 235 296 l 233 296 l 235 296 q 233 296 234 287 l 235 296 m 67 293 l 64 293 l 67 293 l 67 279 l 64 279 l 67 279 l 64 279 l 64 293 l 67 293 m 260 277 l 257 277 l 260 274 l 260 277 l 260 274 q 257 260 261 267 q 252 244 260 248 l 252 236 l 249 236 l 252 236 l 249 239 l 249 236 l 249 241 l 249 239 l 249 241 l 252 247 l 252 252 l 252 247 l 252 252 l 254 252 l 252 252 l 254 252 l 254 260 l 252 260 l 254 260 l 252 260 l 254 263 q 257 277 253 273 l 260 277 m 54 241 q 56 231 54 234 q 48 241 46 232 l 54 241 m 249 236 l 246 236 l 249 236 q 246 236 248 227 l 249 236 m 184 231 l 181 228 q 170 212 182 213 q 159 214 163 212 q 140 220 146 207 l 146 220 l 146 222 l 146 220 l 146 222 l 154 225 l 151 222 l 154 225 l 168 225 l 170 225 l 168 225 l 170 225 q 178 231 172 229 l 184 231 m 62 222 l 59 222 l 62 222 q 59 214 68 209 l 59 222 l 62 222 m 89 209 q 86 206 94 206 l 89 209 m 94 206 q 97 198 103 203 q 92 203 94 203 l 94 206 m 108 190 q 116 184 115 190 q 113 182 126 182 l 113 184 l 113 182 l 113 184 q 108 190 108 186 m 165 54 l 162 49 q 157 41 161 43 q 154 30 156 38 l 154 35 l 154 30 l 151 30 l 154 30 l 151 30 q 146 16 148 24 l 146 22 l 146 16 l 138 16 q 143 24 139 19 q 149 35 143 33 q 159 49 149 48 l 159 54 l 159 49 l 159 54 l 165 54 m 121 41 l 119 41 l 121 41 l 121 35 q 124 24 127 32 l 121 24 l 124 24 l 119 24 l 121 24 l 119 24 q 105 27 109 24 q 116 38 104 39 l 119 41 l 116 38 l 121 41 z "}," ":{"ha":169,"x_min":0,"x_max":0,"o":""},"":{"ha":169,"x_min":0,"x_max":0,"o":""},"!":{"ha":154,"x_min":35,"x_max":140,"o":"m 102 426 q 94 423 100 421 l 97 423 l 94 420 l 94 423 l 92 420 l 94 420 l 89 420 l 92 420 l 86 420 l 89 420 l 86 420 q 75 420 79 417 l 73 418 l 75 420 l 73 418 l 64 418 l 67 418 l 64 418 l 56 415 q 45 412 53 410 l 45 407 l 45 412 l 45 407 q 45 393 35 399 q 40 380 42 388 l 40 385 l 40 374 q 43 366 45 372 l 40 358 l 40 361 l 40 355 l 40 358 l 40 353 l 40 355 l 40 350 l 40 353 l 40 350 q 43 339 41 342 l 40 336 l 40 331 l 40 336 l 40 331 q 40 323 46 327 l 43 320 l 40 323 l 43 320 l 43 290 l 40 282 l 40 252 q 37 239 39 248 l 37 244 l 37 193 l 35 190 l 35 165 l 37 165 l 35 165 l 37 165 l 37 155 l 40 155 l 37 155 l 40 155 l 40 130 l 40 133 l 40 130 q 48 117 50 127 l 56 114 l 56 117 l 56 114 l 59 117 l 56 117 l 59 117 l 59 127 q 70 125 66 127 q 81 127 73 130 q 92 130 84 133 q 100 133 95 142 l 105 133 l 100 133 l 105 133 l 105 138 l 105 133 l 105 138 l 108 138 l 105 138 l 108 138 l 108 149 q 105 157 102 152 q 100 160 100 153 l 102 168 l 102 165 l 102 168 l 102 165 q 105 171 106 168 l 105 182 q 102 195 97 186 l 102 201 l 102 212 l 102 217 l 102 231 q 100 241 102 238 l 102 250 l 102 255 l 102 266 q 105 277 102 273 l 105 282 l 105 288 l 105 293 l 105 307 l 105 317 l 105 326 l 108 334 l 108 342 l 108 347 l 108 361 l 108 369 l 108 377 l 108 382 l 108 391 l 108 388 l 108 391 l 108 396 l 108 410 q 111 420 107 417 l 108 420 l 111 420 l 108 420 q 102 426 105 425 m 97 410 l 94 401 l 94 396 l 94 401 l 94 366 q 92 372 90 368 l 89 380 l 92 377 l 89 382 l 89 380 l 89 385 l 89 382 l 89 385 l 89 391 l 89 401 q 86 407 84 404 l 83 410 l 92 412 l 97 410 m 59 396 q 62 391 63 395 q 59 396 58 393 m 59 391 l 56 391 l 59 391 q 56 391 58 387 l 59 391 m 105 225 q 111 222 110 208 l 105 225 m 59 176 l 56 176 l 59 176 l 59 168 q 59 157 66 162 l 56 152 l 56 157 l 56 163 l 56 176 l 59 176 m 83 171 l 81 171 l 83 168 l 83 171 l 86 168 l 83 168 l 86 168 l 86 146 l 83 146 l 86 146 l 83 146 l 83 155 l 83 152 l 81 157 l 83 155 l 81 157 l 81 171 l 83 171 m 62 155 q 64 149 66 153 q 59 141 73 141 l 59 144 l 59 141 l 59 144 l 62 149 l 62 155 l 62 149 l 62 155 m 78 106 q 62 95 73 95 q 56 92 60 90 l 54 84 l 51 84 l 54 84 l 51 84 q 45 79 49 79 l 43 73 l 43 76 l 40 71 l 37 65 l 35 57 l 37 52 l 37 30 l 40 27 l 37 30 l 40 27 l 40 22 q 45 14 47 20 l 51 14 l 45 14 l 51 14 l 54 8 l 59 5 l 56 5 l 62 5 l 59 5 l 62 5 l 67 3 l 73 3 l 67 3 l 73 3 l 73 0 l 73 3 l 73 0 l 75 3 l 73 0 l 75 3 l 81 0 l 89 3 l 86 3 l 89 3 q 94 5 91 7 q 100 8 96 10 q 108 19 100 17 q 116 24 110 26 l 116 27 l 116 24 l 119 27 l 116 27 l 119 27 q 127 35 121 33 l 127 49 q 124 60 123 53 l 135 60 q 140 71 135 68 l 140 76 l 140 71 l 140 76 q 138 81 136 78 q 135 87 133 83 q 127 95 128 89 l 121 95 l 127 95 l 121 95 l 116 98 l 111 100 q 100 98 103 100 l 97 100 l 92 100 l 92 103 l 92 100 l 89 103 l 92 103 l 86 103 l 89 103 l 86 103 q 78 106 83 109 z "},"\"":{"ha":191,"x_min":23,"x_max":175,"o":"m 164 542 q 159 536 163 539 l 161 536 l 156 536 l 159 536 l 156 536 l 151 539 l 145 539 l 151 539 l 145 539 q 140 536 143 534 l 137 534 l 137 526 l 134 526 l 137 526 l 134 526 q 126 528 131 531 l 123 520 l 123 523 l 123 520 q 118 501 125 510 l 118 490 l 115 485 l 115 477 q 113 466 115 474 l 113 471 l 113 450 l 110 447 l 110 404 l 110 406 l 110 404 q 113 393 115 400 l 113 390 l 113 393 l 113 387 l 113 390 l 113 387 l 115 379 q 126 395 130 379 q 132 390 132 393 l 137 390 l 132 390 l 137 390 l 137 393 l 137 390 l 137 393 l 145 395 l 142 393 l 145 395 l 159 395 q 164 398 161 400 q 170 404 166 403 l 170 414 l 170 422 l 170 433 l 172 441 l 172 450 l 175 458 l 175 469 l 175 477 l 175 488 l 175 493 l 175 501 l 175 507 l 175 520 l 175 526 l 175 536 l 172 539 l 164 542 m 140 517 q 140 501 147 511 l 140 498 l 140 501 l 140 496 l 140 498 q 137 485 139 493 l 132 485 l 137 485 l 132 485 l 134 490 l 134 488 l 134 493 l 134 490 l 134 496 l 134 493 l 134 498 l 134 496 l 134 501 l 134 498 l 134 504 l 134 501 l 134 507 l 134 504 l 134 507 q 137 517 134 514 l 140 526 l 140 517 m 69 523 q 58 520 66 517 q 47 517 55 515 q 28 512 42 509 l 26 507 l 23 498 l 23 469 q 26 460 28 466 l 26 447 l 28 444 l 26 447 l 28 444 l 28 433 q 31 422 31 430 l 31 425 l 31 422 l 34 414 l 34 404 q 37 398 37 403 l 37 401 l 37 395 l 37 398 l 37 393 l 37 395 l 37 393 l 39 385 l 42 385 l 39 385 l 42 382 l 42 385 l 45 382 l 42 382 l 45 382 q 53 379 48 376 l 53 376 l 53 379 l 56 376 l 53 376 l 56 376 q 64 374 59 371 l 64 376 l 64 374 l 64 376 q 66 385 69 380 l 75 385 q 83 387 77 390 q 91 390 85 393 l 94 393 l 94 404 l 96 412 l 94 414 l 96 412 l 94 414 l 94 420 l 94 425 q 88 441 85 431 l 88 450 l 88 458 l 85 466 l 85 471 l 85 477 l 85 482 l 85 488 l 85 493 l 85 507 l 83 515 q 80 523 77 517 l 69 523 m 47 485 l 47 466 q 50 455 51 462 q 47 455 49 446 l 45 455 l 47 455 l 45 458 l 45 455 l 45 460 l 45 458 l 45 463 l 45 460 l 45 463 q 39 474 43 467 l 42 471 l 39 477 l 39 474 l 39 477 l 42 482 l 42 488 l 42 482 l 42 488 l 47 485 m 134 479 q 129 479 129 460 l 134 479 m 148 466 l 145 466 l 148 466 q 145 466 146 452 l 148 466 m 91 458 q 91 466 96 462 l 91 458 m 75 444 l 72 444 l 75 444 q 72 444 73 425 l 75 444 z "},"#":{"ha":351,"x_min":21,"x_max":349,"o":"m 151 389 l 149 383 l 149 372 l 146 372 l 149 372 l 146 372 q 140 361 145 368 l 140 356 l 140 361 l 140 353 l 140 356 l 140 351 l 140 353 l 140 351 q 138 342 135 347 l 135 340 l 132 323 l 132 329 l 132 318 q 130 310 127 315 q 127 304 125 308 l 124 299 l 121 291 q 116 277 123 279 l 116 275 l 116 277 l 116 275 l 111 275 l 105 275 l 100 275 l 92 272 l 94 272 l 92 272 l 86 272 l 81 272 l 70 272 q 64 267 68 267 l 62 258 q 56 250 62 252 l 54 242 l 54 245 l 54 237 l 51 237 l 54 237 q 48 226 50 234 l 48 231 l 48 226 l 45 226 l 48 226 l 45 223 l 45 226 l 45 223 q 51 218 51 221 q 62 218 58 220 l 62 220 l 62 218 l 62 220 l 70 220 l 73 220 l 70 220 l 73 220 q 83 220 79 228 l 92 220 l 92 218 l 92 220 l 94 218 l 92 218 l 94 218 q 92 207 93 215 l 92 212 l 92 207 q 83 193 88 199 q 78 177 84 184 l 78 172 l 78 177 l 78 172 l 75 172 l 78 172 q 73 161 75 169 l 73 166 l 73 161 l 67 161 l 54 161 q 48 153 52 155 l 48 147 l 48 153 l 45 142 q 43 136 41 140 q 40 131 39 134 q 37 125 36 129 l 35 123 q 29 112 35 115 q 45 96 26 92 l 45 87 l 43 87 l 45 87 l 43 87 l 40 82 l 40 74 q 37 68 36 72 q 32 50 34 58 l 32 55 l 32 50 l 29 50 l 32 50 l 29 47 l 29 50 l 29 44 l 29 47 l 29 44 q 26 36 24 41 q 24 25 26 33 l 24 31 l 24 22 l 24 25 l 21 22 l 24 22 l 21 22 l 21 12 l 26 9 q 40 3 38 10 l 45 3 l 40 3 l 48 3 l 45 3 l 48 3 q 59 3 56 9 l 64 3 l 59 3 l 64 3 l 67 12 l 73 14 l 75 22 q 78 33 75 30 l 81 39 l 83 44 l 83 52 q 86 58 87 54 q 89 63 90 60 l 92 71 l 94 74 l 97 82 q 100 93 96 90 l 108 93 l 113 93 l 119 93 l 130 93 l 135 93 l 143 93 q 149 96 145 98 l 162 96 q 173 98 166 99 l 173 90 q 170 85 172 90 l 170 87 l 170 82 l 170 85 l 170 82 q 168 74 165 79 q 165 66 163 72 l 165 68 l 162 63 q 157 58 160 57 l 157 55 l 157 58 l 157 50 l 154 50 l 157 50 l 154 50 l 154 44 l 154 50 l 154 33 l 151 31 l 151 17 l 151 20 l 151 17 q 149 3 146 14 l 151 3 l 149 3 l 154 3 l 151 3 l 154 3 q 162 1 157 -2 l 168 1 l 168 3 l 168 1 l 170 3 l 168 3 l 173 6 l 170 3 l 173 6 l 186 6 q 197 9 191 9 l 200 17 l 200 22 l 200 17 l 200 25 l 200 22 l 203 25 l 200 25 l 203 25 l 203 36 l 205 36 l 203 36 l 205 36 l 208 41 l 208 47 l 208 41 l 208 47 l 211 52 l 211 58 q 214 66 216 61 l 216 68 l 216 74 l 216 68 l 216 77 l 216 74 l 219 79 l 222 85 l 222 82 l 222 85 l 224 90 l 224 96 l 224 90 l 227 98 l 233 96 l 235 98 l 238 96 l 243 96 l 238 96 l 243 96 l 257 96 l 262 96 q 268 93 264 92 l 273 93 l 281 93 l 279 93 l 284 93 l 281 93 l 287 93 l 284 93 l 287 93 q 298 93 294 96 l 303 93 l 314 93 q 319 101 314 100 q 325 96 322 96 q 328 106 324 103 l 317 106 l 317 112 l 317 125 l 319 128 l 319 142 q 317 153 316 146 l 311 158 l 314 158 l 311 158 l 303 155 l 298 158 l 284 158 q 279 161 282 162 l 273 161 l 273 163 l 273 161 l 271 163 l 273 163 l 271 163 l 262 163 l 265 163 l 262 166 l 262 163 l 262 166 l 252 166 q 249 172 248 168 q 252 180 254 175 l 254 185 l 257 193 l 257 199 l 260 204 l 260 201 l 262 207 l 262 212 l 262 207 l 262 215 l 262 212 l 262 215 q 265 223 268 218 l 271 220 l 271 223 l 271 220 l 271 223 l 281 223 l 281 226 l 281 223 l 281 226 l 287 226 l 300 226 l 303 226 l 300 226 l 303 226 l 309 223 l 314 223 l 309 223 l 314 223 q 319 226 316 228 q 325 231 321 231 q 330 239 325 238 q 336 256 330 248 l 338 261 q 349 275 340 273 q 347 288 349 284 l 338 288 l 338 286 l 338 288 l 336 286 l 338 286 l 333 286 l 336 286 l 333 286 q 322 288 330 291 l 325 288 l 319 288 l 322 288 l 319 286 l 319 288 l 317 286 l 319 286 l 317 286 l 303 286 q 292 288 296 286 q 281 288 286 285 l 281 291 l 281 288 l 281 291 l 287 291 l 287 294 l 287 291 l 287 294 l 292 294 q 300 296 295 299 q 295 313 307 311 q 290 307 295 306 l 290 310 l 290 307 l 292 313 q 295 319 293 317 q 300 326 296 321 l 300 334 l 303 337 l 306 345 l 306 351 l 309 351 l 306 351 l 309 351 l 309 356 l 309 351 l 309 356 l 309 367 l 300 367 l 300 361 l 300 367 q 298 351 300 359 l 295 351 l 298 351 l 295 351 l 295 345 l 295 351 l 295 345 l 292 345 l 295 345 l 292 342 l 292 345 l 292 342 q 290 334 287 339 l 287 334 l 290 334 l 287 334 l 287 340 l 287 345 l 287 356 l 284 356 l 287 356 l 284 356 l 279 359 l 281 359 l 276 359 l 279 359 l 276 359 l 268 356 l 265 348 q 262 337 269 340 l 260 329 l 257 323 l 257 315 q 252 310 256 315 l 252 304 l 252 310 l 252 299 l 249 299 l 252 299 l 249 296 l 249 299 l 249 294 l 249 296 l 249 294 q 246 286 243 290 l 241 286 q 230 283 237 280 l 227 280 l 230 283 l 227 280 l 219 280 l 222 280 l 219 280 q 208 277 216 275 l 200 275 l 197 277 l 195 275 l 197 277 l 195 275 l 192 277 l 186 277 l 192 277 l 186 277 l 181 277 l 176 277 l 165 277 l 168 283 l 168 280 l 168 286 l 168 283 l 168 288 l 168 286 l 168 288 q 173 299 170 296 l 176 304 l 176 313 l 178 315 l 181 323 l 181 329 l 184 329 l 181 329 l 184 329 l 184 334 l 184 329 l 184 334 l 186 334 l 184 334 l 186 334 l 186 345 l 189 348 l 189 356 l 192 356 l 189 356 l 192 356 l 192 361 l 192 356 l 192 361 l 192 375 l 189 375 l 192 375 l 189 378 l 189 375 l 189 378 q 176 375 180 378 l 176 378 l 176 375 l 176 380 l 176 378 l 176 380 q 178 389 181 384 l 173 389 l 178 389 l 170 389 l 173 389 l 170 389 q 154 389 162 385 l 151 389 l 154 389 l 151 389 m 178 361 l 176 361 l 178 359 l 178 361 l 178 359 q 173 340 180 349 l 170 332 l 170 337 q 176 353 168 350 l 176 361 l 178 361 m 170 329 l 168 329 l 170 329 q 168 329 169 315 l 170 329 m 322 275 l 325 272 l 322 267 q 319 253 323 257 q 317 258 315 255 q 298 264 307 256 q 281 272 264 258 l 284 272 l 281 272 l 287 272 l 284 272 l 287 272 q 300 269 296 273 l 300 272 l 300 269 l 300 272 l 306 272 l 317 272 l 322 275 m 83 258 q 97 256 90 260 l 108 256 l 108 250 l 100 250 q 89 250 94 243 l 83 250 l 89 250 l 83 250 l 83 248 l 83 250 l 83 248 q 83 256 69 252 l 83 258 l 83 256 l 83 258 m 197 239 q 197 237 207 238 l 197 239 l 197 237 l 197 239 m 216 239 l 227 239 l 227 237 l 227 239 l 224 237 l 227 237 l 224 237 q 211 239 218 235 l 216 239 m 146 226 l 151 226 l 157 226 l 168 226 l 176 226 q 184 223 179 220 l 189 223 l 195 223 l 208 223 l 211 223 l 208 223 l 211 223 l 216 220 l 222 220 l 216 220 l 222 220 l 219 212 q 214 199 220 205 l 214 193 l 214 199 l 214 193 q 208 188 212 193 l 205 180 l 203 172 q 197 166 203 165 l 189 166 l 181 166 l 173 166 l 162 166 l 157 166 l 151 166 l 140 166 l 138 163 l 140 166 l 138 163 l 124 163 l 127 169 l 127 174 l 127 180 l 130 180 l 127 180 l 130 180 l 132 185 l 132 196 l 135 201 l 138 207 l 138 204 l 138 207 q 143 220 137 218 l 146 226 m 230 188 l 227 188 l 230 188 q 227 188 229 179 l 230 188 m 162 155 q 170 150 171 157 q 157 147 163 151 l 146 147 l 138 144 l 124 144 q 121 153 115 145 l 124 150 l 135 150 l 143 153 l 140 153 l 146 153 l 143 153 l 146 153 q 162 155 152 149 m 173 153 q 173 150 182 151 l 173 153 l 173 150 l 173 153 m 303 147 q 306 134 315 146 q 295 136 313 127 l 295 139 l 295 136 l 298 139 l 295 139 l 298 142 l 298 139 l 298 142 q 303 147 302 144 m 257 144 q 257 142 261 143 l 257 144 l 257 142 l 257 144 m 257 142 q 246 142 251 134 l 257 142 m 51 128 q 48 115 63 120 q 51 128 47 124 m 298 120 q 303 109 305 117 q 292 109 297 102 q 276 109 281 105 l 276 115 l 279 115 l 276 115 l 279 115 l 290 115 l 298 117 l 298 120 l 298 117 l 298 120 m 45 115 q 48 109 50 113 q 45 115 44 111 m 59 90 l 56 90 l 59 90 q 56 90 58 81 l 59 90 m 54 82 q 56 77 58 81 l 54 68 l 54 66 l 54 68 l 54 63 l 54 66 l 54 60 l 54 63 l 54 60 q 48 50 51 52 l 48 39 l 45 36 l 45 31 l 45 36 l 45 28 l 45 31 l 45 28 q 43 20 40 24 l 35 20 l 35 28 l 37 31 l 40 39 q 43 50 39 46 l 45 58 l 48 63 l 48 68 l 51 68 l 48 68 l 51 71 l 51 68 l 51 71 l 54 77 l 54 82 l 54 77 l 54 82 m 170 55 l 173 52 l 170 47 l 170 22 l 170 25 l 170 22 q 168 14 165 19 l 162 14 l 168 14 l 162 14 l 162 20 l 162 25 l 165 31 l 165 28 l 165 31 l 165 39 l 165 36 l 165 41 l 165 39 l 165 41 q 168 50 170 45 l 170 55 m 75 17 l 83 14 q 78 25 88 24 l 75 17 z "},"$":{"ha":296,"x_min":25,"x_max":277,"o":"m 158 502 l 158 507 l 155 499 l 155 472 l 147 472 l 150 472 l 147 472 l 139 469 l 128 469 q 123 464 126 464 l 117 464 q 112 461 115 459 q 106 458 110 456 q 101 456 104 454 l 98 453 l 93 450 l 85 448 l 82 442 q 77 437 77 439 q 66 431 71 431 l 68 431 l 66 431 q 60 426 64 426 q 52 418 58 419 l 52 412 l 52 418 l 52 412 l 50 412 l 52 412 l 50 410 l 50 412 q 47 399 49 407 l 47 404 l 44 396 l 44 391 l 44 396 l 41 388 l 41 380 l 39 377 l 39 372 l 39 377 l 39 358 l 36 355 l 36 320 l 39 315 l 39 304 q 41 298 43 302 q 44 293 46 296 q 50 285 51 291 l 55 285 l 50 285 l 55 285 l 55 282 l 55 285 l 55 282 q 66 274 64 281 q 77 269 75 274 l 85 271 l 82 271 l 85 271 q 93 269 88 266 q 101 263 99 267 l 106 260 l 112 260 l 106 260 l 112 260 l 120 258 l 125 258 q 134 255 129 252 l 139 252 l 136 252 l 139 252 q 150 247 146 253 l 155 247 l 150 247 l 155 247 l 155 212 l 153 206 l 153 144 l 147 146 q 136 152 138 146 q 128 157 127 150 q 120 165 118 153 l 117 168 l 109 165 l 106 168 l 106 174 l 101 174 l 106 174 l 101 174 l 101 179 q 98 184 96 181 q 96 190 94 186 q 90 195 93 190 l 82 198 l 79 195 l 82 198 l 77 195 l 79 195 l 74 195 l 77 195 l 71 195 l 74 195 l 71 195 q 66 190 69 190 q 60 184 64 184 q 52 176 60 176 l 50 174 q 41 165 47 167 q 31 155 40 153 q 25 149 28 149 l 25 146 l 25 149 l 25 144 l 25 146 l 25 141 l 25 144 l 25 141 l 28 133 l 33 133 l 28 133 l 33 133 l 36 127 q 41 122 41 125 l 50 119 l 47 119 l 52 117 q 58 111 58 115 l 60 111 l 58 111 l 60 111 q 66 109 62 107 l 71 106 l 77 106 q 82 103 79 102 l 90 100 l 93 98 l 98 95 q 112 90 109 96 l 117 90 l 112 90 l 117 90 l 125 90 l 125 87 l 125 90 l 125 87 l 131 87 l 125 87 l 131 87 l 136 87 l 147 87 l 147 54 q 147 43 151 48 q 150 35 153 41 q 161 27 158 33 l 161 3 l 166 0 l 169 3 q 174 11 169 9 l 174 14 l 174 11 l 174 14 l 174 19 l 174 30 l 177 30 l 174 30 l 177 30 l 185 33 q 191 41 186 39 l 191 52 q 182 60 184 51 l 182 65 l 185 73 l 188 79 l 188 84 l 188 79 l 188 84 l 188 98 l 196 95 l 201 95 q 212 98 205 101 l 215 100 l 212 98 l 215 100 l 220 100 q 226 103 222 105 q 231 106 228 108 l 231 109 l 231 106 l 231 109 l 239 114 l 237 114 l 239 114 q 250 119 243 116 l 250 125 l 250 119 l 250 125 l 256 125 l 258 133 l 261 141 q 264 146 265 143 q 267 152 268 149 q 269 157 271 154 l 272 165 l 272 171 l 275 176 l 275 174 l 275 176 q 277 190 273 183 l 277 198 q 275 203 273 200 l 275 212 l 275 217 l 275 231 l 272 233 l 275 231 l 272 233 l 272 247 q 269 252 267 249 q 264 258 267 252 l 267 255 l 264 260 l 264 258 l 264 263 l 264 260 l 264 263 q 258 269 258 265 l 256 274 l 253 279 q 248 285 250 284 l 245 290 l 245 288 l 245 293 l 245 290 l 245 293 q 239 298 239 295 q 231 307 234 301 q 226 312 226 309 q 218 317 219 312 l 212 317 l 218 317 l 212 317 l 204 320 l 207 320 l 204 320 l 196 323 l 199 323 l 193 326 l 185 328 l 188 334 l 185 336 l 188 334 l 185 336 l 185 342 l 180 345 l 180 353 l 180 363 l 180 369 l 180 374 l 180 385 l 188 388 l 191 385 l 196 385 l 191 385 l 196 385 l 201 385 l 215 385 q 226 388 218 391 l 226 385 l 226 388 l 226 385 q 234 377 231 383 q 242 369 241 375 l 253 369 q 261 380 257 376 l 261 385 l 261 380 l 261 385 l 264 393 l 264 401 l 264 399 l 264 401 q 267 410 269 405 q 272 415 268 411 l 272 420 l 272 415 l 275 423 l 275 429 l 275 423 l 277 431 l 277 437 l 277 431 l 277 437 l 277 448 q 269 456 271 450 l 256 456 l 256 453 l 256 456 l 256 453 q 245 450 248 453 l 234 453 l 237 453 l 234 456 l 234 453 l 234 456 l 229 456 l 234 456 l 226 456 l 229 456 l 226 458 l 226 456 l 226 458 l 215 458 q 210 461 213 463 l 201 464 l 193 464 l 196 464 l 193 464 q 185 467 190 469 l 185 469 l 185 467 l 185 472 l 185 469 l 185 472 q 188 486 184 479 q 196 499 188 496 l 193 507 l 182 507 l 174 505 l 166 505 l 169 505 l 166 505 q 158 507 163 510 l 158 502 m 142 458 q 147 448 162 458 l 142 450 l 142 448 l 142 450 l 142 448 l 136 448 l 123 448 l 123 450 l 123 448 l 123 450 l 128 450 l 128 453 l 128 450 l 131 453 l 128 453 l 134 453 l 131 453 l 134 453 q 142 458 136 457 m 196 450 q 207 445 207 453 l 204 448 q 191 453 191 444 l 196 450 m 204 445 l 201 445 l 204 445 q 201 445 203 441 l 204 445 m 215 431 l 223 431 q 234 423 233 441 l 237 423 l 234 423 l 237 420 l 237 423 l 237 418 l 237 420 l 237 418 q 234 410 231 414 l 231 407 l 226 407 l 226 410 l 226 407 l 223 410 l 226 410 l 220 410 l 223 410 l 220 410 q 212 412 217 415 l 207 412 q 212 418 209 418 l 212 426 q 207 434 205 428 l 215 431 m 106 401 l 104 401 l 106 399 l 106 401 l 106 399 q 106 380 113 388 l 106 372 l 104 372 l 106 372 l 104 372 l 104 380 q 101 388 98 382 q 101 393 96 391 l 98 399 l 106 401 m 60 393 q 63 382 64 392 l 60 382 l 63 382 l 60 382 l 60 377 l 60 382 l 60 361 q 63 350 62 358 q 66 342 68 347 q 68 336 71 340 q 71 331 73 334 q 60 350 56 331 l 58 350 l 60 350 l 58 350 q 55 353 56 340 l 58 353 l 55 353 l 58 355 l 58 353 l 58 355 q 58 363 47 351 l 55 363 l 58 363 l 55 366 l 55 363 l 55 369 l 55 366 l 55 372 l 55 369 l 55 374 l 55 372 l 55 374 l 58 382 q 60 393 57 390 m 136 393 l 134 393 l 139 393 l 136 393 l 142 393 l 139 393 l 142 393 q 155 391 151 394 l 155 336 q 139 345 144 334 q 131 355 129 346 q 125 369 119 357 q 128 385 122 378 l 128 391 l 128 385 l 128 391 l 134 388 l 134 393 l 134 388 l 134 393 l 136 393 m 82 369 l 79 369 l 82 366 l 82 369 l 82 363 l 82 366 l 85 363 l 82 363 l 85 363 l 85 358 q 87 347 90 355 q 87 339 94 343 q 85 342 86 335 l 85 339 l 85 342 q 79 347 79 344 l 82 353 l 82 350 l 82 355 l 82 353 l 82 355 q 79 369 75 359 l 82 369 m 47 323 q 52 317 53 321 q 60 309 61 317 l 63 309 l 60 309 l 63 309 q 55 312 58 303 l 50 312 l 55 312 l 50 312 l 50 315 l 50 312 l 50 315 l 47 323 m 155 312 q 153 312 154 309 l 155 312 l 153 312 l 155 312 m 115 307 q 115 304 124 305 l 115 307 l 115 304 l 115 307 m 131 298 q 131 296 140 297 l 131 298 l 131 296 l 131 298 m 144 293 l 142 293 l 147 290 q 153 285 153 288 l 155 285 l 153 285 l 155 285 l 155 279 q 150 285 150 281 q 142 290 143 285 q 139 296 134 292 l 144 293 m 125 279 l 136 279 q 131 274 147 268 l 131 277 l 131 274 l 131 277 l 125 277 l 131 277 l 125 277 l 125 279 l 125 277 l 125 279 m 218 260 q 212 263 215 249 l 218 260 m 245 263 q 253 255 254 262 q 256 247 258 252 q 261 225 265 241 q 261 220 263 222 q 261 212 264 216 l 258 212 l 261 212 l 258 212 l 258 217 q 253 228 252 220 q 250 236 248 231 q 245 247 243 239 q 245 263 237 253 m 188 255 q 196 250 195 255 q 201 244 203 250 q 204 239 206 242 q 210 225 215 235 q 201 239 201 229 q 193 247 195 241 q 188 255 186 249 m 226 250 q 223 244 232 239 l 226 250 m 193 217 l 193 214 l 193 217 l 193 214 q 196 203 197 210 l 199 203 l 196 203 l 199 203 l 199 195 l 201 195 l 199 195 l 201 195 q 199 182 203 189 l 196 176 q 180 155 195 158 l 182 163 l 180 168 q 182 174 184 170 l 182 179 l 182 184 l 182 190 l 182 201 l 185 203 l 185 209 l 185 203 l 185 209 l 185 220 l 193 217 m 172 214 l 169 214 l 172 214 q 169 214 170 200 l 172 214 m 253 176 q 258 165 267 174 l 258 163 l 258 165 l 258 163 q 253 152 259 155 l 253 146 l 253 152 l 253 146 l 250 146 l 253 146 l 250 146 l 250 155 l 253 160 l 250 160 l 253 160 l 250 160 l 250 165 l 253 165 l 250 165 l 253 165 l 253 176 m 60 155 q 74 149 72 156 l 77 149 l 74 149 l 77 146 l 77 149 l 77 146 l 68 146 l 71 146 l 66 144 l 68 146 l 66 144 l 52 144 l 50 138 q 60 155 42 144 m 201 155 q 201 152 205 153 l 201 155 l 201 152 l 201 155 m 201 152 l 199 152 l 201 152 q 193 146 201 142 q 201 152 198 149 m 237 149 q 242 144 243 147 q 248 136 254 150 l 242 133 l 245 133 l 242 133 q 237 125 241 127 q 231 130 215 114 l 234 138 q 237 149 233 146 m 193 144 l 191 144 l 193 144 q 191 144 192 140 l 193 144 m 87 138 q 85 138 86 135 l 87 138 l 85 138 l 87 138 m 66 127 q 77 122 75 128 l 71 125 q 60 130 62 124 l 66 127 m 185 125 q 196 119 194 125 l 201 119 l 196 119 l 201 119 q 193 114 199 113 q 182 111 190 109 l 180 109 l 180 114 q 185 125 172 119 m 220 117 l 218 117 l 220 117 q 218 117 219 113 l 220 117 m 117 114 q 131 111 124 115 q 117 114 123 106 m 134 111 q 134 109 143 110 l 134 111 l 134 109 l 134 111 m 142 109 q 139 109 140 105 l 142 109 l 139 109 l 142 109 z "},"%":{"ha":463,"x_min":25,"x_max":456,"o":"m 321 407 l 318 401 q 313 391 319 394 l 313 388 l 313 391 l 313 385 l 313 388 l 313 385 q 307 374 313 378 l 307 369 l 307 374 l 307 369 q 304 361 302 366 l 302 361 l 304 361 l 302 361 l 299 353 l 299 355 l 299 353 q 296 345 294 349 q 291 339 292 342 l 288 331 l 286 331 l 288 331 l 286 331 q 277 317 282 321 q 275 304 277 313 q 272 298 271 302 l 269 296 q 264 285 267 288 q 258 277 264 277 q 253 269 258 270 l 253 266 l 253 269 l 253 266 l 250 258 q 245 252 249 256 l 242 244 l 242 247 l 239 244 l 242 244 l 239 244 l 239 239 l 239 244 l 239 239 l 237 239 l 239 239 q 234 228 236 236 l 234 233 l 234 228 l 229 225 l 231 225 l 229 225 l 226 217 l 223 212 l 220 206 q 218 201 216 204 l 215 201 l 218 201 l 215 201 l 212 195 l 210 187 q 204 176 210 178 q 203 166 205 169 q 196 157 201 163 l 196 152 l 196 157 l 196 152 q 193 146 192 150 l 191 144 l 191 138 l 191 144 l 188 136 l 185 130 l 185 133 q 182 119 184 127 l 182 125 l 182 119 l 180 119 l 182 119 l 180 119 l 177 111 l 174 111 l 177 111 q 172 100 174 109 l 172 106 l 172 100 q 169 95 168 98 l 166 92 q 161 84 166 85 q 155 76 161 77 l 155 73 l 155 76 l 155 68 l 153 68 l 155 68 l 153 65 l 153 68 l 153 62 l 153 65 l 153 62 q 150 54 147 59 l 147 49 q 144 43 143 47 l 142 41 q 136 30 142 33 l 136 24 l 136 30 l 136 22 l 136 24 l 136 22 q 136 5 142 12 q 139 0 141 3 l 150 0 q 155 3 152 5 q 161 8 155 5 q 166 16 161 15 q 172 27 166 25 l 172 30 l 172 27 l 172 33 l 172 30 l 172 33 q 174 41 177 36 l 177 41 l 174 41 l 177 41 l 180 46 l 180 52 l 180 46 l 180 52 l 182 52 l 180 52 l 182 52 l 185 57 l 185 62 l 185 57 l 188 65 l 191 73 l 191 71 l 193 73 l 191 73 l 193 73 q 199 84 193 82 l 199 90 l 199 84 l 199 90 l 201 90 l 199 90 l 201 90 l 204 95 l 204 100 l 204 95 l 204 100 l 207 100 l 204 100 l 207 100 q 212 111 208 105 l 215 117 l 215 122 l 215 117 l 215 122 l 218 122 l 215 122 l 218 122 l 220 127 l 220 133 l 220 127 l 220 133 q 225 139 224 137 q 231 144 227 141 l 229 144 l 234 146 l 237 152 l 237 157 l 237 152 l 237 157 q 242 163 241 160 l 245 168 q 250 176 246 174 l 253 184 l 253 182 l 253 187 l 253 184 l 256 190 q 261 198 256 197 l 261 201 l 261 198 l 261 201 l 264 209 q 269 220 263 216 l 269 225 l 269 220 l 269 228 l 269 225 l 269 228 q 272 236 275 231 q 275 241 276 238 l 277 241 l 275 241 l 277 244 l 277 241 l 277 244 l 280 250 l 280 255 l 280 250 l 283 258 l 286 263 l 286 260 l 286 266 l 286 263 l 286 266 q 288 274 291 269 l 291 274 l 288 274 l 291 274 l 294 282 l 296 290 l 299 293 l 302 301 l 304 309 q 310 315 307 315 l 310 317 l 310 315 l 310 317 l 313 326 l 315 326 l 313 326 l 315 326 l 318 334 l 321 334 l 318 334 l 321 334 l 323 339 l 326 345 l 326 350 l 329 350 l 326 350 l 329 350 q 334 358 329 357 l 334 363 l 334 358 l 334 363 q 337 369 338 366 q 340 374 341 371 l 342 377 l 345 382 l 345 380 l 345 382 q 351 391 347 389 l 353 396 q 351 410 353 406 l 345 410 l 351 410 l 345 410 q 332 412 335 397 l 323 412 l 321 407 m 109 385 q 104 382 107 380 l 98 382 l 93 382 l 85 382 l 85 380 l 85 382 l 85 380 l 79 380 q 71 377 77 374 q 63 374 68 372 q 58 372 61 370 q 52 366 58 369 q 44 355 50 357 q 36 342 44 345 l 36 334 l 33 331 q 28 323 32 325 l 28 317 l 28 323 l 25 315 l 25 309 l 25 315 l 25 279 l 28 277 q 31 266 28 269 l 33 258 l 39 255 l 39 247 q 50 233 48 244 q 60 225 58 233 q 68 220 67 225 l 74 220 l 68 220 l 77 220 l 74 220 l 77 220 q 85 217 80 214 l 87 214 l 96 214 l 101 214 l 101 212 l 101 214 l 101 212 l 106 212 l 101 212 l 106 212 l 117 212 q 123 217 118 214 l 120 217 l 125 217 l 123 217 l 125 217 q 136 217 129 212 l 142 217 q 147 220 144 222 q 153 222 149 224 q 161 228 155 229 q 169 239 161 237 q 174 244 170 241 l 172 244 l 174 244 l 174 250 l 174 244 l 174 250 l 177 255 l 177 260 l 182 263 l 182 269 l 182 263 l 182 269 q 185 274 186 271 l 188 277 q 191 288 188 284 l 191 293 l 191 288 l 191 293 l 191 304 q 188 312 185 307 l 185 320 l 185 328 l 182 328 l 185 328 l 182 328 l 182 334 q 180 342 177 336 q 177 347 175 344 q 169 353 170 347 l 169 358 l 163 358 l 169 358 l 161 361 l 158 366 q 144 374 148 366 l 142 374 l 144 374 l 142 374 l 134 374 l 136 374 l 134 377 l 134 374 l 134 377 l 123 377 l 123 385 l 109 385 m 158 353 q 153 353 156 342 l 158 353 m 93 347 q 123 336 117 351 l 128 334 l 128 282 l 128 285 l 128 282 q 125 274 123 279 l 123 274 l 125 274 l 123 274 q 117 266 123 267 q 109 260 115 259 q 101 258 106 252 q 93 269 91 259 q 90 277 87 271 q 87 282 85 279 l 85 282 l 87 282 l 85 285 l 85 282 l 85 288 l 85 285 l 82 288 l 85 288 l 82 290 l 82 288 l 82 293 l 82 290 l 82 296 l 82 293 l 82 296 q 82 307 79 302 l 79 307 l 82 307 l 79 307 l 79 312 l 82 312 l 79 312 l 82 312 l 82 317 l 82 312 l 82 317 l 82 328 l 85 328 l 82 328 l 85 328 l 87 334 l 87 342 l 93 342 l 93 347 l 93 342 l 93 347 m 161 345 l 161 347 l 161 345 q 172 323 173 340 l 174 323 l 172 323 l 174 323 l 174 317 q 177 307 180 314 q 177 298 183 302 l 177 296 l 177 298 l 177 296 q 174 285 177 288 l 172 277 l 172 285 l 169 285 l 172 285 l 169 285 l 169 290 l 169 301 l 166 304 l 166 312 l 166 309 l 163 312 l 166 312 l 163 312 l 163 326 q 163 331 159 328 l 163 334 l 163 331 l 163 334 q 161 342 158 336 q 161 347 155 345 l 161 345 m 356 203 q 351 201 354 199 q 345 198 349 196 q 337 193 343 191 l 334 187 l 334 190 l 332 187 l 334 187 l 332 187 q 326 182 330 182 q 321 176 324 176 l 321 171 l 321 176 l 321 171 q 313 163 317 167 l 313 157 l 313 163 l 313 157 l 310 157 l 313 157 l 310 155 l 310 157 l 310 155 q 307 146 304 151 l 304 144 q 299 136 303 138 q 296 122 300 126 l 296 106 l 299 103 l 296 106 l 299 100 l 299 103 l 299 100 q 302 87 298 94 l 302 76 q 304 68 307 73 q 307 62 309 66 q 310 57 312 60 q 315 46 315 55 l 318 46 l 315 46 l 318 43 l 318 46 l 318 43 q 326 35 323 41 q 334 27 333 33 l 337 27 l 334 27 l 337 27 q 345 22 343 26 l 351 19 l 361 19 l 361 16 l 361 19 l 364 16 l 361 16 l 367 16 l 364 16 l 367 16 q 375 14 370 11 l 375 11 l 375 14 l 375 11 l 380 8 l 386 8 l 380 8 l 386 8 q 391 5 387 7 l 389 5 l 391 5 q 397 8 393 10 q 402 11 399 13 l 402 14 l 402 11 l 405 14 l 402 14 l 405 14 q 413 22 407 19 q 421 30 415 28 q 429 41 424 39 q 440 54 431 52 l 440 57 l 440 54 l 440 57 l 440 62 l 443 62 l 440 62 l 443 62 l 446 68 l 446 73 l 446 68 l 448 76 l 448 81 l 448 76 l 448 81 q 451 87 450 83 l 451 84 l 451 87 l 454 92 l 454 98 l 454 92 l 454 98 l 454 106 l 454 114 l 454 111 l 456 114 l 454 114 l 456 114 l 456 125 l 456 138 q 454 149 451 142 q 451 155 449 151 q 448 160 446 157 q 446 165 444 162 l 443 165 l 446 165 l 443 168 l 443 165 l 440 168 l 443 168 l 440 168 q 435 174 437 173 l 429 176 l 424 176 l 429 176 l 421 179 l 416 179 l 416 182 l 416 179 l 413 182 l 416 182 l 410 182 l 413 182 l 410 182 q 402 184 407 187 q 397 195 400 189 l 389 195 q 383 198 387 199 l 375 198 l 375 201 l 375 198 l 372 201 l 375 201 l 370 201 l 372 201 l 370 201 q 361 203 366 206 l 356 203 m 435 152 l 432 152 l 435 152 l 437 144 l 440 141 l 437 144 l 440 141 l 440 122 q 437 111 440 115 l 437 122 q 437 130 434 126 l 437 138 q 432 152 429 132 l 435 152 m 348 141 l 361 141 l 361 138 l 361 141 l 361 125 q 359 114 362 117 l 361 114 l 359 114 l 361 111 l 361 114 l 361 111 l 370 109 l 367 109 l 370 106 l 370 109 l 370 106 q 380 90 380 101 q 383 79 386 86 q 386 73 388 77 l 380 68 l 380 71 l 380 68 l 372 68 q 361 68 366 60 q 351 73 353 67 q 342 79 344 73 q 334 84 336 79 l 332 84 l 334 84 l 332 84 l 332 95 l 329 98 l 332 95 l 329 98 l 332 106 l 332 103 l 332 109 l 332 106 l 332 109 l 332 114 l 334 119 l 334 117 l 334 119 l 337 125 l 337 130 l 337 125 l 337 130 l 340 130 l 337 130 l 340 130 q 342 141 339 138 l 348 141 m 372 138 q 380 133 378 137 q 386 119 393 131 l 386 114 l 386 119 l 386 114 l 378 117 l 378 122 l 378 127 q 375 133 373 130 q 372 138 370 135 m 408 138 q 405 136 414 132 l 408 138 m 380 46 q 375 41 378 41 l 367 41 q 356 41 362 35 l 356 43 l 356 41 l 359 43 l 356 43 l 359 43 q 372 46 366 42 l 380 46 z "},"&":{"ha":346,"x_min":16,"x_max":336,"o":"m 122 410 q 117 404 122 407 l 119 407 l 117 404 q 106 401 109 404 l 98 399 l 95 393 l 95 396 l 92 393 l 95 393 l 92 393 q 84 385 90 388 q 76 377 82 378 q 73 366 75 374 l 73 372 l 71 363 q 65 353 68 355 l 62 345 l 60 336 q 57 323 61 330 l 57 317 l 57 323 l 57 293 q 60 285 62 290 l 60 269 l 60 271 l 60 269 q 62 258 65 265 l 65 255 l 62 258 l 65 255 l 65 247 l 65 250 l 65 247 q 68 236 71 243 l 71 236 l 68 236 l 71 236 l 71 231 q 73 220 74 227 l 71 220 l 73 220 l 71 220 q 57 217 66 211 q 52 209 56 214 l 52 203 l 52 209 l 52 203 l 46 201 l 43 193 q 41 187 39 191 l 38 187 l 41 187 l 38 187 q 33 182 36 182 l 30 174 l 30 176 l 30 171 l 30 174 l 30 168 l 30 171 l 30 168 l 27 160 l 24 155 q 19 144 25 146 q 16 133 20 136 l 16 95 l 19 92 l 16 95 l 19 92 l 19 84 l 19 87 l 19 84 l 22 76 l 22 65 q 24 57 27 62 q 27 52 29 55 l 33 49 l 35 43 l 41 41 l 43 33 l 52 30 l 52 27 l 52 30 l 52 27 q 60 19 57 25 l 65 16 q 71 11 69 12 q 76 5 73 10 l 76 8 l 76 5 l 81 3 l 90 0 l 98 0 l 109 0 l 114 0 l 119 0 l 130 0 q 141 3 134 5 l 144 5 q 152 8 146 11 q 157 11 154 13 q 163 14 159 16 l 163 19 l 163 14 l 163 19 l 171 19 l 168 19 l 171 19 q 179 24 173 26 l 179 27 l 179 24 l 179 27 l 184 27 q 193 33 186 34 q 198 35 195 37 l 212 35 l 212 49 q 212 54 207 52 q 220 62 212 63 q 228 71 222 69 q 236 76 230 77 l 236 73 l 236 76 l 236 73 l 241 71 q 247 65 247 68 q 252 57 252 63 l 252 60 l 252 57 q 259 55 257 56 q 266 52 262 53 l 263 52 l 266 49 l 266 52 l 266 49 q 271 43 271 47 q 277 38 274 43 l 282 38 l 277 38 l 285 35 l 290 27 q 296 22 296 25 q 304 16 302 22 l 315 16 l 317 16 l 315 16 l 320 19 l 326 19 l 320 19 l 326 19 l 328 27 l 331 27 l 328 27 l 331 27 q 336 33 333 33 l 336 35 l 336 33 l 336 35 q 331 46 330 38 q 328 52 326 48 q 326 60 320 55 q 320 65 326 66 l 320 73 l 312 76 q 304 87 308 83 l 301 95 l 301 92 l 301 95 q 296 103 294 97 l 293 106 l 285 109 l 285 119 q 277 125 278 119 l 271 127 l 274 130 l 279 130 l 274 130 l 279 130 l 279 133 l 279 130 l 279 133 q 282 141 285 136 q 285 163 277 155 l 288 171 l 293 174 l 293 179 l 293 174 l 293 179 l 293 193 l 296 195 l 296 201 l 298 201 l 296 201 l 298 201 l 298 206 l 298 201 l 298 206 l 298 217 l 296 217 l 298 217 l 296 220 l 296 217 l 293 220 l 296 220 l 293 220 q 288 225 290 224 q 282 231 281 227 l 277 233 q 263 236 269 227 l 260 236 l 263 236 l 258 236 l 260 236 l 258 236 q 252 231 256 231 l 252 222 q 250 217 248 220 l 247 203 q 244 193 243 201 l 241 193 l 244 193 l 241 190 l 241 193 q 239 179 241 187 l 239 184 l 239 179 l 236 179 l 239 179 l 236 179 l 233 174 l 233 176 q 231 163 233 171 l 231 168 l 231 163 l 228 163 l 231 163 l 228 163 q 217 160 224 157 l 217 163 l 217 160 l 217 163 q 201 182 200 167 q 190 190 192 182 q 179 209 177 195 l 182 209 l 179 209 l 184 209 l 182 209 l 184 209 q 190 214 186 214 q 195 217 192 219 l 198 220 q 212 250 194 245 q 225 255 212 258 l 228 260 l 225 263 l 228 260 l 225 263 l 228 269 l 228 266 q 231 274 229 270 l 231 271 l 233 274 l 231 274 l 233 274 q 239 279 235 279 q 244 285 241 285 l 244 290 l 244 285 l 244 290 l 244 296 l 244 307 q 236 315 239 309 l 239 312 l 236 315 l 236 320 q 233 331 233 324 l 233 336 l 231 336 l 233 336 l 231 339 l 231 336 l 231 339 q 228 347 225 342 q 225 353 225 347 l 225 350 l 225 353 q 217 366 216 356 l 212 366 l 217 366 l 212 366 l 209 374 l 203 377 l 198 377 l 203 377 l 198 377 l 198 380 l 198 377 l 198 380 q 193 385 193 382 q 184 393 186 387 l 179 393 l 184 393 l 176 396 l 171 399 l 163 401 l 160 401 l 163 401 l 160 404 l 160 401 l 160 404 l 152 407 q 141 410 144 406 l 136 410 l 122 410 m 144 396 q 133 396 138 389 l 144 396 m 146 393 q 146 391 156 392 l 146 393 l 146 391 l 146 393 m 163 388 q 171 382 170 388 q 176 377 178 382 q 165 385 168 379 q 155 391 158 384 l 163 388 m 133 355 l 130 355 l 136 355 l 133 355 l 138 355 l 136 355 l 138 355 l 144 353 l 149 353 l 144 353 l 149 353 l 149 350 l 149 353 l 152 347 l 149 350 q 155 345 150 348 q 160 336 155 338 l 160 331 q 165 326 163 331 l 163 328 l 165 326 l 165 320 l 168 320 l 165 320 l 168 320 q 171 309 168 313 q 168 298 170 307 l 168 304 l 165 296 q 160 282 166 285 l 160 277 l 160 282 l 160 277 q 157 271 156 275 l 155 271 l 157 271 q 149 263 154 269 q 144 255 149 256 l 141 250 l 133 247 l 133 241 l 133 247 l 133 241 l 125 244 l 125 247 l 125 244 l 125 250 l 125 247 l 125 250 q 119 260 123 254 l 122 258 l 119 263 l 119 260 l 119 266 l 119 263 l 119 269 l 119 266 l 119 269 q 114 277 115 271 l 114 282 l 111 290 l 111 296 l 111 301 l 111 307 l 111 312 l 111 317 l 111 331 l 111 334 l 111 331 l 111 334 l 114 339 l 114 345 l 114 339 l 114 345 l 122 347 q 130 355 124 353 l 133 355 m 84 201 q 79 201 83 191 l 84 201 m 138 165 l 144 163 q 149 157 149 161 q 155 155 151 153 l 160 146 l 160 149 l 160 146 l 165 144 q 171 141 168 140 l 174 136 q 179 130 179 134 q 187 122 184 127 l 187 125 l 190 122 l 187 122 l 190 119 l 190 122 l 193 119 l 190 119 l 193 119 q 198 114 195 115 q 193 103 197 106 q 184 92 192 94 q 179 84 184 85 q 171 79 177 77 l 171 76 l 171 79 l 168 76 l 171 76 l 168 76 q 155 79 161 75 q 141 84 144 78 l 136 84 l 141 84 l 136 84 l 136 87 l 136 84 l 136 87 l 130 90 l 125 90 l 130 90 l 125 90 l 125 95 l 122 95 l 125 95 l 122 95 q 111 100 114 98 l 109 109 l 106 109 l 109 109 l 106 109 l 106 114 l 106 125 q 103 133 94 128 q 109 141 103 140 q 117 146 111 148 q 127 149 120 152 l 130 152 q 136 160 130 159 l 138 165 m 27 103 q 30 87 37 97 l 30 92 q 27 103 26 96 m 62 100 q 76 87 75 97 q 81 79 81 85 l 81 81 l 81 79 q 65 95 65 81 q 62 100 60 97 m 125 79 q 119 79 128 67 l 125 79 m 179 62 q 174 54 186 56 q 168 52 172 50 q 163 49 166 47 q 155 46 160 43 q 149 46 153 42 l 152 49 l 160 54 l 157 52 l 160 54 l 168 54 l 168 57 l 168 54 l 171 57 l 168 57 l 174 57 l 171 57 l 174 57 q 179 62 176 62 m 76 46 q 76 38 87 41 l 76 46 z "},"'":{"ha":77,"x_min":12,"x_max":69,"o":"m 47 530 q 39 522 46 522 q 15 511 34 507 l 15 506 l 15 511 l 15 490 l 12 490 l 15 490 l 12 490 l 15 481 l 15 471 q 18 463 20 468 l 20 446 l 20 430 l 20 433 l 20 430 q 23 419 26 427 l 23 395 l 26 392 l 23 395 l 26 392 l 26 370 q 28 365 31 368 q 31 359 33 363 l 34 359 l 31 359 l 37 359 l 34 359 l 37 359 q 47 365 41 361 q 53 368 50 370 q 58 373 53 374 q 69 384 61 383 q 69 392 66 388 q 64 397 66 397 q 66 408 64 405 l 64 411 l 66 408 l 64 414 l 64 411 l 64 414 l 61 427 l 61 425 l 61 430 l 61 427 l 61 430 q 64 438 66 433 l 64 444 l 64 449 l 61 457 l 64 465 l 61 473 q 64 481 66 477 l 61 487 l 64 492 l 64 498 l 64 506 l 66 509 l 66 514 l 66 509 l 66 514 l 66 525 q 61 530 61 527 l 47 530 z "},"(":{"ha":222,"x_min":31,"x_max":191,"o":"m 166 491 q 158 488 163 486 q 153 486 156 484 l 150 480 l 142 480 q 136 477 140 475 l 131 475 l 125 475 l 120 472 l 115 472 l 101 472 q 96 472 98 467 q 85 469 92 469 l 85 464 l 85 469 l 85 464 l 82 464 l 85 464 l 82 464 l 82 453 l 77 450 q 71 439 77 441 l 68 429 l 68 431 l 68 429 q 63 420 67 422 l 60 415 l 60 407 l 58 404 l 55 396 q 52 385 56 389 l 52 380 q 50 374 51 378 l 50 377 l 50 372 l 50 374 l 50 369 l 50 372 q 47 358 49 366 l 47 363 l 47 355 l 47 358 l 47 353 l 47 355 l 47 353 q 44 345 41 349 l 41 339 l 41 328 q 36 323 40 327 l 36 307 l 36 309 l 36 307 q 33 298 31 303 l 33 193 q 36 182 37 189 l 36 171 q 39 165 41 169 l 41 152 l 41 141 l 44 138 l 41 141 l 44 138 l 44 130 l 44 133 l 44 130 l 47 122 l 47 111 q 50 106 52 109 l 52 106 l 50 106 l 52 106 l 52 100 l 55 100 l 52 100 l 55 100 l 55 95 q 58 87 60 92 q 60 81 62 85 q 66 76 63 81 l 63 79 l 66 76 l 66 71 q 68 62 71 68 q 71 57 73 60 q 74 52 76 55 q 79 43 81 50 l 82 43 l 79 43 l 82 43 l 82 38 q 85 30 87 35 l 90 27 l 93 22 q 101 11 100 19 q 109 3 108 9 l 117 0 q 131 0 126 4 q 136 5 136 3 l 142 5 l 150 5 l 147 5 q 155 5 153 7 q 163 5 160 7 l 172 5 l 174 5 l 172 5 l 174 5 q 185 11 176 16 l 188 14 q 185 24 187 21 l 177 27 l 180 27 l 177 27 q 172 22 175 22 l 169 27 l 169 24 l 169 27 q 163 33 163 29 q 155 41 157 35 l 155 43 l 155 41 l 155 43 q 153 49 151 45 q 150 54 148 51 q 147 60 145 56 q 142 71 140 62 l 139 71 l 142 71 l 139 71 q 134 79 138 77 l 134 84 l 131 92 l 128 92 l 131 92 l 128 92 q 123 100 127 98 l 123 109 l 120 109 l 123 109 l 120 109 l 120 122 l 117 125 l 117 136 l 115 144 l 115 157 l 112 160 l 115 157 l 112 160 l 109 168 l 112 165 l 109 168 l 109 174 l 109 179 l 109 190 l 112 190 l 109 190 l 112 190 l 117 187 l 125 190 l 123 190 l 125 193 l 125 190 l 128 193 l 125 193 l 128 193 l 128 198 l 128 193 l 128 198 l 125 198 l 128 198 l 123 198 l 125 198 l 123 198 l 117 201 l 112 201 l 117 201 l 112 201 l 112 203 l 112 201 l 112 206 l 112 203 l 109 206 l 112 206 l 109 209 l 109 206 l 109 209 l 109 217 l 109 214 l 109 217 q 106 228 104 220 l 109 231 q 112 244 103 239 l 112 247 l 112 244 l 112 247 l 112 258 q 109 271 104 262 l 104 271 l 109 271 l 104 271 l 104 274 l 104 271 l 104 274 q 101 285 103 281 q 104 293 106 288 l 104 298 l 104 304 l 104 312 l 104 309 l 104 312 q 106 320 109 315 l 106 326 l 106 331 l 106 339 l 109 345 l 109 350 l 112 358 l 112 366 l 112 363 l 112 366 q 115 374 117 370 l 120 372 l 117 372 l 120 372 q 128 382 121 380 q 131 396 127 389 l 131 399 l 131 396 l 131 399 q 128 404 121 399 l 131 410 l 131 418 q 142 420 138 418 l 142 423 l 142 420 l 142 423 q 144 434 141 431 l 142 442 l 150 442 l 147 442 l 150 442 q 158 439 153 437 l 161 445 l 169 448 q 174 453 169 454 q 182 458 176 460 q 191 469 183 467 l 191 475 l 191 469 l 191 475 l 191 486 q 185 491 188 486 l 180 491 l 185 491 l 180 491 l 166 491 m 50 233 l 47 233 l 50 233 l 50 214 q 47 203 50 207 l 47 209 l 47 214 l 47 220 l 47 233 l 50 233 m 63 114 q 66 103 71 111 l 63 106 l 63 114 m 71 103 q 68 95 79 90 l 71 103 m 77 92 q 77 84 79 87 l 74 84 l 77 84 l 74 84 l 77 92 m 123 79 q 120 79 121 70 l 123 79 l 120 79 l 123 79 m 85 71 q 82 71 83 67 l 85 71 l 82 71 l 85 71 m 128 68 q 125 68 127 59 l 128 68 l 125 68 l 128 68 m 90 54 q 87 60 86 56 l 90 60 l 87 60 l 90 60 l 90 54 m 115 49 q 120 43 120 47 l 125 43 l 120 43 l 125 43 l 125 41 l 125 43 l 125 41 q 134 30 134 37 q 139 24 139 28 l 144 22 l 150 24 l 155 22 q 144 19 152 16 q 134 19 138 12 q 128 24 127 19 q 123 30 121 24 q 120 35 118 32 q 112 52 111 41 l 115 49 m 153 52 l 153 54 l 153 52 q 153 54 167 53 l 153 52 z "},")":{"ha":212,"x_min":32,"x_max":192,"o":"m 56 491 q 64 488 59 486 q 70 486 66 484 l 73 480 l 81 480 q 86 477 83 475 l 92 475 l 97 475 l 102 472 l 108 472 l 121 472 q 127 472 124 467 q 138 469 131 469 l 138 464 l 138 469 l 138 464 l 140 464 l 138 464 l 140 464 l 140 453 l 146 450 q 151 439 145 441 l 154 429 l 154 431 l 154 429 q 159 420 155 422 l 162 415 l 162 407 l 165 404 l 168 396 q 170 385 167 389 l 170 380 q 173 374 172 378 l 173 377 l 173 372 l 173 374 l 173 369 l 173 372 q 176 358 174 366 l 176 363 l 176 355 l 176 358 l 176 353 l 176 355 l 176 353 q 178 345 181 349 l 181 339 l 181 328 q 186 323 182 327 l 186 307 l 186 309 l 186 307 q 189 298 192 303 l 189 193 q 186 182 186 189 l 186 171 q 184 165 182 169 l 181 152 l 181 141 l 178 138 l 181 141 l 178 138 l 178 130 l 178 133 l 178 130 l 176 122 l 176 111 q 173 106 171 109 l 170 106 l 173 106 l 170 106 l 170 100 l 168 100 l 170 100 l 168 100 l 168 95 q 165 87 162 92 q 162 81 160 85 q 157 76 159 81 l 159 79 l 157 76 l 157 71 q 154 62 151 68 q 151 57 149 60 q 149 52 146 55 q 143 43 142 50 l 140 43 l 143 43 l 140 43 l 140 38 q 138 30 135 35 l 132 27 l 130 22 q 121 11 123 19 q 113 3 115 9 l 105 0 q 92 0 96 4 q 86 5 87 3 l 81 5 l 73 5 l 75 5 q 67 5 70 7 q 59 5 62 7 l 51 5 l 48 5 l 51 5 l 48 5 q 37 11 46 16 l 35 14 q 37 24 35 21 l 45 27 l 43 27 l 45 27 q 51 22 47 22 l 54 27 l 54 24 l 54 27 q 59 33 59 29 q 67 41 65 35 l 67 43 l 67 41 l 67 43 q 70 49 72 45 q 73 54 75 51 q 75 60 77 56 q 81 71 82 62 l 83 71 l 81 71 l 83 71 q 89 79 84 77 l 89 84 l 92 92 l 94 92 l 92 92 l 94 92 q 100 100 95 98 l 100 109 l 102 109 l 100 109 l 102 109 l 102 122 l 105 125 l 105 136 l 108 144 l 108 157 l 111 160 l 108 157 l 111 160 l 113 168 l 111 165 l 113 168 l 113 174 l 113 179 l 113 190 l 111 190 l 113 190 l 111 190 l 105 187 l 97 190 l 100 190 l 97 193 l 97 190 l 94 193 l 97 193 l 94 193 l 94 198 l 94 193 l 94 198 l 97 198 l 94 198 l 100 198 l 97 198 l 100 198 l 105 201 l 111 201 l 105 201 l 111 201 l 111 203 l 111 201 l 111 206 l 111 203 l 113 206 l 111 206 l 113 209 l 113 206 l 113 209 l 113 217 l 113 214 l 113 217 q 116 228 119 220 l 113 231 q 111 244 119 239 l 111 247 l 111 244 l 111 247 l 111 258 q 113 271 118 262 l 119 271 l 113 271 l 119 271 l 119 274 l 119 271 l 119 274 q 121 285 119 281 q 119 293 116 288 l 119 298 l 119 304 l 119 312 l 119 309 l 119 312 q 116 320 113 315 l 116 326 l 116 331 l 116 339 l 113 345 l 113 350 l 111 358 l 111 366 l 111 363 l 111 366 q 108 374 105 370 l 102 372 l 105 372 l 102 372 q 94 382 102 380 q 92 396 96 389 l 92 399 l 92 396 l 92 399 q 94 404 101 399 l 92 410 l 92 418 q 81 420 84 418 l 81 423 l 81 420 l 81 423 q 78 434 81 431 l 81 442 l 73 442 l 75 442 l 73 442 q 64 439 69 437 l 62 445 l 54 448 q 48 453 54 454 q 40 458 46 460 q 32 469 39 467 l 32 475 l 32 469 l 32 475 l 32 486 q 37 491 35 486 l 43 491 l 37 491 l 43 491 l 56 491 m 173 233 l 176 233 l 173 233 l 173 214 q 176 203 173 207 l 176 209 l 176 214 l 176 220 l 176 233 l 173 233 m 159 114 q 157 103 151 111 l 159 106 l 159 114 m 151 103 q 154 95 144 90 l 151 103 m 146 92 q 146 84 144 87 l 149 84 l 146 84 l 149 84 l 146 92 m 100 79 q 102 79 101 70 l 100 79 l 102 79 l 100 79 m 138 71 q 140 71 139 67 l 138 71 l 140 71 l 138 71 m 94 68 q 97 68 96 59 l 94 68 l 97 68 l 94 68 m 132 54 q 135 60 136 56 l 132 60 l 135 60 l 132 60 l 132 54 m 108 49 q 102 43 102 47 l 97 43 l 102 43 l 97 43 l 97 41 l 97 43 l 97 41 q 89 30 88 37 q 83 24 83 28 l 78 22 l 73 24 l 67 22 q 78 19 71 16 q 89 19 84 12 q 94 24 96 19 q 100 30 101 24 q 102 35 104 32 q 111 52 112 41 l 108 49 m 70 52 l 70 54 l 70 52 q 70 54 56 53 l 70 52 z "},"*":{"ha":238,"x_min":31,"x_max":220,"o":"m 163 589 l 158 586 q 153 581 156 581 q 147 575 151 575 q 142 570 147 572 q 136 562 142 563 l 134 556 q 128 572 125 562 l 125 581 l 117 581 l 112 581 l 98 581 l 96 578 l 98 581 l 96 578 l 82 578 l 82 575 l 82 578 l 79 575 l 82 575 l 79 575 l 79 570 l 79 575 l 79 570 l 77 570 l 79 570 l 77 570 l 77 559 l 71 559 l 63 559 l 66 559 l 60 556 l 63 559 l 60 556 l 47 556 q 50 543 47 547 l 44 545 l 36 543 l 31 543 q 33 532 31 540 q 44 524 42 531 l 50 524 l 55 518 l 52 518 l 55 515 l 55 518 l 58 515 l 55 515 l 58 515 q 63 510 60 511 q 71 505 69 509 q 85 494 84 504 q 74 483 79 488 l 68 480 q 55 469 65 471 q 47 461 53 463 l 47 456 l 47 461 l 47 456 l 44 456 l 47 456 l 44 453 l 44 456 l 41 453 l 44 453 l 41 453 l 41 448 l 41 453 l 41 445 l 41 448 l 39 445 l 41 445 l 39 445 l 39 434 q 44 429 44 432 l 50 429 l 44 429 l 50 429 l 50 426 l 50 429 l 50 426 l 55 426 l 50 426 l 55 426 q 66 420 56 418 q 74 426 68 427 l 77 431 l 77 429 l 79 431 l 77 431 l 79 431 q 85 437 81 437 q 90 442 87 442 l 90 439 l 90 442 l 90 437 l 90 439 l 90 434 l 90 437 l 90 418 q 93 412 95 416 l 96 410 l 101 410 l 96 410 l 101 410 q 112 412 105 413 l 117 412 l 128 412 l 131 412 l 128 412 l 131 412 q 136 418 133 418 l 136 426 l 136 434 l 136 439 l 136 453 l 136 458 l 136 469 q 144 472 139 475 l 144 469 l 144 472 l 144 469 l 150 467 q 163 458 161 464 q 174 453 168 458 q 180 448 180 451 l 182 448 l 180 448 l 185 448 l 182 448 l 185 445 l 185 448 l 185 445 q 193 437 191 443 q 201 429 200 435 l 204 429 l 201 429 l 204 429 l 212 431 l 212 445 q 210 450 208 447 q 204 456 204 452 l 201 461 l 201 467 l 201 475 l 199 475 l 201 475 l 199 475 l 199 480 l 199 491 q 196 499 193 494 q 193 505 191 501 l 185 507 l 188 507 l 185 510 l 185 507 l 182 510 l 185 510 l 182 510 q 174 513 179 515 l 174 515 l 174 513 l 174 515 l 169 515 l 174 515 l 169 515 l 169 518 l 169 515 l 166 518 l 169 518 l 166 518 q 158 521 163 524 q 163 529 159 524 l 166 537 l 166 534 l 169 537 l 166 537 l 169 537 q 174 548 169 546 l 174 553 l 174 548 l 174 553 l 180 551 l 180 553 l 180 551 l 180 553 l 188 556 l 185 553 l 188 556 l 201 556 q 207 559 203 561 q 212 562 209 564 q 218 570 213 564 l 220 578 q 215 583 215 580 l 210 586 l 204 586 l 210 586 l 204 586 l 199 586 q 188 583 195 583 l 185 589 q 174 594 176 588 l 166 594 l 163 589 m 180 575 q 172 578 176 561 l 180 575 m 163 572 q 163 570 168 571 l 163 572 l 163 570 l 163 572 m 161 567 l 158 567 l 161 567 q 158 567 159 563 l 161 567 m 101 439 q 104 431 106 437 l 109 429 l 106 429 l 109 429 l 117 429 q 125 434 119 435 q 112 423 126 420 q 101 439 96 420 z "},"+":{"ha":322,"x_min":24,"x_max":300,"o":"m 186 286 l 181 286 l 176 286 q 168 283 173 280 l 168 280 l 168 283 l 168 280 l 162 280 l 151 280 l 149 277 q 140 264 149 267 l 140 258 l 140 264 l 140 193 l 127 193 l 124 193 l 127 193 l 124 193 q 108 193 115 188 q 97 193 102 189 l 83 193 l 83 191 l 83 193 l 83 191 l 78 191 l 78 188 l 78 191 l 75 188 l 78 188 l 73 185 l 75 188 l 73 185 l 59 185 l 59 188 l 59 185 l 59 191 l 59 188 l 59 191 l 56 199 l 48 199 q 40 196 45 193 l 37 193 q 26 177 41 176 l 24 174 l 24 169 l 24 174 l 24 169 q 29 163 29 167 q 43 150 45 170 q 45 142 48 147 l 48 139 l 59 139 l 67 139 l 73 139 l 78 139 l 89 139 l 94 139 l 100 136 l 105 139 q 113 136 107 135 l 111 136 l 116 136 l 113 136 l 119 136 l 116 136 l 119 136 l 124 134 l 130 134 l 124 134 l 130 134 l 143 134 l 143 123 q 143 117 147 121 l 146 115 l 146 85 q 149 79 151 83 l 149 20 l 151 17 l 157 14 l 154 14 l 157 14 l 162 12 l 168 12 l 162 12 l 168 12 q 176 1 164 -1 q 184 9 176 9 l 192 12 l 200 12 l 200 14 l 200 12 l 200 14 l 205 14 q 211 22 207 20 l 211 31 q 211 41 210 37 l 211 39 l 211 44 l 211 41 l 211 44 q 211 55 208 51 l 211 58 l 211 55 l 211 58 l 211 63 l 208 71 l 211 68 l 208 74 l 208 71 l 208 74 q 205 87 210 81 l 205 90 l 205 87 l 205 93 l 205 90 l 205 96 l 205 93 l 205 98 l 205 96 l 205 101 l 205 98 l 205 104 l 205 101 l 205 106 l 205 104 l 205 109 l 205 106 l 205 109 q 200 117 201 111 l 203 120 q 208 136 198 131 l 219 136 l 222 134 l 227 134 l 222 134 l 227 134 l 238 134 l 243 134 l 249 134 l 254 134 l 260 134 l 265 134 l 273 131 l 276 134 l 273 131 l 279 134 l 276 134 l 281 131 l 287 131 l 281 131 l 290 131 l 287 131 l 290 131 q 300 131 293 125 l 300 136 l 300 131 l 300 136 l 300 142 l 300 155 l 300 158 l 300 155 l 300 158 q 298 163 296 160 q 295 169 293 165 l 292 172 l 295 169 l 292 174 l 292 172 l 292 177 l 292 174 l 292 180 l 292 177 l 292 180 q 287 185 287 182 l 281 185 l 287 185 l 281 185 l 273 185 l 262 185 l 257 185 l 252 185 l 241 185 l 235 185 l 227 185 l 230 185 l 227 188 l 227 185 l 227 188 l 216 188 l 203 188 l 203 201 q 197 210 199 203 l 197 212 l 197 210 l 197 215 l 197 212 l 197 215 q 195 229 199 222 l 197 234 l 195 239 l 195 248 l 195 245 l 195 248 l 195 253 l 195 267 q 197 277 194 274 l 195 286 l 189 288 l 192 288 l 186 286 m 173 275 q 176 267 183 273 q 168 267 174 262 q 173 272 170 272 l 173 275 l 173 272 l 173 275 m 135 182 q 135 180 144 181 l 135 182 l 135 180 l 135 182 m 276 172 q 281 166 283 172 l 284 163 q 276 169 252 164 l 276 172 l 276 169 l 276 172 m 189 39 l 186 39 l 189 39 q 181 22 193 24 l 184 31 l 186 39 l 189 39 z "},",":{"ha":127,"x_min":7,"x_max":121,"o":"m 58 81 l 58 84 l 58 81 q 53 76 54 79 q 53 62 60 71 q 47 52 52 58 l 47 46 l 47 52 l 45 43 l 45 38 l 45 43 l 45 35 l 45 38 l 45 35 q 42 27 39 32 l 37 22 l 37 24 l 37 19 l 37 22 l 37 16 l 37 19 l 37 16 l 31 0 l 28 0 l 31 0 l 28 0 q 23 -11 28 -9 l 23 -16 l 23 -11 l 23 -16 q 20 -24 18 -20 q 18 -35 20 -27 l 18 -30 l 18 -35 q 15 -41 14 -37 l 12 -43 l 12 -49 l 12 -43 q 9 -60 12 -52 l 9 -54 l 9 -62 l 9 -60 l 7 -62 l 9 -62 l 7 -62 l 7 -73 q 23 -84 20 -73 l 28 -84 l 23 -84 l 28 -84 q 34 -81 28 -81 l 31 -81 l 37 -81 l 34 -81 l 37 -81 q 47 -79 44 -81 l 50 -73 l 50 -68 l 50 -73 l 50 -68 l 53 -68 l 50 -68 l 53 -65 l 53 -68 l 53 -62 l 53 -65 l 53 -62 q 56 -54 58 -59 l 58 -52 q 66 -38 61 -43 l 66 -33 l 69 -33 l 66 -33 l 69 -33 l 69 -27 l 69 -33 l 69 -27 l 72 -27 l 69 -27 l 72 -27 l 75 -22 l 77 -16 l 77 -19 l 77 -14 l 77 -16 l 77 -14 q 80 -5 83 -10 l 83 -5 l 80 -5 l 83 -3 l 83 -5 l 83 -3 q 85 5 88 1 q 88 14 91 9 q 91 19 92 16 q 94 27 96 22 l 99 30 l 102 38 l 104 43 l 104 41 l 107 43 l 104 43 l 107 43 l 107 49 l 107 43 l 107 49 l 110 49 l 107 49 l 110 49 l 113 54 l 113 60 l 113 54 l 113 60 l 118 60 l 118 62 l 118 60 l 121 62 l 118 62 l 121 62 l 121 73 q 107 81 111 73 l 102 81 l 107 81 l 102 81 l 96 79 l 94 81 l 88 79 l 80 79 q 72 81 77 84 l 72 84 l 72 81 l 72 84 l 58 84 l 58 81 m 75 71 l 72 71 l 75 71 q 83 68 78 65 q 72 65 85 59 l 72 71 l 75 71 m 72 65 l 69 65 l 72 65 q 69 65 71 61 l 72 65 m 42 -54 q 42 -57 46 -56 l 42 -54 l 42 -57 l 42 -54 m 37 -57 q 42 -62 43 -57 q 31 -68 39 -70 q 37 -60 32 -61 l 37 -57 l 37 -60 l 37 -57 z "},"-":{"ha":173,"x_min":20,"x_max":161,"o":"m 104 191 q 99 189 104 189 l 102 189 l 99 189 l 91 189 l 94 189 l 91 189 q 80 186 87 183 q 75 183 78 181 l 69 183 l 56 183 l 50 183 l 39 183 q 23 175 35 173 l 20 172 l 20 167 l 20 172 l 20 148 q 23 142 23 148 l 23 145 l 23 140 l 23 142 l 23 137 l 23 140 l 23 137 q 26 126 24 130 l 26 118 q 28 113 31 116 q 34 107 34 111 l 39 104 l 42 107 l 39 104 l 42 107 l 50 110 l 47 107 l 50 110 l 64 110 l 72 107 l 77 110 q 85 107 81 104 l 91 107 l 96 107 l 102 107 l 107 107 l 121 107 q 132 104 128 107 l 137 104 l 132 104 l 137 104 q 142 104 140 109 l 151 102 l 148 102 l 151 102 q 156 104 153 106 q 161 110 158 110 l 161 118 q 159 129 158 122 l 156 129 l 159 129 l 156 129 q 151 134 156 135 l 151 137 l 151 134 l 151 137 l 151 148 l 148 156 q 140 167 139 159 l 134 167 l 140 167 l 134 167 l 134 175 l 134 172 l 134 175 l 132 183 l 129 191 l 123 191 l 129 191 l 123 191 l 118 191 l 104 191 m 85 167 q 85 159 91 163 q 85 167 80 162 m 72 164 q 66 164 68 155 l 72 164 m 69 153 l 66 153 l 69 153 q 66 153 68 139 l 69 153 m 85 126 q 80 129 83 115 l 85 126 m 121 126 l 118 126 l 121 126 q 118 126 119 117 l 121 126 z "},".":{"ha":155,"x_min":44,"x_max":117,"o":"m 68 90 l 68 92 l 66 90 l 68 90 l 66 90 q 55 84 62 87 l 52 79 l 50 73 l 50 65 l 50 68 l 47 65 l 50 65 l 47 65 l 47 54 l 44 54 l 47 54 l 44 54 l 44 49 l 44 54 l 44 38 q 50 33 47 38 l 47 35 l 50 30 l 50 33 l 50 30 l 52 22 q 60 11 61 18 l 66 8 q 74 3 68 3 l 77 0 l 90 0 l 90 3 l 90 0 l 93 3 l 90 3 l 93 3 l 101 5 l 101 8 l 101 5 q 104 14 102 9 l 104 11 l 106 14 l 104 14 l 106 14 q 112 19 109 19 l 115 24 l 115 22 l 117 27 l 117 33 l 117 27 l 117 33 l 117 46 q 115 57 117 54 l 115 62 l 115 68 q 112 79 109 71 q 106 87 105 81 l 101 87 l 106 87 l 101 87 l 101 90 l 101 87 l 101 90 l 93 92 l 87 92 l 82 92 l 68 92 l 68 90 z "},"/":{"ha":236,"x_min":0,"x_max":217,"o":"m 155 427 q 146 421 153 420 l 144 418 l 141 413 q 141 399 150 406 l 138 394 l 136 389 q 130 378 136 380 q 127 367 131 370 q 122 353 124 361 l 122 359 l 122 353 l 117 337 q 114 332 113 335 l 111 323 l 111 310 l 111 313 l 111 310 q 109 302 106 307 l 106 296 l 106 299 l 106 294 l 106 296 l 106 294 q 103 286 100 290 l 100 286 l 103 286 l 100 283 l 100 286 l 100 280 l 100 283 l 100 280 q 98 272 95 277 q 95 267 94 270 l 92 264 q 87 256 91 258 l 87 248 l 84 248 l 87 248 q 81 237 83 245 l 81 242 l 79 234 l 76 226 q 71 212 77 218 l 68 204 l 65 196 q 60 182 62 188 l 60 185 l 60 182 q 57 174 54 179 l 54 172 l 52 161 l 52 163 l 52 161 q 49 153 46 157 l 46 144 q 41 136 41 142 l 41 134 l 41 136 l 38 134 l 41 134 l 38 131 l 38 134 l 38 128 l 38 131 l 38 128 q 35 120 33 125 l 30 117 l 30 109 l 27 109 l 30 109 l 27 109 l 24 101 l 24 93 q 22 85 19 90 q 19 77 16 81 l 16 71 l 16 74 l 16 71 q 11 60 17 64 l 11 55 l 11 60 l 11 55 l 8 55 l 11 55 l 8 55 l 8 50 l 8 55 l 8 50 l 5 50 l 8 50 l 5 47 l 5 50 l 5 44 l 5 47 l 5 44 q 3 36 0 41 l 3 6 l 11 6 l 14 3 l 22 3 l 19 3 l 22 3 q 30 1 25 -2 l 30 3 l 30 1 l 30 3 l 43 3 q 49 6 45 8 q 54 12 51 11 l 54 17 l 54 12 l 54 17 q 60 22 56 23 l 60 25 l 60 22 l 60 28 l 60 25 l 60 31 l 60 28 l 60 31 l 60 36 l 62 41 l 62 39 l 62 41 l 65 47 l 65 52 l 65 47 l 65 52 l 68 52 l 65 52 l 68 55 l 68 52 l 68 55 l 71 60 l 73 68 q 79 77 73 75 l 79 79 l 79 77 l 79 79 q 84 90 78 87 l 84 96 l 84 90 l 84 96 l 87 96 l 84 96 l 87 96 q 92 101 89 100 l 92 106 l 92 101 l 92 106 l 92 117 l 95 117 l 92 117 l 95 117 l 95 123 l 95 117 l 95 123 l 98 123 l 95 123 l 98 125 l 98 123 l 98 125 q 100 134 103 129 l 103 139 l 103 144 l 103 139 l 103 144 q 106 150 107 146 q 109 158 110 152 l 109 155 l 111 158 l 109 158 l 111 158 l 111 163 l 111 158 l 111 163 l 114 163 l 111 163 l 114 163 l 117 169 l 117 174 l 117 169 l 117 174 l 119 182 l 122 182 l 119 182 l 122 182 l 125 191 q 130 204 124 201 q 136 218 130 215 l 138 223 q 144 234 138 232 l 146 237 q 149 250 142 245 l 152 256 l 155 264 q 160 272 155 271 l 163 277 l 163 275 l 163 277 l 163 283 l 165 283 l 163 283 l 165 283 l 168 288 l 168 294 l 168 288 l 168 294 l 171 294 l 168 294 l 171 294 l 171 299 l 171 294 l 171 299 q 174 304 172 300 l 174 302 l 176 304 l 174 304 l 176 304 l 179 310 l 179 315 l 179 310 l 179 318 l 179 315 l 182 318 l 179 318 l 182 318 l 182 329 l 184 332 q 190 337 186 338 l 190 340 l 190 337 l 190 340 q 195 348 191 346 l 198 353 q 203 364 198 362 l 201 367 l 203 364 l 201 367 q 206 372 203 372 q 217 391 206 387 l 217 397 l 217 391 l 217 397 l 217 408 l 212 408 l 217 408 l 209 410 l 201 413 q 190 418 190 410 q 182 424 183 418 l 176 427 l 171 427 l 176 427 l 171 427 l 165 427 l 155 427 m 157 375 q 155 367 164 370 l 157 375 m 125 248 q 122 234 125 240 l 122 237 l 119 229 l 119 231 l 119 229 q 114 220 118 222 l 111 215 q 103 201 111 205 l 103 204 l 103 201 l 103 207 l 103 204 l 103 207 l 106 212 l 106 218 l 106 212 l 106 218 l 109 218 l 106 218 l 109 218 l 111 226 q 117 234 111 233 q 119 248 115 243 l 125 248 m 103 201 l 100 201 l 103 201 q 100 201 102 192 l 103 201 m 24 33 q 24 31 28 32 l 24 33 l 24 31 l 24 33 m 24 31 l 24 17 l 16 20 q 14 31 3 19 l 24 31 z "},":":{"ha":152,"x_min":41,"x_max":125,"o":"m 81 266 q 73 260 79 263 l 76 263 q 71 258 74 262 l 65 258 q 57 252 63 251 l 54 250 l 54 244 l 54 250 l 54 244 q 50 240 50 242 q 49 233 50 237 l 49 236 l 46 233 l 49 233 l 46 233 l 43 225 q 41 209 43 218 l 41 214 l 41 209 l 43 195 q 46 187 49 193 q 49 182 51 185 l 52 179 l 57 179 l 52 179 l 57 179 l 57 174 l 60 174 l 57 174 l 60 171 l 60 174 l 60 171 l 65 168 l 71 168 l 65 168 l 71 168 l 81 168 l 84 174 l 92 174 q 100 184 95 183 l 100 190 l 100 184 l 100 190 l 103 198 l 103 195 q 109 206 104 201 l 111 220 l 111 217 l 111 222 l 111 220 l 111 225 l 111 222 l 111 225 l 111 231 l 111 236 q 109 247 108 240 l 106 255 q 98 263 99 257 l 92 263 l 98 263 l 92 263 l 92 266 l 92 263 l 92 266 l 81 266 l 79 266 l 81 266 m 68 241 l 65 241 l 68 241 l 65 233 l 62 225 q 57 217 62 218 l 57 220 l 57 217 l 57 222 l 57 220 l 60 225 l 62 233 l 65 241 l 68 241 m 90 233 q 95 222 97 231 l 92 222 l 95 222 q 90 212 92 220 l 90 217 l 90 212 q 87 222 82 214 q 90 233 81 221 m 76 90 l 76 92 l 73 90 l 76 90 l 73 90 q 62 84 69 87 l 60 79 l 57 73 l 57 65 l 57 68 l 54 65 l 57 65 l 54 65 l 54 54 l 52 54 l 54 54 l 52 54 l 52 49 l 52 54 l 52 38 q 57 33 54 38 l 54 35 l 57 30 l 57 33 l 57 30 l 60 22 q 68 11 68 18 l 73 8 q 81 3 75 3 l 84 0 l 98 0 l 98 3 l 98 0 l 100 3 l 98 3 l 100 3 l 109 5 l 109 8 l 109 5 q 111 14 110 9 l 111 11 l 114 14 l 111 14 l 114 14 q 119 19 116 19 l 122 24 l 122 22 l 125 27 l 125 33 l 125 27 l 125 33 l 125 46 q 122 57 125 54 l 122 62 l 122 68 q 119 79 117 71 q 114 87 113 81 l 109 87 l 114 87 l 109 87 l 109 90 l 109 87 l 109 90 l 100 92 l 95 92 l 90 92 l 76 92 l 76 90 z "},";":{"ha":189,"x_min":41,"x_max":160,"o":"m 122 317 q 114 315 119 312 l 111 309 l 111 312 l 109 309 l 111 309 l 109 309 q 100 301 106 304 l 100 296 l 100 301 l 98 293 l 95 285 l 95 258 l 98 258 l 95 258 l 98 255 l 98 258 l 98 255 l 100 247 l 106 244 l 103 244 q 111 239 108 243 l 119 236 q 127 236 124 238 l 130 239 l 127 236 l 133 239 l 130 239 l 136 239 l 133 239 l 138 239 l 136 239 l 138 239 l 146 241 q 152 247 146 244 l 152 252 l 152 247 l 152 255 l 152 252 l 155 255 l 152 255 l 155 255 l 155 266 l 157 266 l 155 266 l 157 269 l 157 266 l 157 269 l 160 277 l 157 282 l 160 282 l 157 282 l 160 282 l 160 288 l 160 282 l 160 288 l 160 298 q 152 309 151 302 q 141 317 143 310 l 136 317 l 141 317 l 136 317 l 122 317 m 114 277 l 111 277 l 114 277 q 111 277 113 268 l 114 277 m 92 165 l 92 168 l 92 165 q 87 160 87 163 q 87 146 94 155 q 81 136 86 142 l 81 130 l 81 136 l 79 127 l 79 122 l 79 127 l 79 119 l 79 122 l 79 119 q 76 111 73 116 l 71 106 l 71 109 l 71 103 l 71 106 l 71 100 l 71 103 l 71 100 l 65 84 l 62 84 l 65 84 l 62 84 q 57 73 62 75 l 57 68 l 57 73 l 57 68 q 54 60 52 64 q 52 49 54 57 l 52 54 l 52 49 q 49 43 47 47 l 46 41 l 46 35 l 46 41 q 43 24 45 33 l 43 30 l 43 22 l 43 24 l 41 22 l 43 22 l 41 22 l 41 11 q 57 0 54 11 l 62 0 l 57 0 l 62 0 q 68 3 62 3 l 65 3 l 71 3 l 68 3 l 71 3 q 81 5 78 3 l 84 11 l 84 16 l 84 11 l 84 16 l 87 16 l 84 16 l 87 19 l 87 16 l 87 22 l 87 19 l 87 22 q 90 30 92 25 l 92 33 q 100 46 95 41 l 100 52 l 103 52 l 100 52 l 103 52 l 103 57 l 103 52 l 103 57 l 106 57 l 103 57 l 106 57 l 109 62 l 111 68 l 111 65 l 111 71 l 111 68 l 111 71 q 114 79 117 74 l 117 79 l 114 79 l 117 81 l 117 79 l 117 81 q 119 90 122 85 q 122 98 125 93 q 125 103 126 100 q 127 111 130 106 l 133 114 l 136 122 l 138 127 l 138 125 l 141 127 l 138 127 l 141 127 l 141 133 l 141 127 l 141 133 l 144 133 l 141 133 l 144 133 l 146 138 l 146 144 l 146 138 l 146 144 l 152 144 l 152 146 l 152 144 l 155 146 l 152 146 l 155 146 l 155 157 q 141 165 144 157 l 136 165 l 141 165 l 136 165 l 130 163 l 127 165 l 122 163 l 114 163 q 106 165 111 168 l 106 168 l 106 165 l 106 168 l 92 168 l 92 165 m 109 155 l 106 155 l 109 155 q 117 152 112 149 q 106 149 119 143 l 106 155 l 109 155 m 106 149 l 103 149 l 106 149 q 103 149 104 145 l 106 149 m 76 30 q 76 27 80 28 l 76 30 l 76 27 l 76 30 m 71 27 q 76 22 77 27 q 65 16 73 14 q 71 24 66 23 l 71 27 l 71 24 l 71 27 z "},"<":{"ha":369,"x_min":37,"x_max":338,"o":"m 298 317 q 290 312 298 310 q 284 309 288 307 l 281 307 q 273 301 279 300 l 273 298 l 273 301 l 271 298 l 273 298 l 271 298 q 260 290 268 292 l 254 288 l 249 288 l 249 285 l 249 288 l 249 285 l 243 285 q 235 282 241 279 l 235 279 l 235 282 l 235 279 l 230 279 q 222 277 227 274 l 222 274 l 222 277 l 222 274 l 216 274 q 208 271 214 269 q 203 269 206 267 q 197 266 203 266 l 200 266 l 197 266 q 192 260 195 260 q 178 252 183 260 l 176 252 l 178 252 l 176 250 l 176 252 l 176 250 q 170 244 171 247 l 162 241 l 159 241 l 162 241 l 159 241 l 151 239 q 143 236 149 233 l 140 231 l 132 228 q 127 225 130 223 l 124 222 l 116 220 q 111 217 114 215 l 108 214 q 102 209 103 212 l 97 209 l 97 206 l 97 209 l 97 206 l 92 206 q 83 203 89 201 q 75 198 81 197 l 73 195 q 54 184 67 182 q 48 182 52 180 q 43 176 46 176 q 40 157 48 165 l 37 152 l 40 149 l 37 152 l 40 146 l 40 149 l 40 146 q 43 138 45 144 l 43 133 l 43 138 l 43 119 l 48 117 q 54 114 50 113 l 56 111 q 62 106 62 109 l 67 103 q 81 100 77 104 l 89 100 l 89 98 l 89 100 l 92 98 l 89 98 l 92 98 l 100 98 l 97 98 l 100 95 l 100 98 l 100 95 l 111 95 l 119 92 q 124 90 121 88 q 132 84 130 88 l 138 81 l 143 81 l 138 81 l 143 81 q 149 79 144 80 l 146 79 l 149 76 l 149 79 l 149 76 l 154 76 l 149 76 l 154 76 l 154 73 l 154 76 l 154 73 l 159 71 l 165 71 l 159 71 l 165 71 l 165 68 l 165 71 l 168 68 l 165 68 l 170 68 l 168 68 l 170 68 q 178 65 174 62 l 178 62 l 178 65 l 178 62 l 184 60 l 189 60 l 184 60 l 189 60 l 195 52 l 203 49 q 214 43 212 50 l 219 41 l 224 41 l 219 41 l 224 41 l 224 38 l 224 41 l 224 38 l 230 35 l 238 35 l 241 33 q 246 27 247 31 l 252 24 l 260 22 l 265 22 q 271 19 267 20 l 268 19 l 271 19 l 276 16 l 281 16 l 276 16 l 281 16 l 287 14 l 295 14 l 298 11 l 306 11 q 314 8 309 5 l 314 5 l 314 8 l 314 5 q 328 0 325 6 q 338 3 335 1 l 338 8 l 338 3 l 338 8 l 338 14 q 338 24 333 22 l 336 27 l 338 24 l 336 27 l 338 30 l 338 35 l 338 30 l 338 35 l 338 41 l 338 46 l 338 57 l 336 60 q 325 62 328 59 l 319 65 l 314 65 l 319 65 l 311 65 l 314 65 l 309 68 l 300 71 l 292 73 l 287 73 l 287 76 l 287 73 l 284 76 l 287 76 l 284 79 l 284 76 l 284 79 l 279 79 l 284 79 l 276 79 l 279 79 l 276 81 l 276 79 l 276 81 l 265 81 l 265 84 l 265 81 l 265 84 l 260 87 l 254 87 l 260 87 l 254 87 q 246 92 247 87 l 243 92 l 246 92 l 243 92 l 238 95 l 233 95 l 238 95 l 233 95 l 233 98 l 233 95 l 233 98 l 224 100 q 219 103 222 104 l 216 106 l 211 106 l 211 109 l 211 106 l 211 109 l 205 111 l 208 111 l 203 111 l 205 111 l 203 111 q 195 114 199 117 q 189 119 193 115 l 184 119 l 184 122 l 184 119 l 184 122 l 178 125 l 173 125 l 178 125 l 170 127 l 165 127 l 170 127 l 165 127 l 165 130 l 165 127 l 162 130 l 165 130 l 162 130 q 154 133 159 136 l 149 136 l 143 136 q 138 138 141 140 l 135 141 l 130 141 l 130 144 l 130 141 l 130 144 l 124 146 l 127 146 l 121 146 l 124 146 l 121 146 q 113 149 118 152 q 119 155 113 156 l 121 157 q 132 163 125 159 l 140 165 l 140 168 l 140 165 l 140 168 l 146 168 q 154 171 149 174 q 159 174 156 176 q 165 176 161 178 q 178 187 168 186 q 186 193 180 193 l 184 193 l 186 193 q 192 198 189 198 l 197 201 l 205 201 l 203 201 l 205 201 q 216 203 209 206 q 224 206 219 209 q 230 209 227 211 l 230 212 l 230 209 l 230 212 l 235 212 q 252 220 241 221 q 257 222 254 224 l 260 228 l 265 231 l 271 233 l 276 236 q 281 241 278 241 l 287 241 q 295 244 290 247 l 303 247 l 300 247 l 303 247 q 314 250 307 249 l 311 250 l 317 250 l 314 250 l 319 250 l 317 250 l 319 250 q 325 255 321 255 l 325 260 l 325 255 l 325 260 l 325 269 l 325 266 l 322 269 l 325 269 l 322 269 l 322 274 q 319 282 317 277 q 319 293 312 288 l 317 296 l 319 293 l 317 296 l 319 298 l 319 304 l 319 298 l 319 304 l 319 315 l 317 317 l 311 317 l 317 317 l 311 317 l 298 317 m 300 274 q 303 266 306 271 q 298 260 309 261 l 298 263 l 298 260 l 298 263 l 300 269 l 300 274 l 300 269 l 300 274 m 273 258 q 268 250 288 254 q 273 255 270 256 l 273 258 l 273 255 l 273 258 m 268 250 l 265 250 l 268 250 q 265 250 267 245 l 268 250 m 70 176 q 73 171 74 175 q 70 174 52 168 l 70 176 l 70 174 l 70 176 m 73 149 q 70 146 77 146 l 73 149 m 56 138 q 56 125 77 121 l 56 138 m 83 138 q 83 136 93 137 l 83 138 l 83 136 l 83 138 m 89 119 l 89 117 l 89 119 l 89 117 l 100 117 q 94 114 104 109 q 89 114 92 109 q 83 119 82 114 l 89 119 m 192 100 q 197 98 194 96 l 200 95 q 208 90 206 94 l 214 90 l 208 90 l 216 87 l 224 84 q 235 81 232 85 l 235 79 l 235 81 l 235 79 l 230 79 l 230 81 l 230 79 l 230 81 l 224 81 l 230 81 l 224 81 l 214 81 l 214 84 l 214 81 l 214 84 l 208 87 l 200 90 q 192 95 193 90 q 184 100 185 95 l 192 100 m 254 71 q 265 65 263 71 q 254 71 258 66 m 295 57 q 292 54 300 54 l 295 57 m 300 54 q 298 54 299 51 l 300 54 l 298 54 l 300 54 m 303 52 l 306 52 l 303 52 l 306 52 l 314 52 l 311 52 l 314 49 l 314 52 l 314 49 l 325 49 q 319 43 326 33 l 317 43 l 319 43 l 317 43 q 309 49 311 45 l 303 52 m 298 30 l 306 27 l 311 27 l 306 27 l 311 27 l 322 27 q 314 24 319 18 l 311 24 l 314 24 l 309 24 l 311 24 l 309 24 l 303 27 l 298 27 l 303 27 l 298 27 l 298 30 l 298 27 l 298 30 z "},"=":{"ha":349,"x_min":27,"x_max":329,"o":"m 33 195 l 33 198 l 33 195 q 28 187 27 195 l 28 190 l 28 184 l 28 187 l 28 184 q 33 179 33 182 q 44 176 41 180 l 44 174 l 44 176 q 41 163 43 171 l 41 168 l 41 160 l 41 163 l 41 160 q 44 149 42 153 l 44 133 l 44 136 l 44 133 l 47 125 l 55 122 q 66 122 61 130 l 68 122 l 66 122 l 68 122 q 82 119 75 123 l 87 122 l 93 122 l 101 122 l 106 125 l 112 125 l 117 122 l 115 122 l 117 122 q 128 122 124 125 l 131 122 l 128 122 l 131 122 q 136 125 133 127 l 150 125 l 158 122 l 161 122 l 158 122 l 163 122 l 161 122 l 166 122 l 163 122 l 166 122 q 180 119 176 123 q 188 122 182 125 l 199 122 l 201 122 l 199 122 l 204 122 l 201 122 l 204 122 l 210 119 l 215 119 l 210 119 l 218 119 l 215 119 l 220 119 l 218 119 l 223 119 l 220 119 l 223 119 q 234 119 230 123 l 237 122 l 242 122 q 253 125 250 123 l 256 122 l 258 125 l 258 122 l 258 125 l 258 122 l 264 122 l 258 122 l 264 122 l 275 122 q 280 125 277 127 q 291 130 283 132 l 291 133 l 291 130 l 291 133 l 294 138 l 294 144 l 294 138 l 294 144 l 288 146 l 286 152 l 286 157 l 283 165 l 280 165 l 283 165 l 280 165 l 280 171 q 277 179 275 174 q 272 184 273 181 l 267 184 l 272 184 l 264 184 l 267 184 l 264 182 l 264 184 l 264 182 l 256 182 l 256 179 l 256 182 l 253 179 l 256 179 l 250 179 l 253 179 l 250 179 q 242 182 247 184 l 234 182 l 229 184 l 220 184 l 218 184 l 220 184 l 218 184 l 212 184 q 207 187 212 186 l 210 187 l 207 187 l 199 187 l 201 187 l 199 190 l 199 187 l 199 190 l 188 190 q 180 187 185 184 l 180 190 l 180 187 l 180 190 l 166 190 l 155 190 l 147 190 l 136 190 l 134 187 l 136 190 l 134 187 l 128 190 q 117 190 121 186 l 115 190 l 117 190 l 115 190 l 104 190 l 96 193 l 87 193 l 79 193 l 74 195 l 66 195 l 58 195 l 60 195 l 58 198 l 58 195 l 58 198 l 47 198 l 33 198 l 33 195 m 112 174 l 115 174 l 112 174 l 117 174 l 115 174 l 120 174 l 117 174 l 123 174 l 120 174 l 125 174 l 123 174 l 125 174 q 139 171 132 175 l 144 168 l 139 168 l 134 168 l 128 168 q 117 171 121 168 l 109 168 l 109 171 l 109 168 l 112 174 m 245 146 l 250 144 l 256 144 l 250 144 l 256 144 q 242 141 261 132 l 242 144 l 242 141 l 245 146 m 115 71 l 115 73 l 115 71 l 106 71 l 109 71 l 106 71 q 96 68 103 65 q 90 65 94 63 q 85 62 88 60 l 82 57 q 71 60 75 56 l 68 54 l 66 49 l 66 35 l 68 35 l 66 35 l 68 35 l 68 22 q 66 11 68 19 l 66 16 l 68 8 q 79 0 78 9 l 85 0 l 79 0 l 87 3 l 93 3 l 98 3 l 104 3 l 117 3 l 123 3 l 128 3 q 139 5 132 6 l 144 5 q 150 8 146 10 l 161 8 l 166 11 l 169 8 l 174 8 l 188 8 l 193 8 l 204 8 l 210 11 l 218 11 l 223 11 l 229 11 l 234 11 l 239 11 l 253 11 l 256 11 l 253 11 l 256 11 q 264 8 259 5 l 272 8 l 277 8 q 291 5 284 9 l 302 5 l 307 3 l 310 5 l 318 5 l 315 5 l 318 5 q 326 8 321 11 l 329 11 q 326 22 328 18 l 321 22 l 326 22 l 321 22 l 321 27 q 318 38 315 31 q 315 49 313 41 q 313 54 311 51 q 299 62 302 54 l 294 62 l 299 62 l 294 62 l 294 60 l 294 62 l 294 60 l 288 60 l 283 60 l 272 60 l 269 62 l 261 60 l 258 62 l 248 62 l 237 62 l 229 62 l 218 62 l 210 62 l 201 62 l 193 62 q 188 65 191 66 l 180 65 l 174 65 q 166 71 168 66 l 163 71 l 166 71 l 161 71 l 163 71 l 161 71 q 147 73 151 70 l 136 73 l 131 73 l 125 73 l 115 73 l 115 71 z "},">":{"ha":352,"x_min":27,"x_max":328,"o":"m 68 317 q 76 312 67 310 q 81 309 78 307 l 84 307 q 92 301 86 300 l 92 298 l 92 301 l 95 298 l 92 298 l 95 298 q 106 290 98 292 l 111 288 l 117 288 l 117 285 l 117 288 l 117 285 l 122 285 q 130 282 125 279 l 130 279 l 130 282 l 130 279 l 136 279 q 144 277 138 274 l 144 274 l 144 277 l 144 274 l 149 274 q 157 271 152 269 q 163 269 159 267 q 168 266 163 266 l 165 266 l 168 266 q 174 260 170 260 q 187 252 182 260 l 190 252 l 187 252 l 190 250 l 190 252 l 190 250 q 195 244 195 247 l 203 241 l 206 241 l 203 241 l 206 241 l 214 239 q 222 236 217 233 l 225 231 l 233 228 q 239 225 235 223 l 241 222 l 250 220 q 255 217 252 215 l 258 214 q 263 209 262 212 l 269 209 l 269 206 l 269 209 l 269 206 l 274 206 q 282 203 277 201 q 290 198 284 197 l 293 195 q 312 184 298 182 q 317 182 314 180 q 323 176 319 176 q 326 157 317 165 l 328 152 l 326 149 l 328 152 l 326 146 l 326 149 l 326 146 q 323 138 320 144 l 323 133 l 323 138 l 323 119 l 317 117 q 312 114 315 113 l 309 111 q 304 106 303 109 l 298 103 q 285 100 289 104 l 277 100 l 277 98 l 277 100 l 274 98 l 277 98 l 274 98 l 266 98 l 269 98 l 266 95 l 266 98 l 266 95 l 255 95 l 247 92 q 241 90 245 88 q 233 84 235 88 l 228 81 l 222 81 l 228 81 l 222 81 q 217 79 221 80 l 220 79 l 217 76 l 217 79 l 217 76 l 212 76 l 217 76 l 212 76 l 212 73 l 212 76 l 212 73 l 206 71 l 201 71 l 206 71 l 201 71 l 201 68 l 201 71 l 198 68 l 201 68 l 195 68 l 198 68 l 195 68 q 187 65 192 62 l 187 62 l 187 65 l 187 62 l 182 60 l 176 60 l 182 60 l 176 60 l 171 52 l 163 49 q 152 43 154 50 l 146 41 l 141 41 l 146 41 l 141 41 l 141 38 l 141 41 l 141 38 l 136 35 l 127 35 l 125 33 q 119 27 119 31 l 114 24 l 106 22 l 100 22 q 95 19 99 20 l 98 19 l 95 19 l 90 16 l 84 16 l 90 16 l 84 16 l 79 14 l 71 14 l 68 11 l 60 11 q 52 8 56 5 l 52 5 l 52 8 l 52 5 q 38 0 41 6 q 27 3 31 1 l 27 8 l 27 3 l 27 8 l 27 14 q 27 24 33 22 l 30 27 l 27 24 l 30 27 l 27 30 l 27 35 l 27 30 l 27 35 l 27 41 l 27 46 l 27 57 l 30 60 q 41 62 37 59 l 46 65 l 52 65 l 46 65 l 54 65 l 52 65 l 57 68 l 65 71 l 73 73 l 79 73 l 79 76 l 79 73 l 81 76 l 79 76 l 81 79 l 81 76 l 81 79 l 87 79 l 81 79 l 90 79 l 87 79 l 90 81 l 90 79 l 90 81 l 100 81 l 100 84 l 100 81 l 100 84 l 106 87 l 111 87 l 106 87 l 111 87 q 119 92 119 87 l 122 92 l 119 92 l 122 92 l 127 95 l 133 95 l 127 95 l 133 95 l 133 98 l 133 95 l 133 98 l 141 100 q 146 103 143 104 l 149 106 l 155 106 l 155 109 l 155 106 l 155 109 l 160 111 l 157 111 l 163 111 l 160 111 l 163 111 q 171 114 166 117 q 176 119 172 115 l 182 119 l 182 122 l 182 119 l 182 122 l 187 125 l 193 125 l 187 125 l 195 127 l 201 127 l 195 127 l 201 127 l 201 130 l 201 127 l 203 130 l 201 130 l 203 130 q 212 133 207 136 l 217 136 l 222 136 q 228 138 224 140 l 231 141 l 236 141 l 236 144 l 236 141 l 236 144 l 241 146 l 239 146 l 244 146 l 241 146 l 244 146 q 252 149 248 152 q 247 155 252 156 l 244 157 q 233 163 240 159 l 225 165 l 225 168 l 225 165 l 225 168 l 220 168 q 212 171 217 174 q 206 174 210 176 q 201 176 204 178 q 187 187 198 186 q 179 193 185 193 l 182 193 l 179 193 q 174 198 177 198 l 168 201 l 160 201 l 163 201 l 160 201 q 149 203 157 206 q 141 206 146 209 q 136 209 139 211 l 136 212 l 136 209 l 136 212 l 130 212 q 114 220 125 221 q 109 222 112 224 l 106 228 l 100 231 l 95 233 l 90 236 q 84 241 87 241 l 79 241 q 71 244 76 247 l 62 247 l 65 247 l 62 247 q 52 250 58 249 l 54 250 l 49 250 l 52 250 l 46 250 l 49 250 l 46 250 q 41 255 44 255 l 41 260 l 41 255 l 41 260 l 41 269 l 41 266 l 43 269 l 41 269 l 43 269 l 43 274 q 46 282 49 277 q 46 293 54 288 l 49 296 l 46 293 l 49 296 l 46 298 l 46 304 l 46 298 l 46 304 l 46 315 l 49 317 l 54 317 l 49 317 l 54 317 l 68 317 m 65 274 q 62 266 60 271 q 68 260 56 261 l 68 263 l 68 260 l 68 263 l 65 269 l 65 274 l 65 269 l 65 274 m 92 258 q 98 250 77 254 q 92 255 96 256 l 92 258 l 92 255 l 92 258 m 98 250 l 100 250 l 98 250 q 100 250 99 245 l 98 250 m 296 176 q 293 171 292 175 q 296 174 313 168 l 296 176 l 296 174 l 296 176 m 293 149 q 296 146 288 146 l 293 149 m 309 138 q 309 125 289 121 l 309 138 m 282 138 q 282 136 273 137 l 282 138 l 282 136 l 282 138 m 277 119 l 277 117 l 277 119 l 277 117 l 266 117 q 271 114 261 109 q 277 114 274 109 q 282 119 283 114 l 277 119 m 182 100 q 168 95 174 100 l 163 95 l 168 95 l 160 92 l 155 90 l 157 90 l 155 90 l 146 87 l 141 84 q 130 79 132 85 l 136 81 l 141 81 l 136 81 l 144 81 l 141 81 l 144 81 q 157 87 155 81 l 165 90 q 174 95 172 90 q 182 100 180 95 m 111 71 l 103 71 q 111 68 98 62 l 111 71 l 111 68 l 111 71 m 71 57 q 73 54 66 54 l 71 57 m 65 54 q 68 54 66 51 l 65 54 l 68 54 l 65 54 m 62 52 l 60 52 l 62 52 l 60 52 l 52 52 l 54 52 l 52 49 l 52 52 l 52 49 l 41 49 q 46 43 40 33 l 49 43 l 46 43 l 49 43 q 57 49 55 45 l 62 52 m 68 30 l 60 27 l 54 27 l 60 27 l 54 27 l 43 27 q 52 24 47 18 l 54 24 l 52 24 l 57 24 l 54 24 l 57 24 l 62 27 l 68 27 l 62 27 l 68 27 l 68 30 l 68 27 l 68 30 z "},"?":{"ha":254,"x_min":24,"x_max":252,"o":"m 140 426 l 135 426 l 135 423 l 135 426 l 132 423 l 135 423 l 130 423 l 132 423 l 130 423 q 124 418 127 418 l 119 418 l 108 418 q 100 415 105 412 l 97 412 l 92 410 q 86 407 90 405 q 81 401 86 404 l 83 404 l 81 401 l 75 401 q 67 396 73 395 l 67 393 l 67 396 l 64 393 l 67 393 l 64 393 q 56 385 62 388 l 56 380 l 56 385 l 56 380 l 51 380 q 48 369 50 377 l 45 369 l 48 369 l 45 369 q 40 363 43 363 l 40 358 l 40 363 l 40 358 q 35 353 39 357 l 35 347 l 35 353 l 32 345 l 32 339 l 29 339 l 32 339 q 26 328 28 336 l 26 334 l 26 328 l 24 328 l 26 328 l 24 328 l 24 323 l 24 328 l 24 312 q 29 307 29 310 q 56 293 51 313 l 59 293 l 56 293 l 62 293 l 59 293 l 62 293 q 73 293 65 288 q 78 309 68 304 q 83 315 80 315 l 83 317 l 83 315 l 86 317 l 83 317 l 86 317 q 105 328 90 328 q 113 331 108 334 l 113 334 l 113 331 l 113 334 l 119 334 l 119 336 l 119 334 l 119 336 l 124 336 l 130 336 l 140 336 l 146 339 l 146 336 l 146 339 l 146 336 q 168 323 165 338 q 173 315 174 321 q 178 309 178 313 l 178 301 l 176 301 l 178 301 l 176 298 l 176 301 l 176 298 q 173 290 170 295 l 170 288 l 168 282 l 165 274 l 165 277 l 162 274 l 165 274 l 162 274 l 162 269 l 162 274 l 162 269 l 159 269 l 162 269 q 157 258 159 266 l 157 263 l 157 258 l 151 255 q 146 250 149 250 l 146 244 l 146 250 l 146 244 q 143 239 142 242 l 140 239 l 143 239 l 140 239 q 132 231 138 233 l 130 222 q 124 212 130 214 l 124 206 l 124 212 l 124 187 l 127 182 l 127 171 l 130 168 l 127 171 l 130 168 l 130 155 q 132 144 133 151 l 135 144 l 132 144 l 135 141 l 135 144 l 135 141 l 146 141 l 146 125 l 157 125 l 159 130 l 159 127 l 159 130 l 162 136 l 162 141 l 162 136 l 162 141 l 168 141 l 173 141 l 173 138 l 173 141 l 173 138 l 178 138 l 173 138 l 178 138 l 189 138 l 197 141 l 200 149 l 197 155 l 197 163 l 197 168 l 197 174 l 197 179 l 197 193 l 203 195 l 205 203 q 211 209 208 210 l 214 217 q 219 222 216 223 l 219 225 l 219 222 l 219 225 l 222 231 l 222 236 l 222 231 l 222 236 q 224 244 227 239 q 227 250 229 246 l 230 250 l 227 250 l 230 250 l 233 255 l 233 263 l 235 266 q 241 277 238 274 l 243 285 l 243 290 q 249 296 245 292 l 249 301 l 249 296 l 249 301 l 249 307 l 249 317 l 252 317 l 249 317 l 252 317 l 249 323 l 249 328 l 249 334 l 249 339 l 249 353 q 246 361 243 355 l 243 361 l 246 361 l 243 361 l 243 366 q 241 377 240 370 l 235 380 l 238 380 l 235 382 l 235 380 l 235 382 q 227 391 230 385 q 216 404 218 393 q 211 410 210 404 q 208 415 206 412 l 203 415 l 208 415 l 203 415 q 197 418 201 419 l 195 420 l 189 423 l 184 423 l 189 423 l 181 426 l 173 429 l 168 429 l 173 429 l 168 429 l 162 429 l 157 429 l 143 429 l 140 426 m 165 418 l 162 418 l 165 418 q 170 415 167 414 q 181 410 178 412 l 184 412 q 184 401 187 406 l 178 404 l 170 404 l 173 404 l 168 404 l 170 404 l 168 404 q 159 407 164 410 l 151 407 l 154 407 l 151 407 q 143 410 148 412 q 157 415 147 418 l 165 418 m 113 404 q 108 396 152 398 q 113 404 108 402 m 81 391 q 89 380 93 392 l 83 380 q 78 377 83 377 l 81 377 l 78 377 q 73 372 76 372 q 64 366 71 366 l 67 366 l 64 366 q 81 385 66 382 l 81 391 l 81 385 l 81 391 m 130 366 q 149 358 146 370 l 140 361 l 138 358 l 138 361 l 138 358 l 138 361 l 132 361 l 138 361 l 130 361 l 132 361 l 130 363 l 130 361 l 130 363 l 119 363 q 127 369 121 368 l 130 366 m 176 342 q 189 334 188 344 q 189 328 194 331 l 186 320 l 186 323 l 186 320 l 186 323 q 184 328 182 325 q 181 334 179 330 q 178 339 176 336 l 176 342 m 224 326 q 227 320 229 324 q 230 315 232 318 q 233 309 235 313 q 233 301 239 305 q 227 290 233 292 l 227 296 l 227 301 l 227 315 q 224 326 224 319 m 178 269 q 178 266 182 267 l 178 269 l 178 266 l 178 269 m 178 266 l 176 266 l 178 266 q 176 266 177 256 l 178 266 m 176 260 l 173 260 l 176 260 q 173 260 174 256 l 176 260 m 168 250 q 170 244 172 248 q 168 250 166 246 m 138 203 q 143 184 146 204 l 140 184 l 143 184 l 140 187 l 140 184 l 138 190 l 140 187 l 138 190 l 138 203 m 184 171 l 181 171 l 184 171 l 184 152 q 176 163 164 151 l 176 168 l 176 163 l 176 168 l 181 168 l 181 171 l 181 168 l 184 171 m 146 98 q 140 95 144 93 l 138 92 q 132 87 136 87 l 132 81 l 132 87 l 132 81 l 130 81 l 132 81 l 130 81 q 127 71 130 74 l 130 62 l 127 62 l 130 62 l 124 60 l 124 54 l 124 60 l 124 54 l 119 52 l 119 46 l 119 52 l 119 27 l 121 27 l 119 27 l 121 24 l 121 27 l 121 24 l 124 16 l 127 16 l 124 16 l 127 14 l 127 16 l 127 14 q 135 5 132 12 l 140 3 l 149 3 l 149 0 l 149 3 l 149 0 l 154 0 l 149 0 l 154 0 l 168 0 q 173 5 170 5 l 184 5 q 189 8 186 10 l 192 11 q 200 19 194 18 l 200 24 l 200 19 l 200 24 l 203 24 l 200 24 l 203 24 l 205 33 l 205 38 l 205 43 l 205 49 l 205 62 q 203 73 202 66 q 197 79 197 75 q 186 90 185 80 l 184 92 l 178 92 l 184 92 l 178 92 l 178 95 l 178 92 l 178 95 l 170 98 l 165 98 l 159 98 l 146 98 m 159 81 q 159 79 163 80 l 159 81 l 159 79 l 159 81 m 159 79 l 157 79 l 159 79 q 157 79 158 75 l 159 79 m 146 19 q 143 19 144 16 l 146 19 l 143 19 l 146 19 z "},"@":{"ha":458,"x_min":31,"x_max":427,"o":"m 256 491 q 251 488 254 486 l 245 488 l 235 488 l 232 486 l 235 488 l 232 486 l 224 486 l 227 486 l 221 483 l 224 486 l 221 483 l 208 483 l 208 480 l 208 483 l 208 480 l 202 480 l 202 477 l 202 480 l 202 477 l 197 477 q 189 475 194 472 q 183 472 186 470 q 178 467 182 469 l 180 467 l 178 467 l 170 464 q 159 461 166 458 l 159 458 l 159 461 l 159 458 q 151 453 153 458 l 142 450 l 145 453 l 142 450 l 137 450 q 126 448 133 447 q 121 445 124 443 q 110 439 117 443 q 99 431 106 431 q 91 426 97 425 q 85 420 91 423 l 83 412 l 80 412 l 83 412 l 80 412 q 69 399 74 404 l 66 391 q 61 382 66 384 q 56 372 61 374 l 56 363 q 53 358 52 361 l 50 350 q 47 342 45 347 l 45 339 q 39 328 42 331 l 37 320 q 34 307 38 311 l 34 293 l 31 290 l 34 285 l 31 277 l 34 277 l 31 277 l 34 277 l 34 252 l 34 255 l 31 252 l 34 252 l 31 252 l 31 220 q 34 209 35 216 l 34 193 q 37 187 39 191 l 37 165 q 39 155 40 161 l 39 152 l 39 155 l 39 152 q 45 146 45 150 l 47 141 l 47 133 q 53 125 54 131 q 58 114 58 123 q 61 106 64 111 q 64 100 66 104 l 66 98 q 69 92 71 96 q 72 87 74 90 q 77 81 77 85 q 83 73 78 75 l 85 65 l 91 62 l 91 54 q 99 43 100 51 l 102 41 q 107 33 109 39 q 115 24 113 31 l 123 22 l 132 19 q 140 16 135 14 l 140 14 l 140 16 l 140 14 l 148 11 l 145 11 l 148 11 l 156 11 l 153 11 l 156 8 l 156 11 l 156 8 l 167 8 l 167 5 l 167 8 l 167 5 l 172 3 l 180 0 l 191 0 q 197 3 191 3 l 194 3 l 199 3 l 197 3 l 202 3 l 199 3 l 202 3 l 210 5 q 218 8 213 11 q 240 16 224 19 l 243 19 l 248 19 q 259 22 252 22 l 264 22 l 275 22 l 278 24 l 275 22 l 278 24 l 283 24 l 289 24 q 297 27 292 30 l 300 33 l 308 35 q 313 41 313 38 l 321 43 q 327 46 323 48 q 332 52 329 52 l 338 52 l 340 57 l 340 54 l 343 57 l 340 57 l 346 57 l 343 57 l 346 57 q 354 62 348 62 l 351 62 l 357 62 l 354 62 l 357 62 q 362 68 359 68 l 362 73 l 362 68 l 362 73 q 365 79 363 75 l 365 76 l 368 79 l 365 79 l 368 79 l 368 84 l 368 79 l 368 84 l 370 84 l 368 84 l 370 84 l 373 90 l 373 95 l 373 90 l 373 95 q 378 103 378 97 l 378 106 l 378 103 l 376 109 l 378 106 l 376 109 l 378 111 l 378 122 l 381 125 l 384 133 q 392 146 384 143 q 397 152 392 153 l 400 157 l 400 155 l 400 160 l 400 157 l 400 160 l 397 168 q 387 171 390 168 q 381 168 385 166 q 376 165 379 163 l 373 157 l 368 157 l 368 155 l 368 157 l 365 155 l 368 155 l 365 155 q 357 146 363 149 q 346 136 355 134 q 340 130 344 130 q 332 119 340 121 q 324 109 334 109 q 311 98 321 99 l 311 95 l 311 98 l 311 95 l 305 92 l 308 92 l 305 92 q 300 87 303 87 q 292 81 298 80 q 281 73 288 73 q 273 68 279 66 q 262 62 270 61 l 262 60 l 262 62 l 262 60 l 256 60 q 245 57 252 56 l 245 54 l 245 57 l 245 54 l 237 54 l 237 52 l 237 54 l 235 52 l 237 52 l 235 52 q 221 54 228 50 l 216 52 l 213 54 l 205 54 l 202 60 l 202 57 l 202 62 l 202 60 l 202 62 q 197 68 197 64 l 191 68 l 197 68 l 191 68 q 183 68 187 62 l 175 71 l 178 71 l 175 71 q 167 76 169 72 l 161 79 q 151 84 153 78 q 142 90 144 84 q 132 98 134 90 q 126 106 125 100 q 121 111 119 106 l 115 114 l 118 114 l 115 117 l 115 114 l 115 117 q 110 122 110 119 q 104 127 104 124 q 94 141 95 130 q 91 146 89 143 l 88 146 l 91 146 l 88 146 l 88 152 l 85 152 l 88 152 l 85 155 l 85 152 l 83 157 l 85 155 l 83 157 l 83 171 l 80 171 l 83 171 l 80 171 l 80 176 l 80 182 l 80 193 l 80 195 l 80 193 l 80 195 q 77 206 75 199 l 75 209 l 75 220 l 72 220 l 75 220 l 72 220 l 72 225 l 72 231 l 72 241 l 80 239 q 83 250 76 247 l 80 252 l 83 250 l 80 255 l 80 252 l 80 255 q 75 260 75 257 l 77 269 q 83 288 75 279 l 83 293 l 83 288 l 83 293 l 85 301 l 85 307 l 85 301 l 85 309 l 85 307 l 85 309 q 88 317 91 313 l 94 323 l 94 320 l 94 323 q 99 336 93 334 q 104 345 99 343 q 110 353 104 351 q 115 358 110 359 q 126 377 115 372 q 134 388 127 386 q 140 393 134 395 l 142 396 q 148 401 142 403 l 151 404 q 156 410 151 411 l 156 412 l 156 410 l 156 412 l 161 415 l 159 415 l 161 415 q 167 420 163 420 q 172 423 169 425 l 175 426 l 178 431 q 180 426 182 429 l 183 426 l 180 426 l 183 426 l 180 434 l 186 434 l 189 439 l 194 439 q 202 442 197 445 l 205 445 l 213 445 l 216 448 l 221 448 l 227 448 l 232 448 l 245 448 l 248 448 l 245 448 l 251 448 l 248 448 l 251 450 l 251 448 l 254 450 l 251 450 l 256 450 l 254 450 l 259 450 l 256 450 l 259 450 q 273 448 269 451 l 283 448 l 283 445 l 283 448 l 283 445 l 292 442 l 289 442 l 294 439 q 316 429 310 441 l 319 429 l 316 429 l 321 429 l 319 429 l 324 426 q 335 418 333 425 q 343 410 342 416 l 349 410 l 343 410 l 349 410 l 349 404 l 351 404 l 349 404 l 351 404 q 357 399 354 399 l 357 391 l 357 393 l 357 391 q 362 385 363 391 q 365 380 367 383 l 368 380 l 365 380 l 368 377 l 368 380 l 368 377 l 370 369 q 373 358 376 366 l 376 358 l 373 358 l 376 355 l 376 358 l 376 355 l 378 347 l 378 336 l 381 334 l 378 336 l 381 334 q 384 315 380 321 l 381 312 l 381 271 l 378 269 q 373 260 377 262 l 370 252 q 365 244 370 245 q 357 231 365 234 q 351 225 355 225 l 351 222 l 351 225 l 351 222 q 343 212 349 214 l 346 212 l 343 212 q 335 203 341 206 q 324 195 332 195 l 324 193 l 324 195 l 321 193 l 324 193 l 319 193 l 321 193 l 319 193 q 311 187 317 189 l 305 187 l 297 187 l 300 187 l 294 187 l 297 187 l 294 187 q 286 190 291 193 l 281 190 l 281 198 l 283 203 l 286 212 l 289 220 l 289 231 l 292 239 l 292 247 l 292 252 l 292 260 l 292 258 l 292 263 l 292 260 l 292 263 q 294 271 297 267 l 294 277 l 294 282 l 294 288 l 294 301 l 292 301 l 294 301 l 292 301 l 292 307 q 281 320 282 309 q 283 326 285 322 l 286 334 l 286 331 l 286 334 q 292 353 284 344 l 292 363 l 289 363 l 292 363 l 289 363 l 283 363 l 273 363 l 267 369 l 270 369 l 264 366 l 264 361 l 264 366 l 264 361 q 262 355 263 359 l 262 358 l 259 353 l 259 347 l 259 353 l 259 345 l 259 347 l 259 345 q 256 336 254 341 l 251 339 l 245 345 l 248 345 l 245 347 l 245 345 l 245 347 q 240 353 240 349 q 235 358 235 355 l 232 358 l 235 358 l 229 361 q 224 366 223 363 l 221 366 l 224 366 l 221 366 q 210 374 214 370 l 202 377 l 197 377 l 202 377 l 197 377 l 186 377 q 180 374 184 372 q 175 369 176 372 l 167 366 l 167 363 l 167 366 l 164 363 l 167 363 l 164 361 l 164 363 l 164 361 q 159 355 159 358 l 153 355 l 151 350 l 145 347 l 148 347 l 145 347 q 140 345 143 342 l 137 342 q 132 336 135 336 l 132 331 l 132 336 l 132 331 l 126 328 q 121 320 126 321 q 113 307 121 310 l 110 298 l 110 301 l 110 296 l 110 298 l 110 296 q 107 282 111 286 q 104 266 107 275 l 104 271 l 104 252 l 107 252 l 104 252 l 107 252 l 107 236 l 110 233 l 110 225 l 110 228 l 110 225 q 113 217 115 222 l 115 214 l 118 206 l 118 201 l 121 201 l 118 201 l 121 201 l 121 195 q 123 187 126 193 q 126 182 128 185 l 132 179 q 140 171 136 175 l 145 168 l 142 168 l 145 168 q 153 163 151 167 l 159 160 l 164 160 l 159 160 l 167 160 l 164 160 l 167 157 l 167 160 l 167 157 l 178 157 l 178 160 l 178 157 l 178 160 l 183 160 l 189 160 q 199 163 193 163 l 202 168 l 202 165 l 205 168 l 202 168 l 205 171 l 205 168 l 205 171 q 210 176 210 174 q 218 176 214 180 l 218 184 q 229 190 224 190 l 227 190 l 232 190 l 229 190 l 232 190 l 235 195 q 240 193 237 191 l 243 179 l 243 182 l 243 179 q 245 174 248 177 q 248 168 250 172 q 254 160 255 166 q 262 152 259 158 q 273 149 269 152 l 281 152 l 283 149 l 292 149 l 292 146 l 292 149 l 292 146 l 297 146 l 292 146 l 297 146 l 297 144 l 297 146 l 297 144 l 308 144 l 308 146 l 308 144 l 308 146 l 316 146 l 313 146 l 316 146 q 327 149 319 152 l 327 152 l 327 149 l 327 152 l 332 152 q 338 155 334 157 q 343 157 340 159 q 349 160 345 162 q 354 163 351 165 l 357 171 l 359 171 l 357 171 l 359 171 l 368 174 l 370 182 l 376 184 q 381 190 378 191 l 381 193 l 381 190 l 381 193 l 387 195 l 389 201 l 395 206 l 395 203 l 397 209 q 406 220 398 218 l 408 225 l 411 233 l 411 231 l 414 236 l 414 241 l 414 236 l 414 244 l 414 241 l 414 244 q 416 252 419 248 l 419 255 l 419 263 l 422 266 l 422 271 l 422 266 l 422 271 l 422 285 l 425 288 l 425 293 l 425 298 l 425 307 l 425 304 l 427 307 l 425 307 l 427 307 l 427 317 l 427 331 q 425 336 422 333 l 422 345 l 425 342 l 422 347 l 422 345 l 422 350 l 422 347 l 422 353 l 422 350 l 422 353 q 416 361 418 355 l 416 363 l 416 361 l 416 366 l 416 363 l 416 369 l 416 366 l 416 372 l 416 369 l 416 372 q 411 380 412 374 l 411 388 q 406 399 404 391 l 400 401 l 400 415 q 387 426 387 416 q 378 431 380 426 l 373 434 q 362 442 364 435 q 354 456 351 445 q 351 461 349 458 l 349 461 l 351 461 l 349 461 q 343 456 347 456 l 340 461 q 327 467 330 460 l 321 469 q 316 475 319 474 q 308 480 309 475 l 305 480 l 308 480 l 302 483 q 289 488 292 482 l 286 488 l 289 488 l 286 488 l 281 488 l 267 488 q 256 491 260 488 m 251 475 l 248 475 l 254 475 l 251 475 l 256 475 l 254 475 l 259 475 l 256 475 l 262 475 l 259 475 l 262 475 l 267 475 l 273 475 l 283 475 l 283 472 l 283 475 l 283 472 l 292 469 q 300 464 298 469 l 305 461 q 313 456 312 461 q 321 450 320 456 l 311 450 l 308 453 l 302 456 q 292 464 294 456 l 283 464 l 283 461 l 283 464 l 281 461 l 283 461 l 278 461 l 281 461 l 278 461 q 270 464 275 467 l 259 467 l 262 467 l 259 467 l 245 467 q 235 469 238 466 l 235 472 l 235 469 l 235 472 q 248 475 241 471 l 251 475 m 161 437 l 159 437 l 161 437 q 159 437 160 428 l 161 437 m 346 429 l 343 429 l 349 429 l 346 429 q 354 426 350 427 l 351 426 l 354 423 l 354 426 l 354 423 q 359 418 359 421 q 365 412 365 416 l 370 412 l 365 412 l 370 412 l 370 407 l 376 407 l 370 407 l 378 404 l 378 399 l 381 399 l 378 399 l 381 399 l 381 393 q 384 385 387 391 l 387 385 l 384 385 l 387 385 l 387 369 q 389 363 389 369 l 389 366 l 389 361 l 389 363 l 389 358 l 389 361 l 389 358 l 392 350 l 387 350 l 387 355 l 387 361 l 384 361 l 387 361 l 384 361 l 384 369 l 384 366 l 384 369 q 381 380 378 372 q 376 388 374 382 q 368 401 366 391 l 362 404 l 362 410 q 354 420 353 413 q 343 429 345 423 l 346 429 m 102 382 q 96 369 111 375 l 96 366 l 96 369 l 96 366 q 102 377 87 370 l 102 382 l 102 377 l 102 382 m 408 361 l 406 361 l 408 361 q 406 361 407 347 l 408 361 m 408 350 q 408 336 417 343 l 408 350 m 199 334 q 213 328 211 335 l 218 326 l 218 317 q 221 312 223 315 l 221 304 q 224 298 226 302 l 224 247 q 221 241 220 245 l 218 239 q 213 231 218 231 q 205 220 212 222 q 199 214 205 213 l 197 209 l 197 212 l 197 209 q 191 203 192 206 l 178 206 l 180 206 l 178 209 l 178 206 l 178 209 l 172 212 q 159 228 159 214 l 156 231 l 159 231 l 156 231 l 159 231 l 161 239 l 161 244 l 161 239 l 161 244 l 156 244 l 161 244 l 156 244 l 156 247 l 156 244 l 156 247 l 156 260 q 159 274 156 268 l 159 271 l 159 277 l 159 274 l 159 277 l 161 285 q 167 296 161 292 q 175 307 168 304 q 186 317 178 317 q 191 323 188 323 l 191 326 l 191 323 l 194 326 l 191 326 l 194 328 l 194 326 l 194 328 q 199 334 199 331 m 411 334 q 416 315 420 327 l 411 315 l 411 320 l 411 334 m 153 309 l 151 309 l 153 309 q 151 309 152 300 l 153 309 m 286 301 l 286 298 l 286 301 l 286 296 l 286 298 l 286 293 l 286 296 l 286 290 l 286 293 l 286 290 q 289 279 287 283 q 286 271 283 276 q 283 252 288 259 l 283 241 l 281 239 l 281 222 l 281 225 l 281 222 q 278 214 275 219 l 273 212 l 273 222 l 273 228 l 273 233 l 273 244 l 273 250 l 273 263 l 273 266 l 273 263 l 273 266 l 275 271 l 275 277 l 275 271 l 275 277 l 275 282 l 275 290 l 275 288 l 278 290 l 275 290 l 278 290 l 278 304 l 286 301 m 414 304 l 411 304 l 414 301 l 414 304 l 414 301 q 411 288 415 294 l 411 293 l 411 304 l 414 304 m 148 301 l 145 301 l 148 301 q 145 301 146 292 l 148 301 m 408 285 q 411 279 412 283 q 408 285 407 281 m 243 271 q 245 260 248 268 l 243 260 l 245 260 l 243 260 l 243 271 m 408 266 l 406 266 l 408 266 q 406 266 407 257 l 408 266 m 123 260 q 123 247 132 254 l 123 260 m 243 260 l 240 260 l 243 260 q 240 260 241 241 l 243 260 m 254 206 l 254 201 l 256 201 l 254 201 l 256 201 l 259 193 l 256 195 l 259 193 l 259 179 q 262 171 264 176 q 256 179 256 174 q 254 190 251 182 l 251 190 l 254 190 l 251 190 l 251 195 q 248 206 245 199 l 254 206 m 332 171 q 330 165 345 168 l 332 171 m 330 165 q 324 165 327 161 l 330 165 m 349 100 q 351 95 353 99 q 349 100 341 83 m 346 90 l 343 90 l 346 90 l 346 76 q 343 90 312 50 l 346 90 m 91 84 q 96 79 94 83 l 96 81 l 99 79 l 96 79 l 99 76 l 99 79 l 99 76 q 107 68 104 74 l 113 68 l 107 68 l 113 68 l 113 62 q 118 57 115 62 l 118 60 l 118 57 q 129 46 126 51 l 129 49 l 132 46 l 129 46 l 132 43 l 132 46 l 134 43 l 132 43 l 134 43 q 140 38 137 39 l 137 33 l 134 35 q 118 46 121 35 q 110 54 109 46 q 104 62 103 56 q 99 68 98 62 q 96 73 94 70 q 94 79 92 75 q 91 84 89 81 m 313 79 q 313 76 317 77 l 313 79 l 313 76 l 313 79 m 308 76 q 313 71 315 76 l 305 68 l 308 76 m 286 57 q 286 54 290 56 l 286 57 l 286 54 l 286 57 m 281 54 q 281 52 290 53 l 281 54 l 281 52 l 281 54 m 275 52 q 270 46 291 47 q 275 52 272 52 m 175 38 q 175 33 185 34 l 175 38 m 142 35 q 140 35 141 32 l 142 35 l 140 35 l 142 35 m 202 27 l 199 27 l 205 27 l 202 27 l 205 27 l 210 24 l 216 24 l 210 24 l 216 24 q 210 19 216 18 l 210 16 l 210 19 l 210 16 l 205 16 q 197 14 202 11 l 197 11 l 197 14 l 194 11 l 197 11 l 194 11 q 180 14 187 9 q 175 19 174 14 l 180 19 l 180 22 l 180 19 l 180 22 l 186 22 l 199 22 l 199 27 l 199 22 l 199 27 l 202 27 z "},"A":{"ha":663,"x_min":18,"x_max":658,"o":"m 338 618 q 332 616 336 614 l 327 616 l 313 616 q 302 613 309 612 l 300 613 l 302 613 l 300 613 q 289 610 292 612 l 286 613 q 278 613 282 610 l 270 613 q 245 605 269 600 l 245 608 l 245 605 l 245 608 l 240 608 l 245 608 l 240 608 l 240 597 l 243 594 l 248 594 l 243 594 l 251 594 l 248 594 l 251 594 q 259 591 254 589 l 259 583 l 256 581 q 251 567 257 570 l 251 562 l 251 567 l 251 562 l 248 562 l 251 562 q 245 551 248 559 l 245 556 q 243 540 245 548 l 243 545 l 240 537 l 237 529 l 237 524 l 237 529 l 237 521 l 237 524 l 237 521 q 235 513 232 517 q 231 508 231 511 q 227 502 231 505 q 224 488 226 497 q 218 483 222 487 l 218 477 l 218 483 l 218 477 q 210 467 216 469 q 208 456 211 459 l 208 450 l 205 450 l 208 450 q 202 439 204 448 l 202 445 l 199 437 l 199 431 l 199 437 l 199 429 l 199 431 l 199 429 q 197 420 194 425 l 194 420 l 197 420 l 194 420 q 191 407 193 416 q 189 401 187 405 l 186 396 l 183 391 l 180 385 l 178 377 l 178 380 l 175 377 l 178 377 l 175 377 q 170 366 175 368 l 170 361 l 170 366 l 167 353 q 163 348 163 351 q 161 336 163 345 q 159 328 157 334 l 159 331 l 156 326 l 153 317 l 151 312 q 145 304 149 306 q 142 293 144 301 l 142 298 l 142 293 l 140 293 l 142 293 l 140 290 l 140 293 l 140 288 l 140 290 l 140 288 q 137 279 134 284 q 129 269 134 271 l 132 269 l 129 269 l 126 263 q 123 250 125 259 l 123 255 l 123 247 l 123 250 l 123 247 q 121 239 118 243 l 118 239 l 121 239 l 118 239 l 118 233 l 118 239 l 118 231 l 118 233 l 115 231 l 118 231 l 115 231 l 115 220 q 113 214 111 218 q 110 209 109 212 q 107 203 106 207 q 102 195 106 197 l 99 187 l 99 190 l 99 184 l 99 187 l 99 184 q 96 176 94 181 l 94 176 l 96 176 l 94 176 l 91 168 q 85 160 91 161 q 84 150 86 153 q 80 138 82 146 l 80 144 l 80 138 q 77 133 76 136 l 75 133 l 77 133 l 75 133 l 72 125 l 72 127 l 72 125 l 64 117 l 64 109 l 61 109 l 64 109 l 61 109 l 58 103 l 58 106 q 56 92 58 100 l 56 98 l 56 90 l 56 92 l 56 90 q 53 81 50 86 q 50 73 49 79 l 50 76 l 47 71 l 45 62 l 42 54 l 39 46 l 39 49 l 37 43 l 34 35 l 28 35 l 18 35 l 20 27 q 31 19 30 28 l 34 19 l 31 19 l 34 19 q 42 16 37 14 l 50 16 l 47 16 l 53 19 l 50 16 l 53 19 l 66 19 l 66 16 l 66 19 l 66 16 l 77 16 l 85 16 l 83 16 l 85 14 l 85 16 l 85 14 l 99 14 l 104 11 l 110 8 l 115 8 l 123 8 l 129 5 l 134 3 l 140 3 l 134 3 l 140 3 q 153 0 146 4 l 164 0 q 170 3 166 5 l 175 3 q 186 5 179 6 q 199 14 189 15 l 199 27 l 202 33 l 205 41 l 208 46 l 208 52 l 208 46 l 208 54 l 208 52 l 210 54 l 208 54 l 210 54 l 210 65 l 213 73 l 213 81 q 216 87 217 83 l 218 92 l 221 98 l 221 106 q 224 111 225 108 l 227 117 l 227 125 l 229 125 l 227 125 l 229 127 l 229 125 l 229 127 l 229 136 l 229 133 l 232 136 l 229 136 l 232 136 l 232 146 l 237 146 l 243 146 l 248 146 l 256 146 l 254 146 l 259 146 l 256 146 l 259 146 q 267 146 263 150 q 275 146 269 151 l 278 146 l 275 146 l 278 146 l 278 152 l 278 146 l 278 152 q 289 155 286 153 l 302 155 l 308 155 l 321 155 l 324 155 l 321 155 l 327 155 l 324 155 l 327 155 l 335 157 q 343 155 338 152 l 351 155 l 359 152 l 365 152 l 373 152 l 378 149 l 387 149 l 392 146 l 400 144 l 406 144 l 400 144 l 408 144 l 406 144 l 408 144 q 416 141 412 138 l 416 138 l 416 141 l 416 138 q 422 133 422 136 l 425 125 l 427 117 l 430 117 l 427 117 l 430 117 l 430 111 l 433 111 l 430 111 l 433 111 l 433 106 q 435 98 438 103 q 438 92 440 96 q 441 87 443 90 l 444 81 l 446 73 q 449 65 452 71 q 452 60 454 63 q 457 54 457 58 l 460 46 l 463 46 l 460 46 l 463 43 l 463 46 l 465 41 l 463 43 l 465 41 l 465 27 l 457 24 l 452 24 l 446 24 l 435 24 q 430 22 433 20 l 427 19 l 425 14 l 427 11 q 438 8 435 11 l 446 8 l 452 11 l 457 11 l 463 11 l 468 11 l 479 11 l 484 11 l 498 11 l 500 11 l 498 11 l 500 11 l 509 14 l 514 14 q 522 16 517 19 l 528 16 l 533 16 l 538 16 l 549 16 l 552 16 l 549 16 l 552 19 l 552 16 l 552 19 l 557 19 l 568 19 l 576 19 l 585 19 l 595 19 l 606 19 q 617 19 613 22 q 628 19 625 21 l 633 19 l 628 19 l 633 19 l 633 22 l 633 19 l 633 22 l 639 22 l 644 22 l 658 22 l 658 33 q 650 38 655 33 q 644 43 644 40 l 642 43 l 644 43 l 642 43 l 639 49 l 633 49 l 631 54 l 631 52 l 631 54 q 625 60 625 56 q 620 65 623 60 l 612 68 q 606 76 611 74 l 606 84 l 606 87 l 606 84 l 606 87 q 604 98 601 90 l 601 98 l 604 98 l 601 100 l 601 98 l 601 100 q 598 109 595 103 l 595 111 q 593 122 592 115 q 590 130 587 125 q 587 136 585 132 l 585 138 l 587 136 l 585 138 q 582 149 585 146 l 585 152 l 582 155 l 585 152 l 582 155 l 582 160 q 576 168 575 162 l 574 171 l 576 168 l 574 174 l 574 171 l 574 174 q 571 182 568 176 q 566 187 568 182 l 568 184 l 566 190 l 566 187 l 566 193 l 566 190 l 566 193 l 563 201 q 560 209 557 203 q 557 214 555 211 q 552 220 555 214 l 555 217 l 552 220 l 549 225 l 547 233 l 549 231 l 547 233 l 547 239 q 544 250 543 243 q 541 258 538 252 q 538 266 536 260 q 533 271 536 266 l 536 269 l 533 271 l 530 279 l 528 282 l 530 279 l 528 282 l 528 288 l 525 288 l 528 288 l 525 288 l 525 293 l 522 293 l 525 293 l 522 293 l 522 298 q 519 307 517 301 q 517 315 515 309 l 517 312 l 517 315 q 514 323 511 317 q 511 328 511 323 l 511 326 l 511 328 q 509 336 506 331 l 506 339 l 506 345 q 503 350 501 347 q 500 358 498 352 l 500 355 l 500 358 q 498 369 495 361 q 495 374 495 369 l 495 372 l 495 374 q 492 385 493 378 l 492 382 l 492 385 q 487 393 487 387 l 487 391 l 487 396 l 487 393 l 487 396 q 481 401 481 398 l 479 415 l 479 412 l 479 415 l 476 423 q 473 434 473 427 q 471 445 470 438 q 468 456 467 449 q 465 467 465 460 q 463 477 460 470 l 460 480 l 457 488 l 460 486 l 457 491 l 457 488 l 457 494 l 457 491 l 457 496 l 457 494 l 457 496 l 454 505 l 452 513 l 452 518 l 449 518 l 452 518 l 449 518 l 449 524 q 446 532 444 526 q 444 540 441 534 l 438 543 l 438 551 q 435 556 433 553 q 433 562 431 558 l 430 562 l 433 562 l 430 562 l 430 567 q 427 575 425 570 l 427 581 q 427 591 414 587 l 430 597 l 427 605 q 414 613 417 605 l 406 616 l 397 616 l 389 618 l 381 616 q 376 618 379 620 l 370 618 l 365 618 l 351 618 q 338 618 344 614 m 305 589 l 311 589 l 321 589 q 316 581 321 582 q 311 581 312 571 q 308 586 306 583 l 305 589 m 400 586 l 411 586 q 403 578 413 571 q 395 586 398 572 l 400 586 m 368 572 q 378 562 380 573 q 378 556 383 559 l 378 551 l 378 556 l 378 551 q 368 562 367 552 q 368 572 361 566 m 419 567 l 419 559 l 422 559 l 419 559 l 422 556 l 422 559 l 422 556 l 425 548 q 427 543 427 548 l 427 545 l 427 543 q 430 534 433 540 l 433 532 l 433 526 l 435 526 l 433 526 l 435 526 l 435 521 q 438 513 441 518 q 441 507 443 511 q 433 521 432 511 q 427 537 424 526 q 425 543 422 539 l 419 543 l 425 543 l 419 543 l 419 548 q 416 559 416 552 q 414 570 413 563 l 419 567 m 286 559 q 286 540 302 549 l 286 545 l 286 559 m 332 543 l 332 534 q 335 524 338 531 q 338 513 340 520 q 340 505 343 510 q 343 488 350 498 l 340 491 l 338 499 l 340 496 l 338 502 l 338 499 l 338 505 l 338 502 l 338 505 l 335 513 q 332 521 330 515 l 330 521 l 332 521 l 330 524 l 330 521 l 330 524 l 327 532 l 327 543 l 332 543 m 362 543 l 359 543 l 362 543 q 362 534 364 538 l 359 534 l 362 534 l 359 534 l 359 543 l 362 543 m 324 515 l 321 515 l 324 515 q 321 515 323 507 l 324 515 m 327 507 l 327 502 q 330 491 332 498 l 332 488 q 327 480 327 486 q 316 480 323 466 l 316 488 l 316 486 l 319 491 l 319 496 l 319 491 l 319 499 l 319 496 l 319 499 q 321 507 324 503 l 327 507 m 373 507 q 378 499 380 505 q 376 494 385 494 l 376 499 q 373 507 370 502 m 430 499 q 438 491 439 498 q 441 480 444 488 l 444 480 l 441 480 l 444 480 l 444 469 q 446 461 449 467 q 444 453 451 456 l 444 458 q 438 464 441 458 l 441 461 l 438 464 l 438 472 l 435 475 l 435 480 q 433 488 430 483 q 430 499 429 492 m 384 491 l 381 491 l 384 491 q 381 491 382 482 l 384 491 m 346 488 q 349 480 351 486 l 351 480 l 349 480 l 351 480 l 351 464 q 349 475 346 467 q 346 483 343 477 q 346 488 340 486 m 321 472 l 319 472 l 321 472 q 319 472 320 458 l 321 472 m 416 464 l 416 458 q 419 453 421 456 q 422 448 424 451 q 425 439 427 445 q 430 434 430 437 l 433 420 l 435 407 l 438 399 l 435 401 l 438 396 l 438 399 l 438 393 l 438 396 l 438 393 q 441 382 439 386 l 435 385 l 433 393 l 433 391 l 433 393 l 430 401 l 427 410 l 425 415 l 422 420 l 419 429 l 422 426 l 419 429 l 419 437 l 419 434 l 419 437 q 416 448 414 440 l 414 450 l 416 448 l 414 453 l 414 450 l 414 456 l 414 453 l 414 458 l 414 456 l 414 458 l 411 467 l 416 464 m 262 461 q 262 453 267 457 q 259 442 262 446 l 256 434 l 254 423 l 254 426 l 254 420 l 254 423 l 254 420 q 248 410 251 412 q 245 415 244 412 l 245 423 l 248 426 q 254 431 250 432 l 254 434 l 254 431 l 256 437 l 256 442 l 256 437 l 256 442 l 256 448 l 259 448 l 256 448 l 259 450 l 259 448 l 259 450 l 262 456 l 262 461 l 262 456 l 262 461 m 335 456 l 335 448 q 338 442 340 446 q 340 434 343 439 q 343 426 346 431 q 346 420 348 424 q 349 415 351 418 l 351 415 l 349 415 l 351 415 q 354 404 351 408 l 354 393 q 357 385 359 391 q 359 374 362 382 q 362 369 364 372 l 362 358 q 365 347 368 355 l 368 334 l 370 334 l 368 334 l 370 334 l 370 323 q 373 312 374 319 q 376 301 378 310 q 378 296 378 301 l 378 298 l 378 293 l 378 296 l 378 293 q 384 277 382 291 q 387 266 389 273 q 389 255 392 262 l 392 252 l 389 255 l 392 250 l 392 252 l 392 247 l 392 250 l 392 247 q 397 239 397 245 l 397 241 l 397 239 q 400 228 398 231 l 395 228 l 389 228 q 381 233 382 228 l 378 233 l 381 233 l 378 233 q 373 233 377 229 q 368 233 370 229 q 351 233 358 228 q 346 231 349 229 l 343 228 l 332 228 l 332 225 l 332 228 l 332 225 l 324 225 l 327 225 l 324 225 q 313 222 321 220 q 300 222 309 215 l 297 222 l 300 222 l 294 222 l 297 222 l 294 222 q 281 225 288 221 l 278 225 l 281 225 l 278 225 l 273 225 l 262 225 l 256 231 l 259 231 l 256 231 l 256 239 l 259 241 l 259 247 l 262 247 l 259 247 l 262 250 l 262 247 l 262 250 l 264 255 l 264 260 l 264 255 l 264 260 l 267 269 l 267 266 l 267 269 q 273 279 267 276 l 273 285 l 273 279 q 278 293 273 288 l 281 298 l 281 304 l 281 298 l 283 307 l 286 315 l 286 323 l 289 323 l 286 323 l 289 323 l 289 336 l 292 336 l 289 336 l 292 339 l 292 336 l 292 339 l 294 345 l 294 350 l 294 345 l 294 350 l 294 355 l 297 355 l 294 355 l 297 358 l 297 355 l 297 358 l 300 363 l 300 369 l 300 363 l 300 369 q 302 374 304 371 q 308 382 304 380 l 311 388 l 311 399 q 313 404 315 401 l 316 410 l 316 418 l 316 415 l 319 418 l 316 418 l 319 418 l 319 429 q 324 437 319 431 l 324 442 l 324 437 l 324 442 l 327 448 l 327 445 l 327 450 l 327 448 l 327 450 q 330 458 332 454 l 335 456 m 311 445 q 313 437 316 442 q 311 445 308 439 m 273 437 q 273 431 277 434 l 273 437 m 454 434 q 457 426 460 431 q 454 434 452 429 m 273 431 l 270 431 l 273 431 q 267 418 274 420 l 267 420 l 267 418 l 267 423 l 267 420 l 267 423 q 270 431 273 427 l 273 431 m 460 426 q 457 426 458 417 l 460 426 l 457 426 l 460 426 m 305 412 l 302 412 l 305 412 q 302 412 304 404 l 305 412 m 465 407 q 465 412 460 410 l 465 407 m 243 410 q 243 401 249 406 l 240 393 q 235 385 240 387 l 237 391 l 237 396 l 237 391 l 237 396 l 240 396 l 237 396 l 240 399 l 240 396 l 240 399 l 243 404 l 243 410 l 243 404 l 243 410 m 283 391 q 283 382 289 387 l 283 391 m 202 385 q 202 380 207 382 l 202 385 m 232 382 q 232 374 237 378 l 232 369 l 232 374 l 232 369 q 232 377 227 373 l 232 382 l 232 377 l 232 382 m 281 382 q 283 377 285 380 q 281 382 275 361 m 202 380 l 199 380 l 202 380 q 199 380 201 370 l 202 380 m 441 380 l 438 380 l 441 380 q 438 380 439 371 l 441 380 m 197 374 q 199 366 202 371 q 197 374 194 370 m 408 369 l 411 369 l 408 369 l 411 366 l 411 369 l 411 363 l 411 366 l 411 363 q 416 358 416 361 l 416 345 q 411 355 409 347 q 408 363 406 358 q 406 374 403 367 l 408 374 l 406 374 l 408 374 l 408 369 m 194 366 q 191 355 202 359 l 194 361 l 194 366 l 194 361 l 194 366 m 471 361 l 468 361 l 471 358 l 471 361 l 471 355 l 471 358 l 471 355 q 476 350 476 353 l 476 342 l 479 339 l 476 342 l 479 339 l 481 334 l 484 326 l 481 328 l 484 326 l 484 320 q 487 309 488 316 l 484 309 l 487 309 l 484 309 l 484 315 q 481 323 479 317 l 479 323 l 481 323 l 479 323 l 479 328 q 476 336 473 331 q 473 345 471 339 l 471 345 l 473 345 l 471 345 l 471 350 q 468 361 467 354 l 471 361 m 186 345 q 186 342 190 343 l 186 345 l 186 342 l 186 345 m 419 339 q 422 328 425 336 q 425 320 427 326 q 425 315 429 319 l 422 315 l 425 315 l 422 315 l 422 320 q 419 331 418 324 q 419 345 409 338 l 419 339 m 183 342 q 186 336 187 340 q 183 342 182 338 m 180 331 q 180 326 185 328 l 178 320 q 170 307 178 310 l 170 312 q 172 317 174 314 l 175 320 q 180 331 178 328 m 397 326 l 400 326 l 397 326 l 400 326 l 400 320 q 403 309 406 317 q 406 301 408 307 q 411 296 408 300 l 411 298 l 411 296 q 414 285 412 288 l 414 277 l 408 274 l 406 282 l 408 279 l 406 285 l 406 282 l 406 285 l 406 293 l 406 290 l 406 293 q 403 304 400 296 q 397 309 397 306 l 397 315 l 397 320 q 395 331 394 324 l 397 331 l 395 331 l 397 331 l 397 326 m 427 315 q 425 315 426 311 l 427 315 l 425 315 l 427 315 m 256 309 q 256 298 264 303 l 254 293 l 254 301 l 254 298 l 254 301 q 256 309 259 304 m 490 309 q 487 309 488 300 l 490 309 l 487 309 l 490 309 m 167 304 q 167 298 172 301 l 167 304 m 164 298 q 161 288 172 291 l 164 293 l 164 298 l 164 293 l 164 298 m 191 296 l 189 296 l 191 296 q 189 296 190 287 l 191 296 m 254 293 l 251 293 l 254 293 q 248 277 256 280 l 248 274 l 248 277 q 245 263 248 271 l 245 269 l 245 263 q 245 271 239 268 l 248 282 l 248 279 l 248 282 l 251 288 l 251 293 l 251 288 l 251 293 l 254 293 m 444 290 q 446 285 448 289 q 449 279 449 285 l 449 282 l 449 279 q 454 266 457 275 q 457 255 460 262 q 463 241 465 251 l 465 241 l 463 241 l 465 241 l 465 236 q 468 228 471 233 q 468 214 477 221 l 471 206 l 465 209 l 465 220 l 463 222 l 465 220 l 463 225 l 463 222 l 463 228 l 463 225 l 463 228 l 460 236 q 454 241 457 236 l 457 239 l 454 241 l 452 250 l 454 247 l 452 252 l 452 250 l 452 255 l 452 252 l 452 255 l 449 263 l 449 269 q 446 279 444 272 q 444 290 441 283 m 484 285 q 487 279 488 283 q 484 285 483 281 m 183 279 q 183 271 189 275 l 183 279 m 490 271 q 490 279 484 275 l 490 271 m 216 277 q 216 271 220 274 l 216 277 m 414 274 q 411 274 412 265 l 414 274 l 411 274 l 414 274 m 183 271 l 180 271 l 183 271 q 180 271 182 262 l 183 271 m 194 271 q 194 263 199 268 q 194 271 189 267 m 216 271 l 213 271 l 216 271 q 213 271 214 262 l 216 271 m 492 269 l 490 269 l 492 269 q 490 269 491 250 l 492 269 m 180 266 l 178 266 l 180 266 l 180 255 l 178 255 l 180 255 q 175 244 177 252 l 175 250 l 175 244 l 172 244 l 175 244 l 172 247 l 172 244 l 172 247 l 175 255 q 178 266 174 262 l 180 266 m 210 263 q 213 255 216 260 q 210 263 208 258 m 243 263 l 240 263 l 243 263 q 240 263 241 249 l 243 263 m 151 258 l 148 258 l 151 258 q 148 258 149 249 l 151 258 m 498 255 l 500 247 l 498 250 l 500 247 l 500 228 q 498 239 495 231 q 495 250 492 242 q 495 258 489 253 l 498 255 m 210 255 l 208 255 l 210 255 q 208 255 209 251 l 210 255 m 237 255 q 237 247 243 251 l 235 239 l 232 231 q 227 220 233 222 l 227 225 q 229 231 231 227 l 232 236 l 232 233 l 232 239 l 232 236 l 232 239 q 237 250 231 246 l 237 255 l 237 250 l 237 255 m 525 252 q 519 252 524 238 l 525 252 m 411 250 l 408 250 l 411 250 q 408 250 410 241 l 411 250 m 172 244 l 170 244 l 172 241 l 172 244 l 172 233 l 172 236 l 172 233 q 170 225 167 230 l 167 225 l 170 225 l 167 225 l 164 217 l 161 206 l 161 209 l 161 203 l 161 206 q 159 193 161 201 l 159 198 l 159 193 l 156 193 l 159 193 l 156 193 l 153 176 l 151 171 l 148 165 l 145 157 l 142 149 l 140 144 l 140 146 q 137 133 139 141 l 137 138 l 137 133 l 129 130 l 132 133 l 132 141 l 134 146 l 132 149 l 134 146 l 132 149 l 134 152 l 134 157 l 134 152 l 134 157 l 134 163 l 137 163 l 134 163 l 137 165 l 137 163 l 137 168 l 137 165 l 137 168 q 140 176 142 172 l 142 176 l 140 176 q 148 184 143 179 l 148 190 l 148 184 l 148 193 l 148 190 l 148 193 q 151 201 153 196 l 156 203 l 156 212 q 159 217 160 214 q 161 222 163 219 l 161 228 l 164 228 l 161 228 l 164 228 q 170 239 164 237 l 170 244 l 170 239 l 170 244 l 172 244 m 528 244 q 525 244 526 241 l 528 244 l 525 244 l 528 244 m 414 241 l 411 241 l 414 241 q 411 241 412 227 l 414 241 m 503 225 l 500 225 l 503 225 q 500 225 502 216 l 503 225 m 422 220 l 419 220 l 422 220 q 419 220 420 205 l 422 220 m 332 212 l 338 212 l 343 212 l 351 209 q 362 212 355 212 q 351 203 367 201 q 340 203 345 196 q 321 203 330 197 l 319 203 l 321 203 l 319 203 q 330 206 322 209 l 332 212 m 373 209 q 376 198 380 206 l 373 201 l 373 209 m 547 195 q 549 187 552 193 q 547 195 544 190 m 297 187 l 308 187 l 308 184 l 308 187 l 308 184 l 297 184 l 297 187 l 297 184 l 297 187 m 191 184 q 194 179 195 183 q 191 184 190 181 m 311 184 l 321 184 q 316 182 319 177 l 308 184 l 311 184 l 308 184 l 311 184 m 555 184 l 552 184 l 555 184 q 552 184 553 170 l 555 184 m 330 182 l 335 179 l 327 179 l 330 182 m 189 179 q 189 171 193 177 q 183 155 189 162 l 180 146 l 178 138 l 175 130 q 170 119 176 123 l 170 114 l 170 119 q 164 106 168 108 l 167 114 l 170 122 l 172 130 l 172 138 l 175 141 q 180 152 174 149 l 183 160 l 186 168 l 189 174 l 189 179 l 189 174 l 189 179 m 408 176 q 403 171 423 172 q 408 176 405 176 m 438 176 q 433 168 439 161 q 433 176 427 170 l 438 176 m 557 176 q 555 176 556 173 l 557 176 l 555 176 l 557 176 m 500 171 l 498 171 l 500 171 l 500 165 q 503 149 510 159 l 503 155 l 500 163 q 498 171 495 165 l 500 171 m 435 152 q 438 141 449 149 l 438 144 l 438 141 l 438 144 l 435 152 m 509 146 l 509 149 l 509 146 q 514 141 514 144 q 509 141 513 121 l 506 141 l 509 141 l 506 141 l 509 149 l 509 146 m 444 136 q 441 141 439 137 l 444 141 l 441 141 l 444 141 l 444 136 m 159 130 q 159 127 163 129 l 159 130 l 159 127 l 159 130 m 517 130 q 514 130 515 121 l 517 130 l 514 130 l 517 130 m 156 127 q 159 119 161 124 q 153 109 156 111 l 153 100 l 153 103 l 153 98 l 153 100 l 153 98 q 151 87 148 94 l 151 90 l 148 87 l 151 87 l 148 87 l 148 76 q 145 71 144 74 l 145 62 l 140 57 l 140 60 l 140 54 l 140 57 l 140 54 q 137 41 140 45 l 132 41 l 132 46 l 132 52 l 132 65 l 134 65 l 132 65 l 134 65 q 140 76 135 70 q 145 90 138 87 l 145 95 l 145 90 l 145 95 q 148 100 149 97 l 151 109 l 151 114 l 153 114 l 151 114 l 153 117 l 153 114 l 153 119 l 153 117 l 153 119 q 156 127 159 123 m 457 127 l 454 127 l 457 127 l 457 122 l 460 122 l 457 122 q 463 111 460 119 q 465 100 466 107 l 468 100 l 465 100 q 471 90 469 98 q 473 79 474 85 l 476 79 l 473 79 l 476 79 l 476 73 q 479 65 481 71 l 481 65 l 479 65 l 481 65 l 484 57 l 481 60 l 484 57 l 484 43 q 479 49 479 45 l 476 49 l 479 49 l 476 49 l 476 57 q 471 68 469 60 q 468 76 465 71 l 465 76 l 468 76 l 465 76 l 465 84 l 465 81 l 465 84 q 463 95 460 87 l 460 98 l 457 103 l 457 117 q 454 127 454 121 l 457 127 m 517 122 q 522 111 524 119 q 519 109 529 104 l 519 111 l 519 109 l 519 114 l 519 111 l 519 114 l 517 122 m 568 119 q 571 114 572 118 q 574 109 576 112 q 574 95 583 102 l 571 103 l 574 100 l 571 103 l 571 109 q 568 119 568 113 m 528 103 l 525 103 l 528 103 q 525 92 533 85 l 525 103 l 528 103 m 123 100 q 123 95 128 98 l 123 100 m 514 98 l 511 98 l 514 98 q 511 98 513 89 l 514 98 m 579 98 q 579 87 589 91 l 576 90 l 579 98 m 123 95 l 121 95 l 123 95 q 121 81 123 87 l 121 84 l 121 79 l 121 81 q 118 68 120 76 l 118 73 l 118 68 l 115 68 l 118 68 l 115 68 q 110 57 116 59 q 96 41 114 33 l 99 43 l 99 52 q 102 57 103 54 l 107 60 l 107 65 l 107 60 l 110 68 l 113 73 l 113 79 l 113 73 l 113 81 l 113 79 l 115 81 l 113 81 l 118 84 l 121 90 l 121 95 l 121 90 l 121 95 l 123 95 m 167 87 q 167 84 171 85 l 167 87 l 167 84 l 167 87 m 587 87 l 585 87 l 587 87 q 582 79 590 73 l 585 87 l 587 87 m 167 84 l 164 84 l 167 81 l 167 84 l 167 79 l 167 81 l 167 76 l 167 79 l 164 71 l 164 73 l 164 68 l 164 71 l 164 68 q 159 57 165 60 l 159 52 l 159 57 l 159 52 l 156 52 l 159 52 l 156 52 l 156 43 l 151 43 l 153 52 l 156 60 l 159 65 l 159 62 l 161 68 l 161 73 l 161 68 l 161 76 l 161 73 l 161 76 q 164 84 167 79 l 167 84 m 498 81 l 495 81 l 498 79 l 498 81 l 498 76 l 498 79 l 498 76 q 503 71 503 74 q 495 81 503 41 l 498 81 m 519 81 q 528 65 529 76 q 530 60 532 63 q 533 54 535 58 q 536 49 538 52 q 538 43 541 47 q 536 35 545 39 q 519 46 520 32 q 525 49 514 50 l 525 60 l 522 60 l 525 60 l 522 60 l 519 68 l 522 65 l 519 68 l 519 81 m 582 65 l 582 57 l 585 57 l 582 57 l 585 54 l 585 57 l 585 54 q 590 49 590 52 l 595 46 l 593 46 l 595 46 q 609 43 605 47 l 609 41 l 609 43 l 609 41 l 595 41 q 587 41 593 35 l 587 38 l 587 41 l 587 38 q 571 52 571 37 q 568 57 566 54 q 563 65 561 56 q 576 68 570 64 l 582 65 m 148 57 l 145 57 l 148 57 q 145 57 146 48 l 148 57 m 175 57 q 175 52 180 54 l 175 57 m 506 57 q 503 57 505 43 l 506 57 l 503 57 l 506 57 m 175 52 l 172 52 l 175 52 q 172 52 174 42 l 175 52 m 183 46 q 186 38 198 45 l 189 30 q 180 41 174 24 l 183 41 l 180 41 l 183 41 l 183 46 l 183 41 l 183 46 z "},"B":{"ha":522,"x_min":3,"x_max":470,"o":"m 31 670 l 31 675 l 31 667 l 31 670 l 31 665 l 31 667 l 31 665 q 28 656 25 661 l 28 637 l 22 637 l 22 635 l 22 637 l 22 632 l 22 635 l 22 632 q 20 624 17 629 l 14 624 q 6 621 12 618 l 3 618 l 6 613 l 12 613 l 6 613 l 12 613 l 25 613 l 25 586 l 25 589 l 25 586 l 28 578 l 28 548 l 31 543 l 31 483 l 33 483 l 31 483 l 33 483 l 33 431 l 36 431 l 33 431 l 36 431 l 36 410 l 39 407 l 39 399 l 39 401 l 39 399 l 41 391 l 41 380 l 44 374 l 44 361 l 44 363 l 47 358 l 44 361 l 47 358 l 47 345 l 50 342 l 50 326 l 50 328 l 50 326 l 52 317 l 52 209 l 52 212 l 52 206 l 52 209 l 52 203 l 52 206 l 52 203 q 55 193 53 196 l 52 190 l 52 184 l 52 190 l 52 184 q 55 176 58 182 l 58 168 l 55 171 l 58 168 l 58 130 l 60 122 l 60 87 l 60 90 l 60 87 l 63 79 l 63 57 q 60 52 59 55 q 52 60 54 54 l 41 60 l 41 54 l 41 60 l 41 54 q 33 43 33 53 l 36 41 q 63 16 64 41 q 66 5 68 13 q 68 0 71 3 l 77 3 q 79 14 77 10 q 85 14 76 25 l 90 14 l 85 14 l 90 14 l 90 19 l 90 14 l 90 19 q 85 30 79 20 l 96 30 l 98 22 l 104 22 l 98 22 l 104 22 l 117 22 l 123 22 l 134 22 l 134 19 l 134 22 l 134 19 q 139 14 139 17 l 142 16 l 139 14 l 144 16 l 142 16 l 144 16 l 147 24 q 161 27 154 23 l 169 24 q 177 27 172 30 l 185 30 l 193 27 l 196 30 l 210 30 q 220 33 214 33 l 229 35 l 234 33 l 234 35 l 234 33 l 234 35 l 248 35 l 256 35 l 264 35 q 272 38 267 41 l 280 38 q 291 41 283 43 q 302 43 294 46 q 310 46 304 49 q 318 49 313 52 q 323 52 320 54 l 326 54 q 337 57 334 55 l 345 60 q 351 68 346 62 l 359 71 l 359 73 l 359 71 l 359 73 q 364 79 363 76 l 372 79 q 383 84 375 85 q 391 90 385 91 l 394 95 l 399 95 l 402 100 l 408 100 l 410 106 l 416 109 q 421 114 418 114 q 427 119 423 119 l 427 122 l 427 119 l 429 125 q 435 130 431 131 l 435 133 l 435 130 q 440 141 435 136 q 446 146 442 147 q 451 155 446 153 l 454 160 l 454 165 l 454 160 l 456 168 q 462 174 458 174 l 465 179 l 465 187 l 467 190 l 467 195 l 467 190 l 470 198 l 470 203 l 470 198 l 470 203 l 470 217 l 470 222 l 470 233 q 467 241 465 236 q 465 252 464 245 l 462 252 l 465 252 l 462 252 l 462 258 q 459 269 458 262 l 456 269 l 459 269 l 456 269 l 456 274 q 451 282 450 276 q 448 288 446 284 q 440 298 439 291 q 435 304 435 300 q 427 312 429 306 l 429 309 l 427 312 q 418 320 421 315 q 413 326 413 322 q 405 331 406 326 l 399 334 l 394 334 l 399 334 l 391 334 l 394 334 l 391 336 l 391 334 l 391 336 l 380 336 l 380 339 l 380 336 l 378 339 l 380 339 l 375 339 l 378 339 l 375 339 l 370 342 l 364 342 l 370 342 l 361 345 l 351 345 l 345 347 l 340 350 l 342 350 l 340 350 q 326 355 329 349 l 321 358 l 323 361 l 332 363 l 332 366 l 332 363 l 332 366 l 337 366 q 345 369 340 372 q 356 374 348 376 l 359 382 l 367 385 l 364 385 l 367 385 q 372 391 369 391 q 380 399 374 397 l 383 407 l 389 410 l 389 415 l 389 410 l 389 415 l 394 418 l 397 423 l 402 426 l 402 431 l 402 426 l 402 431 l 408 431 q 413 442 407 440 q 418 453 413 451 l 418 461 l 421 467 l 421 472 l 421 467 l 421 472 l 421 486 l 421 491 l 421 496 l 421 510 l 418 518 l 416 526 l 418 524 l 416 526 l 416 532 l 416 545 l 408 545 l 408 551 q 397 564 398 553 l 394 567 q 380 578 383 569 q 372 586 374 580 l 364 589 q 359 592 362 593 q 353 597 356 592 l 353 594 l 353 597 l 348 600 q 337 605 343 600 q 326 610 328 604 q 315 613 319 610 l 307 616 l 296 616 l 296 618 l 296 616 l 296 618 l 288 621 l 283 621 l 288 621 l 283 621 l 277 621 l 267 621 l 264 624 l 256 627 l 248 627 l 245 629 l 239 629 l 245 629 l 239 629 l 226 629 l 223 632 q 212 635 216 632 l 204 632 q 196 635 201 637 q 185 637 189 634 l 185 635 l 185 637 l 185 635 l 182 637 l 174 637 l 161 637 l 155 637 l 147 637 l 136 637 q 128 637 132 635 l 123 637 l 128 637 l 123 637 q 115 637 119 631 l 109 637 l 115 637 l 109 637 l 109 635 l 109 637 l 109 635 l 106 637 q 96 637 100 634 l 96 635 l 96 637 l 96 635 l 90 637 l 93 637 l 90 637 q 79 637 83 634 q 71 637 75 634 l 68 637 l 71 637 l 68 637 l 68 643 l 66 643 l 68 643 l 66 643 l 66 648 l 66 662 q 58 665 62 667 q 55 659 54 663 q 52 654 54 658 l 52 656 l 52 651 l 52 654 q 50 640 52 648 l 50 646 l 50 640 l 47 640 l 50 640 l 47 643 l 47 640 l 47 643 l 41 643 l 47 643 l 41 643 l 41 646 l 41 643 l 39 646 l 41 646 l 39 648 l 39 646 l 39 651 l 39 648 l 39 651 q 39 667 35 663 q 36 675 33 670 l 31 675 l 36 675 l 31 675 l 31 670 m 177 624 q 163 624 170 615 l 177 624 m 212 618 l 218 618 l 226 618 l 231 616 l 237 616 l 248 616 l 248 613 l 248 616 l 250 613 l 248 613 l 250 613 l 258 613 l 256 613 l 258 610 l 258 613 l 258 610 l 269 610 l 269 605 l 267 605 l 269 605 l 264 605 l 267 605 l 264 605 q 248 605 252 601 q 242 605 245 600 q 237 605 239 603 q 223 613 225 602 l 215 616 q 207 621 206 614 l 212 618 m 82 602 q 85 597 86 600 q 82 602 77 597 m 93 600 q 93 586 109 593 l 93 600 m 288 597 l 294 597 l 288 597 l 296 597 l 294 597 l 296 597 l 302 594 l 299 594 l 304 594 l 302 594 l 304 594 l 310 591 l 315 591 l 310 591 l 315 591 l 315 589 l 315 591 l 315 589 l 304 589 l 299 591 l 302 591 l 296 591 l 299 591 l 294 591 l 296 591 l 294 591 l 288 594 l 283 594 l 288 594 l 283 594 l 283 600 l 288 597 m 163 586 l 161 586 l 163 586 q 177 583 173 587 l 177 586 l 177 583 l 180 586 l 177 586 l 182 586 l 180 586 l 185 586 l 182 586 l 188 586 l 185 586 l 191 586 l 188 586 l 193 586 l 191 586 l 196 586 l 193 586 l 199 586 l 196 586 l 201 586 l 199 586 l 204 586 l 201 586 l 204 586 l 210 583 l 215 583 l 210 583 l 215 583 l 215 581 l 215 583 l 215 581 q 226 575 224 581 l 223 575 l 226 575 l 220 575 l 223 575 l 220 575 q 207 572 214 576 l 199 575 l 201 575 l 199 575 q 188 578 191 575 l 180 581 l 172 578 l 166 578 l 161 578 l 153 578 l 147 578 l 134 578 q 123 575 130 574 l 123 581 l 125 581 l 123 581 l 125 581 q 136 583 133 581 l 150 583 q 161 586 157 583 l 163 586 m 248 583 q 258 578 255 584 q 272 570 269 578 q 258 575 261 569 q 248 583 250 576 m 82 581 q 79 581 81 577 l 82 581 l 79 581 l 82 581 m 77 567 q 79 556 82 564 l 82 553 q 77 567 74 547 m 147 567 l 144 567 l 150 567 l 147 567 l 150 567 l 155 564 l 161 564 l 155 564 l 161 564 q 155 562 159 560 l 153 556 l 153 559 l 153 553 l 153 556 l 153 553 q 150 540 147 550 l 142 543 l 144 548 l 144 553 l 144 548 l 144 553 l 144 567 l 147 567 m 131 564 q 123 564 131 544 l 131 564 m 182 564 l 191 562 q 204 559 197 563 l 207 559 l 204 559 l 210 559 l 207 559 l 212 559 l 210 559 l 212 559 q 223 559 219 562 q 234 559 228 565 l 239 559 l 250 559 l 256 553 l 253 553 l 256 553 q 267 545 264 551 q 275 540 273 545 q 286 532 283 539 q 291 526 288 531 l 291 529 l 291 526 l 296 526 l 291 526 l 296 526 l 296 524 l 296 526 l 296 524 q 304 513 305 520 l 307 513 l 304 513 l 307 510 l 307 513 l 307 507 l 307 510 l 307 507 q 307 491 311 496 q 310 480 313 488 l 310 477 l 310 480 l 310 475 l 310 477 l 310 475 q 304 453 313 458 q 299 445 304 446 q 277 434 294 434 l 275 431 l 267 429 l 269 431 l 267 429 l 258 426 l 261 429 l 258 426 l 245 426 l 245 423 l 245 426 l 245 423 l 237 423 q 231 418 235 418 l 231 407 l 220 407 l 218 404 l 220 407 l 218 404 q 207 401 210 404 l 204 404 l 201 401 l 204 404 l 199 401 l 201 401 l 199 404 l 199 401 l 199 404 l 185 404 q 180 410 182 409 q 180 420 177 417 l 177 429 q 177 439 173 435 l 174 450 l 174 448 l 174 453 l 174 450 l 174 453 l 177 458 l 177 464 l 177 458 l 177 464 q 177 469 172 465 l 174 472 l 177 469 l 174 472 l 174 486 l 174 491 l 174 505 l 174 513 l 177 521 q 180 534 176 528 q 177 545 176 538 l 177 551 l 177 564 l 182 564 m 115 551 q 117 543 120 548 q 115 551 112 545 m 79 545 l 77 545 l 79 545 q 77 545 78 536 l 79 545 m 115 534 q 115 532 124 533 l 115 534 l 115 532 l 115 534 m 345 510 q 340 513 349 471 l 345 510 m 123 507 l 120 507 l 123 507 q 120 507 121 493 l 123 507 m 123 494 l 120 494 l 123 494 q 120 494 121 479 l 123 494 m 120 477 q 125 472 127 478 l 125 437 q 131 431 128 432 l 131 423 l 131 426 l 128 423 l 131 423 l 128 423 l 128 412 q 128 407 132 411 l 131 404 l 128 407 l 131 404 l 131 385 q 134 374 134 381 l 131 369 l 134 366 l 131 369 q 136 363 132 367 l 136 350 l 134 345 l 134 326 q 131 315 134 318 l 131 328 l 128 328 l 131 328 l 128 328 l 128 334 l 128 339 l 128 353 l 128 366 l 128 374 q 125 385 125 378 l 125 391 l 125 399 l 125 396 l 123 401 l 125 399 l 123 401 l 123 415 l 123 420 l 123 429 l 123 434 l 123 439 l 123 445 l 123 450 l 123 464 l 123 467 l 123 464 l 123 467 q 120 477 122 474 m 47 472 l 47 461 l 50 456 l 50 434 l 50 437 l 50 434 q 52 423 50 427 q 47 415 51 417 l 47 420 l 47 426 l 47 431 l 47 437 l 47 442 l 47 453 l 44 453 l 47 453 l 44 453 l 44 458 l 44 464 l 44 475 l 47 472 m 353 464 q 353 450 362 457 l 351 442 q 345 434 351 435 q 340 429 345 427 l 340 431 l 340 429 l 340 434 l 340 431 l 340 434 q 342 442 345 437 l 345 448 l 348 453 l 348 450 l 348 453 q 353 464 351 461 m 326 461 l 323 461 l 326 461 q 323 461 325 452 l 326 461 m 383 453 l 380 453 l 383 453 q 370 420 388 425 l 372 423 q 375 434 372 431 l 375 439 l 375 434 l 375 439 l 378 439 l 375 439 l 378 442 l 378 439 l 378 445 l 378 442 l 378 445 q 380 453 383 448 l 383 453 m 323 431 l 329 431 q 323 420 328 424 q 318 412 323 414 q 299 396 314 395 q 283 388 294 386 q 277 385 281 383 q 286 396 278 394 q 294 404 286 405 q 299 407 296 409 l 302 412 l 302 410 l 302 412 l 307 415 l 304 415 l 307 415 q 313 420 309 420 q 318 423 315 425 l 321 426 l 323 431 m 150 426 l 147 426 l 150 423 l 150 426 l 150 423 q 147 410 151 416 l 147 415 l 147 426 l 150 426 m 256 418 q 256 415 265 416 l 256 418 l 256 415 l 256 418 m 153 410 q 150 410 151 406 l 153 410 l 150 410 l 153 410 m 150 401 q 150 399 159 400 l 150 401 l 150 399 l 150 401 m 250 399 q 250 393 260 395 l 250 391 l 250 393 l 250 391 l 245 391 l 245 388 l 245 391 l 245 388 l 239 388 l 226 388 l 226 385 l 226 388 l 226 385 q 220 380 221 382 l 215 380 l 210 380 l 204 380 l 191 380 l 191 382 l 191 380 l 191 382 l 185 382 l 191 382 l 185 382 q 191 388 184 393 l 196 388 l 191 388 l 196 388 l 201 388 q 207 388 204 393 l 210 391 l 207 388 l 210 391 l 215 391 l 220 391 l 226 391 q 234 393 229 396 l 239 393 l 239 396 l 239 393 l 239 396 q 250 399 247 396 m 112 380 l 109 380 l 112 380 q 109 380 111 371 l 112 380 m 166 374 q 166 372 180 373 l 166 374 l 166 372 l 166 374 m 304 374 q 304 372 314 373 l 304 374 l 304 372 l 304 374 m 109 358 q 112 345 117 355 q 109 331 117 335 l 109 336 l 109 342 l 109 347 l 109 358 m 172 339 q 172 334 186 334 l 172 339 m 182 339 q 182 334 197 338 l 182 339 m 115 331 q 112 331 113 328 l 115 331 l 112 331 l 115 331 m 109 328 q 112 323 113 326 l 115 323 l 112 323 l 115 323 q 112 309 116 316 l 115 304 l 115 244 q 115 231 117 235 l 117 228 l 115 231 l 117 228 l 115 225 l 115 220 l 115 225 l 115 203 l 112 203 l 115 203 l 112 203 l 112 217 l 112 225 l 109 233 l 109 247 l 109 255 l 109 266 l 109 274 l 109 279 l 109 285 l 109 293 l 109 298 l 109 312 l 109 317 l 109 328 m 310 328 q 310 326 319 327 l 310 328 l 310 326 l 310 328 m 321 328 l 332 328 q 321 326 328 323 l 321 328 l 321 326 l 321 328 m 364 326 q 367 320 379 323 l 364 326 m 182 320 q 182 317 197 319 l 182 320 l 182 317 l 182 320 m 193 317 q 191 317 192 314 l 193 317 l 191 317 l 193 317 m 220 315 q 226 309 227 313 q 220 315 219 309 m 402 312 l 399 312 q 408 309 404 311 l 405 309 l 408 307 l 408 309 l 408 307 q 413 301 413 304 q 418 296 418 299 q 427 285 427 292 q 429 279 431 283 l 432 279 l 429 279 q 435 269 433 277 q 437 258 438 264 l 437 255 l 437 258 l 437 255 q 440 247 443 252 l 443 244 l 437 244 l 437 247 l 437 244 l 435 250 l 437 247 l 435 250 l 435 263 q 429 274 428 266 l 427 274 l 429 274 l 427 274 l 427 279 q 424 288 421 282 q 416 296 415 288 q 408 304 407 296 q 397 315 397 307 l 402 312 m 231 312 q 231 309 241 311 l 231 312 l 231 309 l 231 312 m 356 312 q 348 312 353 300 l 356 312 m 310 307 l 307 307 l 310 307 q 307 307 309 298 l 310 307 m 359 307 q 356 304 366 300 l 359 307 m 182 304 l 188 304 l 188 301 l 188 304 l 188 301 l 193 301 l 188 301 l 193 301 l 193 298 l 193 301 l 193 298 l 204 298 l 204 296 l 204 298 l 201 296 l 204 296 l 201 296 q 177 304 183 293 l 182 304 m 313 301 q 310 298 317 298 l 313 301 m 74 296 l 71 296 l 74 296 q 71 296 73 281 l 74 296 m 340 296 q 351 288 349 295 q 359 279 359 286 q 370 271 368 279 l 364 274 q 356 279 355 272 q 351 285 349 279 q 345 290 344 285 q 340 296 340 292 m 329 290 q 323 290 328 280 l 329 290 m 153 285 l 155 277 l 153 279 l 155 277 l 155 239 q 153 225 157 232 l 153 233 l 153 239 l 153 244 l 153 250 q 150 258 147 252 l 150 263 l 150 269 l 150 274 l 150 288 l 153 285 m 193 282 l 196 282 l 193 282 l 199 282 l 196 282 l 201 282 l 199 282 l 204 282 l 201 282 l 207 282 l 204 282 l 210 282 l 207 282 l 212 282 l 210 282 l 212 282 q 223 279 220 282 l 231 277 l 242 277 l 248 274 l 256 274 l 253 274 l 256 274 q 264 271 259 269 l 264 269 l 264 271 l 264 269 l 272 266 q 283 260 281 267 q 291 255 290 260 l 296 255 l 291 255 l 296 255 l 296 250 q 307 241 305 249 l 310 241 l 307 241 l 310 241 q 315 236 313 237 l 315 228 q 318 222 320 226 q 323 206 327 217 q 329 195 330 203 q 321 176 338 186 q 318 165 320 174 l 318 171 l 318 165 q 313 159 314 161 q 307 155 312 157 l 310 155 l 307 152 l 307 155 l 304 152 l 307 152 l 304 152 q 299 146 302 146 l 299 144 l 299 146 l 296 141 l 299 144 q 294 138 297 143 l 288 138 q 283 136 286 134 q 277 130 281 130 l 272 127 l 264 127 l 256 127 l 248 127 l 250 127 l 248 127 q 237 125 244 122 l 231 125 l 226 125 l 218 125 l 220 125 l 218 125 l 210 122 l 196 122 l 193 122 l 196 122 l 193 122 q 185 125 190 127 l 188 127 l 188 136 q 188 144 182 140 l 188 149 l 188 144 l 188 152 l 188 149 l 188 152 q 185 163 182 155 l 185 171 l 185 176 l 185 184 l 185 182 l 182 184 l 185 184 l 182 184 l 182 190 l 182 201 l 182 209 l 182 217 l 185 225 q 185 236 182 229 l 185 233 l 185 236 q 185 252 181 248 l 182 255 l 182 260 l 180 269 l 182 266 l 180 269 l 180 282 l 193 282 m 313 266 q 313 260 323 262 l 313 266 m 74 263 q 77 255 79 260 l 74 250 q 77 244 79 248 l 77 201 q 74 206 73 203 l 74 212 l 74 225 q 71 236 74 233 l 74 244 l 74 241 l 74 244 q 74 263 68 255 m 323 260 l 321 260 l 323 258 l 323 260 l 323 258 q 326 239 339 233 l 326 244 l 323 244 l 326 244 l 323 244 q 318 250 321 249 l 318 255 l 315 255 l 318 255 l 315 255 q 321 260 316 258 l 318 260 l 323 260 m 332 233 q 337 225 338 231 q 332 233 331 228 m 397 233 q 394 233 395 224 l 397 233 l 394 233 l 397 233 m 446 233 l 443 233 l 446 233 q 443 233 444 203 l 446 233 m 399 228 q 397 228 398 219 l 399 228 l 397 228 l 399 228 m 378 225 q 386 217 387 224 l 389 217 l 386 217 l 389 217 l 389 212 q 391 203 394 209 q 391 195 397 201 q 386 184 395 187 l 386 190 l 386 195 l 386 201 q 383 209 380 203 l 380 212 l 383 209 l 380 214 l 380 212 l 380 217 l 380 214 l 380 217 l 378 225 m 337 222 q 340 217 341 221 q 337 222 336 219 m 364 220 l 361 220 l 364 217 l 364 220 l 364 214 l 364 217 l 367 214 l 364 214 l 367 214 l 367 195 q 364 184 368 188 q 361 184 363 170 l 359 184 l 361 184 l 359 184 l 361 193 l 361 198 l 361 203 l 361 209 l 361 220 l 364 220 m 74 198 q 79 193 79 196 l 79 165 l 82 160 l 82 141 l 79 136 q 82 125 80 128 l 79 114 l 79 92 l 77 92 l 79 92 l 77 92 l 77 100 l 74 106 l 74 114 l 74 119 l 74 127 l 74 136 l 74 141 l 77 141 l 74 141 l 77 141 l 77 146 l 77 141 l 77 146 l 77 157 l 74 163 l 74 168 l 74 182 l 74 187 l 74 198 m 435 171 q 437 165 444 171 q 429 152 437 155 l 429 157 l 432 157 l 429 157 l 432 160 l 432 157 l 432 160 l 435 165 l 435 171 l 435 165 l 435 171 m 372 168 l 370 168 l 372 168 l 372 146 l 370 146 l 372 146 l 367 146 l 370 146 l 367 146 q 361 141 365 141 q 367 155 361 152 l 370 160 l 370 168 l 372 168 m 429 152 l 427 152 l 429 152 q 427 152 428 148 l 429 152 m 321 149 q 321 146 325 148 l 321 149 l 321 146 l 321 149 m 318 146 q 318 141 323 144 q 313 133 318 134 q 302 127 311 122 q 296 122 302 125 l 299 130 l 304 130 q 310 136 305 133 l 307 136 l 310 138 l 310 136 l 313 138 l 310 138 l 313 141 l 313 138 l 313 141 q 318 146 317 144 m 332 138 q 334 133 336 137 q 332 138 330 135 m 416 133 l 416 130 l 416 133 l 413 130 l 416 130 l 410 130 l 413 130 l 410 130 q 405 125 408 125 l 405 119 l 405 125 l 405 119 l 397 114 l 399 117 l 397 114 l 391 109 l 391 111 l 391 109 l 386 109 q 372 100 382 99 q 361 92 369 92 l 364 98 l 370 100 l 372 106 l 378 106 l 378 109 l 378 106 l 378 109 l 383 111 l 380 111 l 383 111 q 389 117 385 117 q 394 119 391 121 l 397 125 l 397 122 l 397 125 l 402 127 l 399 127 l 402 127 q 408 133 404 133 l 416 133 m 326 130 q 329 125 330 128 q 326 130 325 127 m 323 122 l 321 122 l 323 122 q 315 117 323 112 q 323 122 320 119 m 296 103 q 291 92 311 100 l 286 92 l 291 92 l 286 92 q 277 87 283 85 q 272 90 272 81 l 275 92 l 280 92 q 291 95 284 96 q 296 100 293 100 l 296 103 l 296 100 l 296 103 m 353 90 l 351 90 l 353 90 q 351 90 352 81 l 353 90 m 342 84 q 342 79 352 83 l 342 84 m 299 65 q 302 60 307 65 l 296 60 l 302 60 l 296 60 q 291 62 291 54 l 299 65 m 218 62 q 242 57 251 65 l 237 57 q 226 57 232 51 l 218 57 l 218 62 m 87 54 l 85 54 l 87 52 l 87 54 l 87 52 l 98 52 l 98 46 q 85 54 79 43 l 87 54 m 177 52 q 172 46 177 45 q 163 49 168 41 l 172 52 l 177 52 z "},"C":{"ha":569,"x_min":27,"x_max":545,"o":"m 477 640 q 477 627 473 633 q 475 616 477 619 l 467 616 q 458 618 463 621 l 453 616 l 450 624 q 431 627 439 618 q 418 629 425 625 l 410 627 l 399 627 l 391 627 l 385 627 l 372 627 q 358 627 364 622 l 358 624 l 358 627 l 358 624 l 353 627 l 353 624 l 353 627 l 353 624 l 347 624 l 334 624 l 334 621 l 334 624 l 331 621 l 334 621 l 328 621 l 331 621 l 326 621 l 328 621 l 326 621 q 312 624 316 621 l 312 621 l 312 624 l 312 621 l 307 621 l 296 621 l 288 618 l 290 621 l 288 618 l 279 616 l 282 618 l 277 616 l 279 616 l 277 616 q 266 613 269 615 l 266 616 l 266 613 l 266 616 l 255 616 q 250 610 255 609 l 244 608 l 239 605 l 233 605 q 225 602 231 600 l 222 600 l 217 597 q 212 591 215 591 l 206 591 q 201 589 204 587 l 193 586 q 184 583 190 581 q 176 578 182 576 l 174 575 q 163 567 170 566 q 155 562 161 560 q 149 559 153 557 q 141 553 147 552 l 141 551 l 141 553 l 138 551 l 141 551 l 138 551 q 133 545 136 545 l 130 540 l 130 543 l 127 540 l 130 540 l 127 537 l 127 540 l 127 537 q 122 532 123 534 l 117 532 q 109 526 115 525 l 106 524 l 103 515 l 103 518 l 103 515 l 98 515 q 95 505 97 513 l 95 510 l 95 505 l 90 502 q 81 491 87 492 l 79 491 l 81 491 l 79 491 q 71 480 78 482 q 65 472 71 473 l 65 469 l 65 472 q 60 467 64 465 l 57 458 q 52 442 54 450 q 47 438 47 440 q 43 431 47 435 q 38 415 44 422 l 38 401 l 35 396 l 33 382 l 30 369 l 30 331 l 27 331 l 30 331 l 27 331 l 27 320 l 30 315 q 33 304 31 307 l 35 290 l 35 293 l 35 290 q 38 277 34 283 l 38 255 l 41 252 l 41 244 l 41 247 l 43 241 l 41 244 l 43 241 l 43 228 l 46 225 l 43 228 l 46 225 l 49 206 l 52 201 l 52 193 l 54 193 l 52 193 l 54 193 l 54 187 q 57 179 60 184 q 65 171 62 176 l 65 174 l 65 171 l 68 163 q 73 155 75 161 l 79 152 l 76 152 l 79 152 q 84 144 79 146 l 84 136 q 87 130 89 134 l 90 130 l 87 130 l 90 130 l 90 125 q 95 117 96 123 q 98 111 100 115 q 106 100 106 108 q 111 92 113 98 q 117 84 118 90 q 127 73 129 83 q 138 62 140 72 q 149 54 147 62 l 155 54 l 149 54 l 155 54 q 160 52 157 50 l 160 49 l 160 52 l 163 49 l 160 49 l 165 49 l 163 49 l 165 49 q 174 46 169 43 l 174 43 l 174 46 l 174 43 l 179 41 l 184 41 l 179 41 l 184 41 l 187 35 q 198 30 196 35 l 203 30 l 198 30 l 203 30 q 214 24 212 27 l 222 22 l 231 19 l 236 19 l 231 19 l 236 19 l 241 19 l 241 16 l 241 19 l 241 16 l 250 14 l 255 14 l 250 14 l 255 14 l 260 14 l 266 14 l 277 14 l 288 14 l 296 16 q 301 14 298 12 l 307 14 l 312 11 l 320 11 l 317 11 l 320 11 l 326 8 l 331 8 l 326 8 l 334 8 l 331 8 l 336 8 l 334 8 l 336 8 l 342 5 l 347 5 l 342 5 l 350 3 l 358 0 l 363 0 l 369 0 l 374 0 l 388 0 l 391 0 l 388 0 l 391 0 l 399 3 l 410 3 l 415 3 l 420 3 q 429 5 423 8 l 437 8 l 442 8 l 448 8 l 453 8 l 453 11 l 453 8 l 453 11 l 467 11 l 467 14 l 467 11 l 467 14 l 472 14 q 488 22 477 23 l 488 24 l 488 22 l 491 24 l 488 24 l 491 27 l 491 24 l 494 27 l 491 27 l 494 30 l 494 27 l 494 30 q 496 38 499 33 l 502 35 l 502 38 l 502 35 l 502 38 l 507 38 q 515 41 510 43 q 521 43 517 45 q 534 41 529 52 l 543 43 l 543 49 l 543 43 l 543 49 l 543 57 l 545 60 l 543 62 l 545 60 l 543 62 l 545 65 l 545 71 l 545 65 l 545 71 l 545 81 l 545 87 q 540 92 540 89 l 540 100 l 540 109 q 537 114 535 111 l 537 119 l 537 125 l 537 133 l 537 130 l 537 133 q 534 144 532 136 l 534 146 l 534 144 l 534 149 l 534 146 l 534 149 l 532 157 l 521 157 l 513 155 l 513 141 l 510 138 l 505 138 q 491 130 501 129 l 491 127 l 491 130 l 491 127 l 486 127 q 477 125 483 122 l 477 122 l 477 125 l 475 122 l 477 122 l 475 122 l 467 119 q 456 117 463 114 l 456 114 l 456 117 l 456 114 l 448 114 q 431 117 439 104 l 426 117 l 431 117 l 426 117 q 423 103 427 107 l 412 103 l 407 100 l 396 100 l 393 98 l 385 98 l 377 98 l 380 98 l 377 98 q 366 95 374 92 l 366 98 l 366 95 l 366 98 q 358 103 360 99 l 355 100 l 358 103 l 355 100 q 345 98 348 100 l 339 98 l 334 100 l 326 100 l 328 100 l 326 103 l 326 100 l 326 103 l 315 103 l 312 106 l 307 109 l 301 109 l 293 111 l 285 111 l 288 111 l 285 111 q 277 114 281 117 l 274 117 q 266 122 268 118 q 255 127 257 122 q 241 136 245 127 q 228 144 231 136 q 222 149 222 146 q 214 157 214 149 q 212 163 210 159 q 209 168 207 165 q 206 174 204 170 l 203 174 l 206 174 l 203 174 l 201 182 q 198 187 196 184 q 195 193 193 189 q 193 198 191 195 l 190 198 l 193 198 l 190 201 l 190 198 l 190 201 l 187 209 l 187 220 q 182 228 180 222 q 179 239 176 231 l 176 239 l 179 239 l 176 239 l 176 252 l 174 252 l 176 252 l 174 252 l 174 258 l 174 271 l 171 274 l 171 282 l 168 288 l 168 293 l 168 307 l 168 309 l 168 307 l 168 309 l 165 317 l 168 317 l 165 317 l 168 317 l 171 326 l 168 331 q 171 331 170 340 l 174 331 l 171 331 l 174 331 l 174 342 l 171 342 l 174 342 l 171 345 l 171 342 l 171 347 l 171 345 l 171 347 q 174 361 170 354 l 174 372 l 179 374 l 182 382 q 184 388 177 388 l 187 393 q 193 410 186 402 q 203 420 194 422 l 203 423 l 203 420 l 203 423 q 209 431 205 429 l 212 437 q 228 453 214 452 q 233 458 228 460 q 239 464 235 464 q 244 469 239 471 q 250 472 246 474 q 258 472 252 477 q 274 480 263 481 q 288 486 278 488 q 298 491 290 496 q 307 496 298 498 q 317 499 310 504 l 317 502 l 317 499 l 317 502 l 331 502 q 339 507 333 509 q 345 513 340 510 l 342 513 l 347 513 l 345 513 l 347 513 q 355 510 351 507 l 358 515 l 366 513 l 363 513 l 369 513 l 366 513 l 372 513 l 369 513 l 372 513 q 382 515 379 513 q 391 513 385 511 l 388 513 l 391 513 q 404 510 397 514 l 407 510 l 404 510 l 407 510 q 420 507 414 511 q 431 505 428 508 l 434 505 l 431 505 l 437 502 q 448 496 446 502 q 458 491 456 497 l 461 491 l 458 491 l 464 491 l 461 491 l 467 488 q 472 483 473 486 l 475 483 l 472 483 l 475 483 l 475 477 q 480 469 481 475 l 494 469 l 494 464 q 494 456 499 462 l 496 453 l 502 450 l 507 453 l 510 461 l 513 469 l 513 475 l 513 469 l 513 475 q 513 486 505 481 l 513 488 l 513 486 l 513 491 l 513 488 l 513 491 q 513 499 510 495 q 515 513 511 506 l 515 524 q 510 532 511 526 l 510 540 q 507 545 505 542 l 507 559 q 505 570 507 566 q 507 575 506 571 l 507 572 l 507 578 l 507 575 l 507 578 l 510 583 l 510 589 l 510 583 l 507 591 l 510 589 l 507 591 l 507 600 l 507 597 l 505 602 l 507 600 l 505 602 l 505 616 q 496 621 498 617 l 488 618 l 488 624 l 488 637 l 483 640 l 477 640 l 483 640 l 477 640 m 399 613 q 404 613 401 618 l 410 613 l 404 613 l 410 613 q 418 613 412 617 l 423 616 l 423 613 l 423 616 l 426 613 l 423 613 l 426 613 q 434 610 429 608 q 429 605 433 608 l 431 605 l 426 605 l 429 605 l 423 605 l 426 605 l 423 605 q 410 602 416 606 l 404 605 l 399 605 l 385 605 l 382 602 l 385 605 l 382 602 l 369 602 q 361 608 367 608 l 361 613 l 363 613 l 361 613 l 363 613 l 369 613 l 382 613 q 393 616 390 613 l 399 613 m 312 610 l 309 610 l 315 610 l 312 610 l 315 610 q 328 608 321 612 q 342 605 336 612 l 347 602 l 339 602 q 334 600 337 597 l 326 600 l 320 600 l 315 600 l 309 600 l 296 600 q 290 600 293 595 l 288 600 l 290 600 l 288 600 q 282 597 286 595 q 277 594 280 592 q 271 591 275 589 l 266 589 l 258 589 q 252 586 256 584 l 239 586 q 228 583 235 583 q 233 589 228 590 l 239 589 l 239 591 l 239 589 l 239 591 l 252 591 q 258 594 254 596 q 269 597 261 602 l 269 602 l 269 597 l 269 602 l 271 602 l 269 602 l 271 602 l 279 602 l 277 602 l 279 602 q 290 605 283 608 l 296 605 l 296 608 l 296 605 l 296 608 q 309 610 302 606 l 312 610 m 363 589 l 366 591 l 363 589 l 366 591 l 372 589 l 369 589 l 372 589 l 385 589 l 388 591 q 396 589 390 587 l 393 589 l 399 589 l 396 589 l 399 589 q 418 583 409 591 q 431 575 428 583 l 423 575 l 423 578 l 423 575 l 420 578 l 423 578 l 420 578 l 412 578 l 415 578 l 412 581 l 412 578 l 412 581 l 401 581 l 393 583 l 385 583 l 380 583 l 372 583 l 374 583 l 372 583 l 366 583 l 353 583 q 342 586 345 583 q 347 589 342 588 l 345 589 l 347 589 q 361 591 354 587 l 363 589 m 212 575 q 220 564 224 574 l 214 562 l 217 562 l 214 562 q 206 559 212 556 l 203 556 q 198 551 199 553 q 203 564 189 558 q 212 572 205 571 l 212 575 l 212 572 l 212 575 m 483 564 q 477 556 488 551 l 477 564 l 483 564 m 342 559 q 347 556 355 564 l 342 556 l 336 556 l 331 556 l 320 556 l 320 559 l 320 556 l 323 559 l 320 559 l 326 559 l 323 559 l 326 559 q 339 562 332 557 l 342 559 m 355 562 q 353 556 370 557 l 353 559 l 353 556 l 355 562 m 410 559 l 410 556 l 410 559 l 410 556 l 420 556 l 420 553 l 420 556 l 420 553 l 415 553 l 404 553 l 404 559 l 410 559 m 442 553 q 429 553 435 545 l 442 553 m 445 553 q 445 548 460 549 l 445 553 m 331 545 l 334 543 l 336 545 l 334 543 l 336 545 l 345 543 q 353 540 350 547 l 345 540 l 345 537 l 345 540 l 345 537 l 331 537 l 331 534 l 331 537 l 331 534 l 326 534 q 315 532 321 531 q 328 543 315 545 l 331 545 l 328 543 l 331 545 m 296 540 q 309 537 302 541 q 307 529 315 533 l 298 526 l 301 529 l 298 526 l 293 526 l 288 526 l 277 526 l 277 529 l 277 526 l 277 529 l 282 532 l 288 534 l 285 534 l 290 534 l 288 534 l 290 534 q 296 540 292 540 m 382 534 q 377 534 378 525 l 382 534 m 385 534 q 382 529 395 529 l 382 532 l 382 529 l 385 534 l 382 532 l 385 534 m 391 534 q 391 532 395 533 l 391 534 l 391 532 l 391 534 m 445 534 q 461 524 460 536 l 458 524 l 461 524 l 458 526 l 458 524 l 458 526 q 445 534 448 526 m 155 532 q 155 529 159 530 l 155 532 l 155 529 l 155 532 m 252 532 q 252 529 256 530 l 252 532 l 252 529 l 252 532 m 152 529 q 155 524 154 528 l 155 526 l 152 524 l 155 524 l 152 524 q 144 515 150 518 q 136 507 142 509 q 146 521 138 518 l 146 524 l 146 521 l 146 524 q 152 529 151 526 m 252 529 l 250 529 l 252 529 q 250 529 251 525 l 252 529 m 247 526 q 241 526 243 517 l 247 526 m 269 526 q 269 524 278 525 l 269 526 l 269 524 l 269 526 m 176 524 l 182 521 l 179 521 l 182 521 l 179 521 q 174 515 177 515 l 171 510 l 171 513 l 168 510 l 171 510 l 168 510 q 160 502 166 505 q 155 494 160 495 l 155 491 l 155 494 l 152 491 l 155 491 l 152 491 q 146 486 150 486 l 146 483 l 146 486 l 146 483 l 141 480 l 144 486 q 149 494 142 494 q 155 505 150 498 l 152 502 l 157 505 l 155 505 l 157 505 q 168 513 161 513 l 168 515 l 168 513 l 171 515 l 168 515 l 171 518 l 171 515 l 171 518 q 176 524 176 521 m 212 521 q 212 515 216 518 q 206 507 212 509 q 195 513 198 498 q 206 515 203 513 q 212 521 208 521 m 307 521 q 307 518 316 519 l 307 521 l 307 518 l 307 521 m 307 518 q 301 515 305 514 q 296 513 299 511 l 290 513 q 285 510 288 508 l 279 507 l 271 505 l 274 505 l 269 505 l 271 505 l 266 505 l 269 505 l 266 505 q 255 502 258 504 l 250 502 q 239 499 246 496 q 244 505 241 505 l 244 507 l 244 505 l 247 507 l 244 507 l 250 507 l 247 507 l 252 507 l 250 507 l 252 507 l 260 510 l 260 513 l 260 510 l 260 513 l 271 513 l 279 515 q 293 518 286 514 l 307 518 m 450 513 q 450 510 460 511 l 450 513 l 450 510 l 450 513 m 136 507 l 133 507 l 136 507 q 133 507 134 503 l 136 507 m 111 502 l 109 502 l 111 502 q 103 494 112 481 q 109 502 109 496 l 111 502 m 127 502 q 127 496 137 500 l 127 502 m 239 499 l 236 499 l 239 499 q 236 499 237 495 l 239 499 m 127 496 l 125 496 l 127 496 q 125 496 126 492 l 127 496 m 103 491 l 100 491 l 103 491 q 100 491 102 487 l 103 491 m 84 469 q 84 467 88 468 l 84 469 l 84 467 l 84 469 m 84 467 l 81 467 l 84 467 q 81 467 83 463 l 84 467 m 125 464 q 125 461 134 463 l 125 464 l 125 461 l 125 464 m 146 450 q 146 442 152 446 l 144 437 q 141 442 140 431 q 146 450 146 444 m 141 434 l 138 434 l 141 434 q 138 434 140 425 l 141 434 m 138 429 l 136 429 l 138 429 q 136 429 137 425 l 138 429 m 60 426 q 60 420 64 424 l 60 426 m 60 420 l 57 420 l 60 420 q 57 420 58 417 l 60 420 m 65 420 q 62 420 64 417 l 65 420 l 62 420 l 65 420 m 62 418 q 52 404 58 378 l 54 404 l 52 404 l 54 404 q 60 410 56 410 l 62 418 m 168 415 l 165 415 l 168 412 l 168 415 l 168 410 l 168 412 l 168 410 q 163 399 169 402 l 163 393 l 163 399 l 163 393 l 160 393 l 163 393 l 160 393 l 160 385 l 157 385 l 160 385 l 157 388 l 157 385 l 157 391 l 157 388 l 157 391 l 160 396 l 160 401 l 160 396 l 160 401 l 163 401 l 160 401 l 163 404 l 163 401 l 163 404 l 165 410 l 165 415 l 165 410 l 165 415 l 168 415 m 95 396 q 90 396 93 375 l 95 396 m 49 385 q 54 380 55 383 l 57 380 l 54 380 l 57 380 l 54 377 l 52 369 q 46 380 50 351 q 49 374 50 378 l 52 374 l 49 374 l 52 377 l 52 374 l 52 377 l 49 385 m 157 385 l 155 385 l 157 382 l 157 385 l 157 382 q 152 363 159 372 l 152 366 l 152 363 l 152 366 l 152 374 l 152 372 l 155 374 l 152 374 l 155 374 l 155 385 l 157 385 m 87 369 q 87 366 91 368 l 87 369 l 87 366 l 87 369 m 87 366 l 87 363 l 87 366 l 87 361 l 87 363 l 87 361 q 84 353 81 357 q 81 366 75 357 l 87 366 m 149 347 l 146 347 l 149 347 q 146 347 148 338 l 149 347 m 98 317 q 100 312 102 316 l 100 301 l 103 298 l 100 301 l 103 298 l 103 274 q 103 263 106 267 l 100 263 l 103 263 l 100 266 l 100 263 l 100 266 l 100 274 q 100 288 93 279 l 100 296 l 95 296 l 100 296 l 95 296 l 95 298 l 95 296 l 95 301 l 95 298 l 95 304 l 95 301 l 95 304 q 98 317 94 313 m 79 309 q 79 296 87 302 l 79 309 m 79 296 l 76 296 l 79 296 q 76 296 77 292 l 79 296 m 52 285 q 54 258 64 277 l 54 263 l 52 263 l 54 263 l 52 263 l 52 269 l 52 274 l 52 285 m 60 252 q 57 258 56 254 l 60 258 l 57 258 l 60 258 l 60 252 m 57 250 l 54 250 l 57 250 l 57 244 l 60 244 l 57 244 l 60 241 l 60 244 l 62 239 l 60 241 l 62 239 l 62 225 l 65 225 l 62 225 l 65 225 l 65 201 l 62 201 l 65 201 l 62 203 l 62 201 l 62 203 l 60 212 l 60 222 l 57 225 l 57 239 q 54 250 52 242 l 57 250 m 130 239 q 127 239 129 235 l 130 239 l 127 239 l 130 239 m 100 231 q 98 231 99 222 l 100 231 l 98 231 l 100 231 m 133 231 l 130 231 l 133 231 q 130 231 132 216 l 133 231 m 90 217 l 90 220 l 90 217 l 92 209 q 90 220 85 212 l 90 217 m 136 214 q 141 209 138 214 l 141 212 l 141 206 l 141 209 l 141 203 l 141 206 l 141 203 l 144 195 q 138 206 137 198 q 136 214 133 209 m 163 206 q 163 198 181 194 l 163 206 m 68 201 q 65 201 66 197 l 68 201 l 65 201 l 68 201 m 95 201 q 98 193 100 198 q 95 201 92 195 m 100 193 q 106 184 101 186 q 100 184 103 180 q 100 193 94 188 m 176 193 l 174 193 l 176 193 l 176 187 l 179 187 l 176 187 l 179 187 l 179 182 l 182 182 l 179 182 l 182 182 q 176 176 188 166 l 176 182 l 174 182 l 176 182 l 174 182 l 174 193 l 176 193 m 149 179 l 146 179 l 149 179 q 146 179 148 170 l 149 179 m 114 160 q 114 165 109 163 l 114 160 m 90 163 q 87 163 88 154 l 90 163 l 87 163 l 90 163 m 92 152 q 92 157 87 155 l 92 152 m 168 136 q 174 127 175 134 q 176 122 178 125 q 179 114 186 119 l 179 117 l 179 114 l 176 117 l 179 117 l 176 117 q 171 122 174 121 l 171 127 q 168 136 165 130 m 125 114 q 127 109 129 113 q 130 103 132 106 q 141 92 141 100 q 133 98 134 93 q 127 106 126 100 q 122 119 117 110 l 125 114 m 222 114 l 228 114 l 222 114 l 228 114 q 236 109 230 109 l 236 106 l 236 109 q 241 100 239 105 l 241 103 l 244 98 l 250 95 l 255 95 l 250 95 l 255 95 q 255 87 257 90 q 244 92 246 86 q 239 98 241 93 l 239 95 l 239 98 q 225 109 228 100 q 220 119 216 111 l 222 114 m 184 114 q 182 114 183 111 l 184 114 l 182 114 l 184 114 m 507 109 q 502 103 515 102 l 502 106 l 502 103 l 502 106 l 507 109 m 176 98 q 187 90 185 97 q 193 84 190 89 l 193 87 l 193 84 q 201 76 201 83 q 203 65 208 73 q 201 71 199 67 q 193 76 194 71 q 187 84 186 78 q 176 98 178 87 m 524 95 l 524 79 l 521 76 l 524 79 l 521 76 l 513 79 l 502 79 l 502 81 l 502 79 l 505 81 l 502 81 l 505 81 q 513 87 507 88 q 518 95 513 94 l 524 95 m 146 92 q 157 79 156 90 q 160 73 162 77 q 163 68 165 71 l 155 71 l 155 73 l 155 71 l 152 73 l 155 73 l 152 76 l 152 73 l 149 76 l 152 76 l 149 76 q 144 81 146 81 l 146 87 l 146 92 l 146 87 l 146 92 m 437 92 q 426 87 463 83 l 426 90 l 426 87 l 426 90 q 437 92 433 90 m 269 81 q 263 81 266 70 l 269 81 m 165 68 q 163 68 164 64 l 165 68 l 163 68 l 165 68 m 212 68 q 206 62 222 56 q 212 68 208 68 m 426 65 q 426 62 440 64 l 426 65 l 426 62 l 426 65 m 307 62 q 309 57 325 62 l 307 62 m 326 41 q 326 38 335 39 l 326 41 l 326 38 l 326 41 m 415 41 l 426 41 l 426 38 l 426 41 l 423 38 l 426 38 l 423 35 l 423 38 l 423 35 l 418 35 q 410 33 415 30 l 410 30 l 410 33 l 410 30 l 396 30 l 396 38 q 410 41 403 37 l 415 41 m 274 38 q 269 38 271 26 l 274 38 m 285 38 l 282 38 l 285 38 q 293 35 288 33 q 288 30 298 28 q 279 35 280 30 l 285 38 m 369 38 l 374 38 l 385 38 l 382 33 l 377 35 l 380 35 l 377 35 q 363 38 370 34 l 369 38 m 464 30 q 464 27 468 28 l 464 30 l 464 27 l 464 30 m 464 27 q 456 27 460 22 l 464 27 m 448 24 q 448 22 457 23 l 448 24 l 448 22 l 448 24 z "}}}
